<?xml version="1.0" encoding="UTF-8" standalone="no"?>
<!DOCTYPE svg PUBLIC "-//W3C//DTD SVG 1.1//EN" "http://www.w3.org/Graphics/SVG/1.1/DTD/svg11.dtd">
<svg version="1.1" xmlns="http://www.w3.org/2000/svg" xmlns:xlink="http://www.w3.org/1999/xlink" preserveAspectRatio="xMidYMid meet" viewBox="0 0 640 640" width="640" height="640"><defs><path d="M220 276.94C220 297.12 220 342.89 220 363.06C220 372.18 224.87 380.61 232.76 385.18C250.21 395.27 289.78 418.14 307.24 428.23C315.13 432.79 324.86 432.79 332.77 428.22C350.21 418.15 389.79 395.27 407.24 385.18C415.14 380.62 420 372.18 420 363.06C420 342.88 420 297.11 420 276.94C420 267.82 415.13 259.39 407.24 254.82C389.79 244.73 350.22 221.86 332.76 211.77C324.87 207.21 315.14 207.21 307.23 211.78C289.79 221.85 250.21 244.73 232.76 254.82C224.86 259.38 220 267.82 220 276.94Z" id="b1uEFdpj6M"></path><path d="M321.19 219.54L321.78 219.59L322.38 219.64L322.97 219.71L323.56 219.79L324.15 219.89L324.73 220.01L325.32 220.14L325.9 220.28L326.47 220.45L327.05 220.62L327.62 220.81L328.19 221.03L328.75 221.24L329.31 221.49L329.86 221.74L330.41 222.01L330.95 222.29L331.49 222.6L398.51 261.34L399.03 261.65L399.56 261.98L400.07 262.32L400.56 262.67L401.04 263.03L401.52 263.41L401.98 263.8L402.43 264.2L402.88 264.61L403.31 265.03L403.72 265.45L404.13 265.9L404.9 266.8L405.63 267.75L405.97 268.24L406.3 268.74L406.62 269.24L406.92 269.75L407.21 270.27L407.49 270.8L407.75 271.33L408 271.87L408.24 272.43L408.46 272.98L408.67 273.54L408.86 274.1L409.04 274.68L409.21 275.25L409.36 275.83L409.49 276.42L409.61 277.01L409.71 277.6L409.8 278.2L409.87 278.8L409.93 279.42L409.97 280.02L409.99 280.63L410 281.25L410 358.75L409.99 359.37L409.96 359.98L409.92 360.59L409.87 361.2L409.8 361.8L409.71 362.4L409.61 362.99L409.49 363.58L409.36 364.17L409.21 364.75L409.04 365.32L408.86 365.9L408.67 366.46L408.46 367.02L408.24 367.58L408.01 368.13L407.75 368.67L407.49 369.2L407.21 369.73L406.92 370.24L406.62 370.76L406.3 371.26L405.97 371.76L405.63 372.24L405.27 372.72L404.9 373.19L404.52 373.65L404.13 374.1L403.73 374.54L403.3 374.98L402.88 375.39L402.43 375.8L401.98 376.2L401.52 376.59L401.05 376.96L400.56 377.33L400.07 377.68L399.56 378.02L399.04 378.34L398.51 378.66L331.49 417.4L330.95 417.71L330.41 417.98L329.86 418.26L329.31 418.51L328.76 418.75L328.19 418.97L327.05 419.38L326.48 419.56L325.9 419.72L325.32 419.86L324.74 420L324.15 420.11L323.56 420.21L322.97 420.29L322.38 420.36L321.78 420.41L321.19 420.45L320.59 420.48L320 420.48L319.4 420.47L318.81 420.46L318.22 420.41L317.62 420.36L317.03 420.29L316.44 420.21L315.85 420.11L315.27 419.99L314.68 419.86L314.1 419.72L313.53 419.55L312.95 419.38L312.38 419.19L311.81 418.97L311.25 418.76L310.69 418.51L310.14 418.26L309.59 417.99L309.05 417.71L308.51 417.4L241.49 378.66L240.97 378.35L240.44 378.02L239.93 377.68L239.44 377.33L238.96 376.97L238.48 376.59L238.02 376.2L237.57 375.8L237.12 375.39L236.69 374.97L236.28 374.55L235.87 374.1L235.1 373.2L234.37 372.25L234.03 371.76L233.7 371.26L233.38 370.76L233.08 370.25L232.79 369.73L232.51 369.2L232.25 368.67L232 368.13L231.76 367.57L231.54 367.02L231.33 366.46L231.14 365.9L230.96 365.32L230.79 364.75L230.64 364.17L230.51 363.58L230.39 362.99L230.29 362.4L230.2 361.8L230.13 361.2L230.07 360.58L230.03 359.98L230.01 359.37L230 358.75L230 281.25L230.01 280.63L230.04 280.02L230.08 279.41L230.13 278.8L230.2 278.2L230.29 277.6L230.39 277.01L230.51 276.42L230.64 275.83L230.79 275.25L230.96 274.68L231.14 274.1L231.33 273.54L231.54 272.98L231.76 272.42L231.99 271.87L232.25 271.33L232.51 270.8L232.79 270.27L233.08 269.76L233.38 269.24L233.7 268.74L234.03 268.24L234.37 267.76L234.73 267.28L235.1 266.81L235.48 266.35L235.87 265.9L236.27 265.46L236.7 265.02L237.12 264.61L237.57 264.2L238.02 263.8L238.48 263.41L238.95 263.04L239.44 262.67L239.93 262.32L240.44 261.98L240.96 261.66L241.49 261.34L308.51 222.6L309.05 222.29L309.59 222.02L310.14 221.74L310.69 221.49L311.24 221.25L311.81 221.03L312.95 220.62L313.52 220.44L314.1 220.28L314.68 220.14L315.26 220L315.85 219.89L316.44 219.79L317.03 219.71L317.62 219.64L318.22 219.59L318.81 219.55L319.41 219.52L320 219.52L320.6 219.53L321.19 219.54ZM318.94 230.71L318.42 230.74L317.88 230.79L317.36 230.85L316.83 230.92L316.31 231.01L315.79 231.12L315.27 231.23L314.76 231.36L314.25 231.51L313.73 231.67L313.22 231.84L312.72 232.02L312.22 232.22L311.73 232.43L311.24 232.66L310.74 232.9L310.26 233.15L309.78 233.42L250.22 267.85L249.74 268.13L249.28 268.42L248.83 268.73L248.4 269.04L247.96 269.36L247.13 270.04L246.72 270.4L246.33 270.76L245.95 271.14L245.58 271.52L245.22 271.91L244.87 272.31L244.53 272.72L244.21 273.14L243.89 273.56L243.58 274L243.29 274.43L243.01 274.88L242.48 275.8L242.23 276.26L242 276.74L241.78 277.23L241.57 277.71L241.36 278.2L241.18 278.7L240.85 279.71L240.7 280.22L240.45 281.26L240.35 281.78L240.26 282.32L240.18 282.85L240.12 283.38L240.07 283.92L240.03 284.47L240.01 285.01L240 285.56L240 354.44L240.01 354.99L240.03 355.53L240.06 356.07L240.12 356.62L240.18 357.15L240.25 357.69L240.35 358.22L240.45 358.74L240.58 359.26L240.71 359.77L240.85 360.29L241.01 360.8L241.18 361.3L241.37 361.79L241.57 362.29L241.77 362.78L242.23 363.74L242.47 364.2L242.74 364.66L243.01 365.12L243.29 365.57L243.58 366L243.89 366.43L244.21 366.86L244.53 367.28L244.87 367.69L245.22 368.09L245.58 368.48L245.95 368.86L246.33 369.24L246.72 369.61L247.13 369.96L247.54 370.3L247.96 370.63L248.39 370.96L248.83 371.27L249.29 371.57L249.74 371.87L250.22 372.15L309.79 406.58L310.26 406.85L310.75 407.1L311.24 407.34L311.73 407.57L312.22 407.78L312.72 407.97L313.22 408.16L313.73 408.33L314.25 408.49L314.76 408.64L315.27 408.77L315.79 408.89L316.31 408.99L316.84 409.07L317.36 409.15L317.88 409.21L318.42 409.26L318.94 409.29L319.47 409.31L320 409.32L320.53 409.31L321.06 409.29L321.58 409.26L322.12 409.21L322.64 409.15L323.17 409.08L323.69 408.99L324.21 408.88L324.73 408.77L325.24 408.64L325.75 408.49L326.27 408.33L326.78 408.16L327.28 407.98L327.78 407.78L328.27 407.57L328.76 407.34L329.26 407.1L329.74 406.85L330.22 406.58L389.78 372.15L390.26 371.87L390.72 371.58L391.17 371.27L391.6 370.96L392.04 370.64L392.87 369.96L393.28 369.6L393.67 369.24L394.05 368.86L394.42 368.48L394.78 368.09L395.13 367.69L395.47 367.28L395.79 366.86L396.11 366.44L396.42 366L396.71 365.57L396.99 365.12L397.52 364.2L397.77 363.74L398 363.26L398.22 362.77L398.43 362.29L398.64 361.8L398.82 361.3L399.15 360.29L399.3 359.78L399.55 358.74L399.65 358.22L399.74 357.68L399.82 357.15L399.88 356.62L399.93 356.08L399.97 355.53L399.99 354.99L400 354.44L400 285.56L399.99 285.01L399.97 284.47L399.94 283.93L399.88 283.38L399.82 282.85L399.75 282.31L399.65 281.78L399.55 281.26L399.42 280.74L399.29 280.23L399.15 279.71L398.99 279.2L398.82 278.7L398.63 278.21L398.43 277.71L398.23 277.22L397.77 276.26L397.53 275.8L397.26 275.34L396.99 274.88L396.71 274.43L396.42 274L396.11 273.57L395.79 273.14L395.47 272.72L395.13 272.31L394.78 271.91L394.42 271.52L394.05 271.14L393.67 270.76L393.28 270.39L392.87 270.04L392.46 269.7L392.04 269.37L391.61 269.04L391.17 268.73L390.71 268.43L390.26 268.13L389.78 267.85L330.21 233.42L329.74 233.15L329.25 232.9L328.76 232.66L328.27 232.43L327.78 232.22L327.28 232.03L326.78 231.84L326.27 231.67L325.75 231.51L325.24 231.36L324.73 231.23L324.21 231.11L323.69 231.01L323.16 230.93L322.64 230.85L322.12 230.79L321.58 230.74L321.06 230.71L320.53 230.69L320 230.68L319.47 230.69L318.94 230.71Z" id="a1DFP5rjUU"></path><path d="M220 276.94C220 297.12 220 342.89 220 363.06C220 372.18 224.87 380.61 232.76 385.18C250.21 395.27 289.78 418.14 307.24 428.23C315.13 432.79 324.86 432.79 332.77 428.22C350.21 418.15 389.79 395.27 407.24 385.18C415.14 380.62 420 372.18 420 363.06C420 342.88 420 297.11 420 276.94C420 267.82 415.13 259.39 407.24 254.82C389.79 244.73 350.22 221.86 332.76 211.77C324.87 207.21 315.14 207.21 307.23 211.78C289.79 221.85 250.21 244.73 232.76 254.82C224.86 259.38 220 267.82 220 276.94Z" id="aKDkT84jn"></path><path d="M321.19 219.54L321.78 219.59L322.38 219.64L322.97 219.71L323.56 219.79L324.15 219.89L324.73 220.01L325.32 220.14L325.9 220.28L326.47 220.45L327.05 220.62L327.62 220.81L328.19 221.03L328.75 221.24L329.31 221.49L329.86 221.74L330.41 222.01L330.95 222.29L331.49 222.6L398.51 261.34L399.03 261.65L399.56 261.98L400.07 262.32L400.56 262.67L401.04 263.03L401.52 263.41L401.98 263.8L402.43 264.2L402.88 264.61L403.31 265.03L403.72 265.45L404.13 265.9L404.9 266.8L405.63 267.75L405.97 268.24L406.3 268.74L406.62 269.24L406.92 269.75L407.21 270.27L407.49 270.8L407.75 271.33L408 271.87L408.24 272.43L408.46 272.98L408.67 273.54L408.86 274.1L409.04 274.68L409.21 275.25L409.36 275.83L409.49 276.42L409.61 277.01L409.71 277.6L409.8 278.2L409.87 278.8L409.93 279.42L409.97 280.02L409.99 280.63L410 281.25L410 358.75L409.99 359.37L409.96 359.98L409.92 360.59L409.87 361.2L409.8 361.8L409.71 362.4L409.61 362.99L409.49 363.58L409.36 364.17L409.21 364.75L409.04 365.32L408.86 365.9L408.67 366.46L408.46 367.02L408.24 367.58L408.01 368.13L407.75 368.67L407.49 369.2L407.21 369.73L406.92 370.24L406.62 370.76L406.3 371.26L405.97 371.76L405.63 372.24L405.27 372.72L404.9 373.19L404.52 373.65L404.13 374.1L403.73 374.54L403.3 374.98L402.88 375.39L402.43 375.8L401.98 376.2L401.52 376.59L401.05 376.96L400.56 377.33L400.07 377.68L399.56 378.02L399.04 378.34L398.51 378.66L331.49 417.4L330.95 417.71L330.41 417.98L329.86 418.26L329.31 418.51L328.76 418.75L328.19 418.97L327.05 419.38L326.48 419.56L325.9 419.72L325.32 419.86L324.74 420L324.15 420.11L323.56 420.21L322.97 420.29L322.38 420.36L321.78 420.41L321.19 420.45L320.59 420.48L320 420.48L319.4 420.47L318.81 420.46L318.22 420.41L317.62 420.36L317.03 420.29L316.44 420.21L315.85 420.11L315.27 419.99L314.68 419.86L314.1 419.72L313.53 419.55L312.95 419.38L312.38 419.19L311.81 418.97L311.25 418.76L310.69 418.51L310.14 418.26L309.59 417.99L309.05 417.71L308.51 417.4L241.49 378.66L240.97 378.35L240.44 378.02L239.93 377.68L239.44 377.33L238.96 376.97L238.48 376.59L238.02 376.2L237.57 375.8L237.12 375.39L236.69 374.97L236.28 374.55L235.87 374.1L235.1 373.2L234.37 372.25L234.03 371.76L233.7 371.26L233.38 370.76L233.08 370.25L232.79 369.73L232.51 369.2L232.25 368.67L232 368.13L231.76 367.57L231.54 367.02L231.33 366.46L231.14 365.9L230.96 365.32L230.79 364.75L230.64 364.17L230.51 363.58L230.39 362.99L230.29 362.4L230.2 361.8L230.13 361.2L230.07 360.58L230.03 359.98L230.01 359.37L230 358.75L230 281.25L230.01 280.63L230.04 280.02L230.08 279.41L230.13 278.8L230.2 278.2L230.29 277.6L230.39 277.01L230.51 276.42L230.64 275.83L230.79 275.25L230.96 274.68L231.14 274.1L231.33 273.54L231.54 272.98L231.76 272.42L231.99 271.87L232.25 271.33L232.51 270.8L232.79 270.27L233.08 269.76L233.38 269.24L233.7 268.74L234.03 268.24L234.37 267.76L234.73 267.28L235.1 266.81L235.48 266.35L235.87 265.9L236.27 265.46L236.7 265.02L237.12 264.61L237.57 264.2L238.02 263.8L238.48 263.41L238.95 263.04L239.44 262.67L239.93 262.32L240.44 261.98L240.96 261.66L241.49 261.34L308.51 222.6L309.05 222.29L309.59 222.02L310.14 221.74L310.69 221.49L311.24 221.25L311.81 221.03L312.95 220.62L313.52 220.44L314.1 220.28L314.68 220.14L315.26 220L315.85 219.89L316.44 219.79L317.03 219.71L317.62 219.64L318.22 219.59L318.81 219.55L319.41 219.52L320 219.52L320.6 219.53L321.19 219.54ZM318.94 230.71L318.42 230.74L317.88 230.79L317.36 230.85L316.83 230.92L316.31 231.01L315.79 231.12L315.27 231.23L314.76 231.36L314.25 231.51L313.73 231.67L313.22 231.84L312.72 232.02L312.22 232.22L311.73 232.43L311.24 232.66L310.74 232.9L310.26 233.15L309.78 233.42L250.22 267.85L249.74 268.13L249.28 268.42L248.83 268.73L248.4 269.04L247.96 269.36L247.13 270.04L246.72 270.4L246.33 270.76L245.95 271.14L245.58 271.52L245.22 271.91L244.87 272.31L244.53 272.72L244.21 273.14L243.89 273.56L243.58 274L243.29 274.43L243.01 274.88L242.48 275.8L242.23 276.26L242 276.74L241.78 277.23L241.57 277.71L241.36 278.2L241.18 278.7L240.85 279.71L240.7 280.22L240.45 281.26L240.35 281.78L240.26 282.32L240.18 282.85L240.12 283.38L240.07 283.92L240.03 284.47L240.01 285.01L240 285.56L240 354.44L240.01 354.99L240.03 355.53L240.06 356.07L240.12 356.62L240.18 357.15L240.25 357.69L240.35 358.22L240.45 358.74L240.58 359.26L240.71 359.77L240.85 360.29L241.01 360.8L241.18 361.3L241.37 361.79L241.57 362.29L241.77 362.78L242.23 363.74L242.47 364.2L242.74 364.66L243.01 365.12L243.29 365.57L243.58 366L243.89 366.43L244.21 366.86L244.53 367.28L244.87 367.69L245.22 368.09L245.58 368.48L245.95 368.86L246.33 369.24L246.72 369.61L247.13 369.96L247.54 370.3L247.96 370.63L248.39 370.96L248.83 371.27L249.29 371.57L249.74 371.87L250.22 372.15L309.79 406.58L310.26 406.85L310.75 407.1L311.24 407.34L311.73 407.57L312.22 407.78L312.72 407.97L313.22 408.16L313.73 408.33L314.25 408.49L314.76 408.64L315.27 408.77L315.79 408.89L316.31 408.99L316.84 409.07L317.36 409.15L317.88 409.21L318.42 409.26L318.94 409.29L319.47 409.31L320 409.32L320.53 409.31L321.06 409.29L321.58 409.26L322.12 409.21L322.64 409.15L323.17 409.08L323.69 408.99L324.21 408.88L324.73 408.77L325.24 408.64L325.75 408.49L326.27 408.33L326.78 408.16L327.28 407.98L327.78 407.78L328.27 407.57L328.76 407.34L329.26 407.1L329.74 406.85L330.22 406.58L389.78 372.15L390.26 371.87L390.72 371.58L391.17 371.27L391.6 370.96L392.04 370.64L392.87 369.96L393.28 369.6L393.67 369.24L394.05 368.86L394.42 368.48L394.78 368.09L395.13 367.69L395.47 367.28L395.79 366.86L396.11 366.44L396.42 366L396.71 365.57L396.99 365.12L397.52 364.2L397.77 363.74L398 363.26L398.22 362.77L398.43 362.29L398.64 361.8L398.82 361.3L399.15 360.29L399.3 359.78L399.55 358.74L399.65 358.22L399.74 357.68L399.82 357.15L399.88 356.62L399.93 356.08L399.97 355.53L399.99 354.99L400 354.44L400 285.56L399.99 285.01L399.97 284.47L399.94 283.93L399.88 283.38L399.82 282.85L399.75 282.31L399.65 281.78L399.55 281.26L399.42 280.74L399.29 280.23L399.15 279.71L398.99 279.2L398.82 278.7L398.63 278.21L398.43 277.71L398.23 277.22L397.77 276.26L397.53 275.8L397.26 275.34L396.99 274.88L396.71 274.43L396.42 274L396.11 273.57L395.79 273.14L395.47 272.72L395.13 272.31L394.78 271.91L394.42 271.52L394.05 271.14L393.67 270.76L393.28 270.39L392.87 270.04L392.46 269.7L392.04 269.37L391.61 269.04L391.17 268.73L390.71 268.43L390.26 268.13L389.78 267.85L330.21 233.42L329.74 233.15L329.25 232.9L328.76 232.66L328.27 232.43L327.78 232.22L327.28 232.03L326.78 231.84L326.27 231.67L325.75 231.51L325.24 231.36L324.73 231.23L324.21 231.11L323.69 231.01L323.16 230.93L322.64 230.85L322.12 230.79L321.58 230.74L321.06 230.71L320.53 230.69L320 230.68L319.47 230.69L318.94 230.71Z" id="b1cxnixKca"></path><path d="M220 276.94C220 297.12 220 342.89 220 363.06C220 372.18 224.87 380.61 232.76 385.18C250.21 395.27 289.78 418.14 307.24 428.23C315.13 432.79 324.86 432.79 332.77 428.22C350.21 418.15 389.79 395.27 407.24 385.18C415.14 380.62 420 372.18 420 363.06C420 342.88 420 297.11 420 276.94C420 267.82 415.13 259.39 407.24 254.82C389.79 244.73 350.22 221.86 332.76 211.77C324.87 207.21 315.14 207.21 307.23 211.78C289.79 221.85 250.21 244.73 232.76 254.82C224.86 259.38 220 267.82 220 276.94Z" id="b6gV2kTbl"></path><path d="M321.19 219.54L321.78 219.59L322.38 219.64L322.97 219.71L323.56 219.79L324.15 219.89L324.73 220.01L325.32 220.14L325.9 220.28L326.47 220.45L327.05 220.62L327.62 220.81L328.19 221.03L328.75 221.24L329.31 221.49L329.86 221.74L330.41 222.01L330.95 222.29L331.49 222.6L398.51 261.34L399.03 261.65L399.56 261.98L400.07 262.32L400.56 262.67L401.04 263.03L401.52 263.41L401.98 263.8L402.43 264.2L402.88 264.61L403.31 265.03L403.72 265.45L404.13 265.9L404.9 266.8L405.63 267.75L405.97 268.24L406.3 268.74L406.62 269.24L406.92 269.75L407.21 270.27L407.49 270.8L407.75 271.33L408 271.87L408.24 272.43L408.46 272.98L408.67 273.54L408.86 274.1L409.04 274.68L409.21 275.25L409.36 275.83L409.49 276.42L409.61 277.01L409.71 277.6L409.8 278.2L409.87 278.8L409.93 279.42L409.97 280.02L409.99 280.63L410 281.25L410 358.75L409.99 359.37L409.96 359.98L409.92 360.59L409.87 361.2L409.8 361.8L409.71 362.4L409.61 362.99L409.49 363.58L409.36 364.17L409.21 364.75L409.04 365.32L408.86 365.9L408.67 366.46L408.46 367.02L408.24 367.58L408.01 368.13L407.75 368.67L407.49 369.2L407.21 369.73L406.92 370.24L406.62 370.76L406.3 371.26L405.97 371.76L405.63 372.24L405.27 372.72L404.9 373.19L404.52 373.65L404.13 374.1L403.73 374.54L403.3 374.98L402.88 375.39L402.43 375.8L401.98 376.2L401.52 376.59L401.05 376.96L400.56 377.33L400.07 377.68L399.56 378.02L399.04 378.34L398.51 378.66L331.49 417.4L330.95 417.71L330.41 417.98L329.86 418.26L329.31 418.51L328.76 418.75L328.19 418.97L327.05 419.38L326.48 419.56L325.9 419.72L325.32 419.86L324.74 420L324.15 420.11L323.56 420.21L322.97 420.29L322.38 420.36L321.78 420.41L321.19 420.45L320.59 420.48L320 420.48L319.4 420.47L318.81 420.46L318.22 420.41L317.62 420.36L317.03 420.29L316.44 420.21L315.85 420.11L315.27 419.99L314.68 419.86L314.1 419.72L313.53 419.55L312.95 419.38L312.38 419.19L311.81 418.97L311.25 418.76L310.69 418.51L310.14 418.26L309.59 417.99L309.05 417.71L308.51 417.4L241.49 378.66L240.97 378.35L240.44 378.02L239.93 377.68L239.44 377.33L238.96 376.97L238.48 376.59L238.02 376.2L237.57 375.8L237.12 375.39L236.69 374.97L236.28 374.55L235.87 374.1L235.1 373.2L234.37 372.25L234.03 371.76L233.7 371.26L233.38 370.76L233.08 370.25L232.79 369.73L232.51 369.2L232.25 368.67L232 368.13L231.76 367.57L231.54 367.02L231.33 366.46L231.14 365.9L230.96 365.32L230.79 364.75L230.64 364.17L230.51 363.58L230.39 362.99L230.29 362.4L230.2 361.8L230.13 361.2L230.07 360.58L230.03 359.98L230.01 359.37L230 358.75L230 281.25L230.01 280.63L230.04 280.02L230.08 279.41L230.13 278.8L230.2 278.2L230.29 277.6L230.39 277.01L230.51 276.42L230.64 275.83L230.79 275.25L230.96 274.68L231.14 274.1L231.33 273.54L231.54 272.98L231.76 272.42L231.99 271.87L232.25 271.33L232.51 270.8L232.79 270.27L233.08 269.76L233.38 269.24L233.7 268.74L234.03 268.24L234.37 267.76L234.73 267.28L235.1 266.81L235.48 266.35L235.87 265.9L236.27 265.46L236.7 265.02L237.12 264.61L237.57 264.2L238.02 263.8L238.48 263.41L238.95 263.04L239.44 262.67L239.93 262.32L240.44 261.98L240.96 261.66L241.49 261.34L308.51 222.6L309.05 222.29L309.59 222.02L310.14 221.74L310.69 221.49L311.24 221.25L311.81 221.03L312.95 220.62L313.52 220.44L314.1 220.28L314.68 220.14L315.26 220L315.85 219.89L316.44 219.79L317.03 219.71L317.62 219.64L318.22 219.59L318.81 219.55L319.41 219.52L320 219.52L320.6 219.53L321.19 219.54ZM318.94 230.71L318.42 230.74L317.88 230.79L317.36 230.85L316.83 230.92L316.31 231.01L315.79 231.12L315.27 231.23L314.76 231.36L314.25 231.51L313.73 231.67L313.22 231.84L312.72 232.02L312.22 232.22L311.73 232.43L311.24 232.66L310.74 232.9L310.26 233.15L309.78 233.42L250.22 267.85L249.74 268.13L249.28 268.42L248.83 268.73L248.4 269.04L247.96 269.36L247.13 270.04L246.72 270.4L246.33 270.76L245.95 271.14L245.58 271.52L245.22 271.91L244.87 272.31L244.53 272.72L244.21 273.14L243.89 273.56L243.58 274L243.29 274.43L243.01 274.88L242.48 275.8L242.23 276.26L242 276.74L241.78 277.23L241.57 277.71L241.36 278.2L241.18 278.7L240.85 279.71L240.7 280.22L240.45 281.26L240.35 281.78L240.26 282.32L240.18 282.85L240.12 283.38L240.07 283.92L240.03 284.47L240.01 285.01L240 285.56L240 354.44L240.01 354.99L240.03 355.53L240.06 356.07L240.12 356.62L240.18 357.15L240.25 357.69L240.35 358.22L240.45 358.74L240.58 359.26L240.71 359.77L240.85 360.29L241.01 360.8L241.18 361.3L241.37 361.79L241.57 362.29L241.77 362.78L242.23 363.74L242.47 364.2L242.74 364.66L243.01 365.12L243.29 365.57L243.58 366L243.89 366.43L244.21 366.86L244.53 367.28L244.87 367.69L245.22 368.09L245.58 368.48L245.95 368.86L246.33 369.24L246.72 369.61L247.13 369.96L247.54 370.3L247.96 370.63L248.39 370.96L248.83 371.27L249.29 371.57L249.74 371.87L250.22 372.15L309.79 406.58L310.26 406.85L310.75 407.1L311.24 407.34L311.73 407.57L312.22 407.78L312.72 407.97L313.22 408.16L313.73 408.33L314.25 408.49L314.76 408.64L315.27 408.77L315.79 408.89L316.31 408.99L316.84 409.07L317.36 409.15L317.88 409.21L318.42 409.26L318.94 409.29L319.47 409.31L320 409.32L320.53 409.31L321.06 409.29L321.58 409.26L322.12 409.21L322.64 409.15L323.17 409.08L323.69 408.99L324.21 408.88L324.73 408.77L325.24 408.64L325.75 408.49L326.27 408.33L326.78 408.16L327.28 407.98L327.78 407.78L328.27 407.57L328.76 407.34L329.26 407.1L329.74 406.85L330.22 406.58L389.78 372.15L390.26 371.87L390.72 371.58L391.17 371.27L391.6 370.96L392.04 370.64L392.87 369.96L393.28 369.6L393.67 369.24L394.05 368.86L394.42 368.48L394.78 368.09L395.13 367.69L395.47 367.28L395.79 366.86L396.11 366.44L396.42 366L396.71 365.57L396.99 365.12L397.52 364.2L397.77 363.74L398 363.26L398.22 362.77L398.43 362.29L398.64 361.8L398.82 361.3L399.15 360.29L399.3 359.78L399.55 358.74L399.65 358.22L399.74 357.68L399.82 357.15L399.88 356.62L399.93 356.08L399.97 355.53L399.99 354.99L400 354.44L400 285.56L399.99 285.01L399.97 284.47L399.94 283.93L399.88 283.38L399.82 282.85L399.75 282.31L399.65 281.78L399.55 281.26L399.42 280.74L399.29 280.23L399.15 279.71L398.99 279.2L398.82 278.7L398.63 278.21L398.43 277.71L398.23 277.22L397.77 276.26L397.53 275.8L397.26 275.34L396.99 274.88L396.71 274.43L396.42 274L396.11 273.57L395.79 273.14L395.47 272.72L395.13 272.31L394.78 271.91L394.42 271.52L394.05 271.14L393.67 270.76L393.28 270.39L392.87 270.04L392.46 269.7L392.04 269.37L391.61 269.04L391.17 268.73L390.71 268.43L390.26 268.13L389.78 267.85L330.21 233.42L329.74 233.15L329.25 232.9L328.76 232.66L328.27 232.43L327.78 232.22L327.28 232.03L326.78 231.84L326.27 231.67L325.75 231.51L325.24 231.36L324.73 231.23L324.21 231.11L323.69 231.01L323.16 230.93L322.64 230.85L322.12 230.79L321.58 230.74L321.06 230.71L320.53 230.69L320 230.68L319.47 230.69L318.94 230.71Z" id="a3pta5lJuE"></path><path d="M220 276.94C220 297.12 220 342.89 220 363.06C220 372.18 224.87 380.61 232.76 385.18C250.21 395.27 289.78 418.14 307.24 428.23C315.13 432.79 324.86 432.79 332.77 428.22C350.21 418.15 389.79 395.27 407.24 385.18C415.14 380.62 420 372.18 420 363.06C420 342.88 420 297.11 420 276.94C420 267.82 415.13 259.39 407.24 254.82C389.79 244.73 350.22 221.86 332.76 211.77C324.87 207.21 315.14 207.21 307.23 211.78C289.79 221.85 250.21 244.73 232.76 254.82C224.86 259.38 220 267.82 220 276.94Z" id="apujbwAXv"></path><path d="M321.19 219.54L321.78 219.59L322.38 219.64L322.97 219.71L323.56 219.79L324.15 219.89L324.73 220.01L325.32 220.14L325.9 220.28L326.47 220.45L327.05 220.62L327.62 220.81L328.19 221.03L328.75 221.24L329.31 221.49L329.86 221.74L330.41 222.01L330.95 222.29L331.49 222.6L398.51 261.34L399.03 261.65L399.56 261.98L400.07 262.32L400.56 262.67L401.04 263.03L401.52 263.41L401.98 263.8L402.43 264.2L402.88 264.61L403.31 265.03L403.72 265.45L404.13 265.9L404.9 266.8L405.63 267.75L405.97 268.24L406.3 268.74L406.62 269.24L406.92 269.75L407.21 270.27L407.49 270.8L407.75 271.33L408 271.87L408.24 272.43L408.46 272.98L408.67 273.54L408.86 274.1L409.04 274.68L409.21 275.25L409.36 275.83L409.49 276.42L409.61 277.01L409.71 277.6L409.8 278.2L409.87 278.8L409.93 279.42L409.97 280.02L409.99 280.63L410 281.25L410 358.75L409.99 359.37L409.96 359.98L409.92 360.59L409.87 361.2L409.8 361.8L409.71 362.4L409.61 362.99L409.49 363.58L409.36 364.17L409.21 364.75L409.04 365.32L408.86 365.9L408.67 366.46L408.46 367.02L408.24 367.58L408.01 368.13L407.75 368.67L407.49 369.2L407.21 369.73L406.92 370.24L406.62 370.76L406.3 371.26L405.97 371.76L405.63 372.24L405.27 372.72L404.9 373.19L404.52 373.65L404.13 374.1L403.73 374.54L403.3 374.98L402.88 375.39L402.43 375.8L401.98 376.2L401.52 376.59L401.05 376.96L400.56 377.33L400.07 377.68L399.56 378.02L399.04 378.34L398.51 378.66L331.49 417.4L330.95 417.71L330.41 417.98L329.86 418.26L329.31 418.51L328.76 418.75L328.19 418.97L327.05 419.38L326.48 419.56L325.9 419.72L325.32 419.86L324.74 420L324.15 420.11L323.56 420.21L322.97 420.29L322.38 420.36L321.78 420.41L321.19 420.45L320.59 420.48L320 420.48L319.4 420.47L318.81 420.46L318.22 420.41L317.62 420.36L317.03 420.29L316.44 420.21L315.85 420.11L315.27 419.99L314.68 419.86L314.1 419.72L313.53 419.55L312.95 419.38L312.38 419.19L311.81 418.97L311.25 418.76L310.69 418.51L310.14 418.26L309.59 417.99L309.05 417.71L308.51 417.4L241.49 378.66L240.97 378.35L240.44 378.02L239.93 377.68L239.44 377.33L238.96 376.97L238.48 376.59L238.02 376.2L237.57 375.8L237.12 375.39L236.69 374.97L236.28 374.55L235.87 374.1L235.1 373.2L234.37 372.25L234.03 371.76L233.7 371.26L233.38 370.76L233.08 370.25L232.79 369.73L232.51 369.2L232.25 368.67L232 368.13L231.76 367.57L231.54 367.02L231.33 366.46L231.14 365.9L230.96 365.32L230.79 364.75L230.64 364.17L230.51 363.58L230.39 362.99L230.29 362.4L230.2 361.8L230.13 361.2L230.07 360.58L230.03 359.98L230.01 359.37L230 358.75L230 281.25L230.01 280.63L230.04 280.02L230.08 279.41L230.13 278.8L230.2 278.2L230.29 277.6L230.39 277.01L230.51 276.42L230.64 275.83L230.79 275.25L230.96 274.68L231.14 274.1L231.33 273.54L231.54 272.98L231.76 272.42L231.99 271.87L232.25 271.33L232.51 270.8L232.79 270.27L233.08 269.76L233.38 269.24L233.7 268.74L234.03 268.24L234.37 267.76L234.73 267.28L235.1 266.81L235.48 266.35L235.87 265.9L236.27 265.46L236.7 265.02L237.12 264.61L237.57 264.2L238.02 263.8L238.48 263.41L238.95 263.04L239.44 262.67L239.93 262.32L240.44 261.98L240.96 261.66L241.49 261.34L308.51 222.6L309.05 222.29L309.59 222.02L310.14 221.74L310.69 221.49L311.24 221.25L311.81 221.03L312.95 220.62L313.52 220.44L314.1 220.28L314.68 220.14L315.26 220L315.85 219.89L316.44 219.79L317.03 219.71L317.62 219.64L318.22 219.59L318.81 219.55L319.41 219.52L320 219.52L320.6 219.53L321.19 219.54ZM318.94 230.71L318.42 230.74L317.88 230.79L317.36 230.85L316.83 230.92L316.31 231.01L315.79 231.12L315.27 231.23L314.76 231.36L314.25 231.51L313.73 231.67L313.22 231.84L312.72 232.02L312.22 232.22L311.73 232.43L311.24 232.66L310.74 232.9L310.26 233.15L309.78 233.42L250.22 267.85L249.74 268.13L249.28 268.42L248.83 268.73L248.4 269.04L247.96 269.36L247.13 270.04L246.72 270.4L246.33 270.76L245.95 271.14L245.58 271.52L245.22 271.91L244.87 272.31L244.53 272.72L244.21 273.14L243.89 273.56L243.58 274L243.29 274.43L243.01 274.88L242.48 275.8L242.23 276.26L242 276.74L241.78 277.23L241.57 277.71L241.36 278.2L241.18 278.7L240.85 279.71L240.7 280.22L240.45 281.26L240.35 281.78L240.26 282.32L240.18 282.85L240.12 283.38L240.07 283.92L240.03 284.47L240.01 285.01L240 285.56L240 354.44L240.01 354.99L240.03 355.53L240.06 356.07L240.12 356.62L240.18 357.15L240.25 357.69L240.35 358.22L240.45 358.74L240.58 359.26L240.71 359.77L240.85 360.29L241.01 360.8L241.18 361.3L241.37 361.79L241.57 362.29L241.77 362.78L242.23 363.74L242.47 364.2L242.74 364.66L243.01 365.12L243.29 365.57L243.58 366L243.89 366.43L244.21 366.86L244.53 367.28L244.87 367.69L245.22 368.09L245.58 368.48L245.95 368.86L246.33 369.24L246.72 369.61L247.13 369.96L247.54 370.3L247.96 370.63L248.39 370.96L248.83 371.27L249.29 371.57L249.74 371.87L250.22 372.15L309.79 406.58L310.26 406.85L310.75 407.1L311.24 407.34L311.73 407.57L312.22 407.78L312.72 407.97L313.22 408.16L313.73 408.33L314.25 408.49L314.76 408.64L315.27 408.77L315.79 408.89L316.31 408.99L316.84 409.07L317.36 409.15L317.88 409.21L318.42 409.26L318.94 409.29L319.47 409.31L320 409.32L320.53 409.31L321.06 409.29L321.58 409.26L322.12 409.21L322.64 409.15L323.17 409.08L323.69 408.99L324.21 408.88L324.73 408.77L325.24 408.64L325.75 408.49L326.27 408.33L326.78 408.16L327.28 407.98L327.78 407.78L328.27 407.57L328.76 407.34L329.26 407.1L329.74 406.85L330.22 406.58L389.78 372.15L390.26 371.87L390.72 371.58L391.17 371.27L391.6 370.96L392.04 370.64L392.87 369.96L393.28 369.6L393.67 369.24L394.05 368.86L394.42 368.48L394.78 368.09L395.13 367.69L395.47 367.28L395.79 366.86L396.11 366.44L396.42 366L396.71 365.57L396.99 365.12L397.52 364.2L397.77 363.74L398 363.26L398.22 362.77L398.43 362.29L398.64 361.8L398.82 361.3L399.15 360.29L399.3 359.78L399.55 358.74L399.65 358.22L399.74 357.68L399.82 357.15L399.88 356.62L399.93 356.08L399.97 355.53L399.99 354.99L400 354.44L400 285.56L399.99 285.01L399.97 284.47L399.94 283.93L399.88 283.38L399.82 282.85L399.75 282.31L399.65 281.78L399.55 281.26L399.42 280.74L399.29 280.23L399.15 279.71L398.99 279.2L398.82 278.7L398.63 278.21L398.43 277.71L398.23 277.22L397.77 276.26L397.53 275.8L397.26 275.34L396.99 274.88L396.71 274.43L396.42 274L396.11 273.57L395.79 273.14L395.47 272.72L395.13 272.31L394.78 271.91L394.42 271.52L394.05 271.14L393.67 270.76L393.28 270.39L392.87 270.04L392.46 269.7L392.04 269.37L391.61 269.04L391.17 268.73L390.71 268.43L390.26 268.13L389.78 267.85L330.21 233.42L329.74 233.15L329.25 232.9L328.76 232.66L328.27 232.43L327.78 232.22L327.28 232.03L326.78 231.84L326.27 231.67L325.75 231.51L325.24 231.36L324.73 231.23L324.21 231.11L323.69 231.01L323.16 230.93L322.64 230.85L322.12 230.79L321.58 230.74L321.06 230.71L320.53 230.69L320 230.68L319.47 230.69L318.94 230.71Z" id="am2mDItjT"></path></defs><g><g><g><use xlink:href="#b1uEFdpj6M" opacity="1" fill="#808080" fill-opacity="1"></use><g><use xlink:href="#b1uEFdpj6M" opacity="1" fill-opacity="0" stroke="#000000" stroke-width="1" stroke-opacity="0"></use></g></g><g><use xlink:href="#a1DFP5rjUU" opacity="1" fill="#a4a4a4" fill-opacity="1"></use><g><use xlink:href="#a1DFP5rjUU" opacity="1" fill-opacity="0" stroke="#000000" stroke-width="1" stroke-opacity="0"></use></g></g><g><use xlink:href="#aKDkT84jn" opacity="1" fill="#ff0000" fill-opacity="1"></use><g><use xlink:href="#aKDkT84jn" opacity="1" fill-opacity="0" stroke="#000000" stroke-width="1" stroke-opacity="0"></use></g></g><g><use xlink:href="#b1cxnixKca" opacity="1" fill="#ff7e7e" fill-opacity="1"></use><g><use xlink:href="#b1cxnixKca" opacity="1" fill-opacity="0" stroke="#000000" stroke-width="1" stroke-opacity="0"></use></g></g><g><use xlink:href="#b6gV2kTbl" opacity="1" fill="#0000ff" fill-opacity="1"></use><g><use xlink:href="#b6gV2kTbl" opacity="1" fill-opacity="0" stroke="#000000" stroke-width="1" stroke-opacity="0"></use></g></g><g><use xlink:href="#a3pta5lJuE" opacity="1" fill="#7777ff" fill-opacity="1"></use><g><use xlink:href="#a3pta5lJuE" opacity="1" fill-opacity="0" stroke="#000000" stroke-width="1" stroke-opacity="0"></use></g></g><g><use xlink:href="#apujbwAXv" opacity="1" fill="#413f3f" fill-opacity="1"></use><g><use xlink:href="#apujbwAXv" opacity="1" fill-opacity="0" stroke="#000000" stroke-width="1" stroke-opacity="0"></use></g></g><g><use xlink:href="#am2mDItjT" opacity="1" fill="#626161" fill-opacity="1"></use><g><use xlink:href="#am2mDItjT" opacity="1" fill-opacity="0" stroke="#000000" stroke-width="1" stroke-opacity="0"></use></g></g></g></g></svg>