<?xml version="1.0" encoding="UTF-8" standalone="no"?>
<!DOCTYPE svg PUBLIC "-//W3C//DTD SVG 1.1//EN" "http://www.w3.org/Graphics/SVG/1.1/DTD/svg11.dtd">
<svg version="1.1" xmlns="http://www.w3.org/2000/svg" xmlns:xlink="http://www.w3.org/1999/xlink" preserveAspectRatio="xMidYMid meet" viewBox="0 0 640 640" width="640" height="640"><defs><path d="M111.94 220.68L112.95 221.47L113.73 222.48L114.24 223.67L114.42 225L114.42 327.59L148.03 308.15L148.33 307.99L148.63 307.83L148.94 307.68L149.24 307.54L149.55 307.41L149.87 307.28L150.18 307.17L150.5 307.06L150.82 306.96L151.14 306.87L151.46 306.79L151.79 306.72L152.11 306.65L152.44 306.6L152.77 306.55L153.1 306.51L153.43 306.48L153.76 306.46L154.09 306.45L154.42 306.44L154.75 306.45L155.08 306.46L155.41 306.48L155.74 306.51L156.07 306.55L156.4 306.6L156.72 306.65L157.05 306.72L157.37 306.79L157.7 306.87L158.02 306.96L158.34 307.06L158.65 307.17L158.97 307.28L159.28 307.41L159.59 307.54L159.9 307.68L160.2 307.83L160.5 307.99L160.8 308.15L198.03 329.68L198.33 329.85L198.62 330.03L198.9 330.22L199.17 330.42L199.44 330.62L199.71 330.83L199.96 331.04L200.22 331.27L200.46 331.49L200.7 331.73L200.93 331.97L201.16 332.21L201.37 332.46L201.59 332.72L201.79 332.98L201.99 333.24L202.18 333.51L202.36 333.79L202.54 334.07L202.71 334.35L202.87 334.64L203.02 334.93L203.17 335.23L203.31 335.53L203.44 335.84L203.56 336.14L203.68 336.45L203.79 336.77L203.88 337.09L203.98 337.41L204.06 337.73L204.13 338.06L204.2 338.38L204.26 338.71L204.31 339.05L204.35 339.38L204.38 339.72L204.4 340.06L204.41 340.4L204.42 340.74L204.42 362.27L204.42 362.27L204.42 415L204.24 416.33L203.73 417.52L202.95 418.53L201.94 419.32L200.75 419.82L199.42 420L198.09 419.82L196.89 419.32L195.88 418.53L195.1 417.52L194.6 416.33L194.42 415L194.42 362.27L194.42 362.27L194.42 345.04L194.41 344.77L194.4 344.5L194.39 344.23L194.36 343.96L194.33 343.69L194.29 343.42L194.24 343.16L194.19 342.9L194.13 342.64L194.06 342.38L193.99 342.12L193.91 341.87L193.83 341.62L193.73 341.37L193.64 341.12L193.53 340.88L193.42 340.64L193.3 340.4L193.18 340.17L193.05 339.94L192.91 339.71L192.77 339.48L192.63 339.26L192.47 339.05L192.32 338.83L192.15 338.63L191.98 338.42L191.81 338.22L191.63 338.03L191.44 337.83L191.25 337.65L191.06 337.47L190.85 337.29L190.65 337.12L190.44 336.95L190.22 336.79L190 336.63L189.78 336.48L189.55 336.33L189.31 336.19L159.52 318.98L159.29 318.84L159.05 318.72L158.8 318.6L158.56 318.48L158.31 318.38L158.06 318.28L157.81 318.19L157.55 318.1L157.3 318.02L157.04 317.95L156.78 317.88L156.52 317.83L156.26 317.77L156 317.73L155.74 317.69L155.47 317.66L155.21 317.64L154.95 317.62L154.68 317.61L154.42 317.61L154.15 317.61L153.89 317.62L153.62 317.64L153.36 317.66L153.1 317.69L152.84 317.73L152.57 317.77L152.31 317.83L152.05 317.88L151.8 317.95L151.54 318.02L151.28 318.1L151.03 318.19L150.78 318.28L150.53 318.38L150.28 318.48L150.03 318.6L149.79 318.72L149.55 318.84L149.31 318.98L119.52 336.19L119.29 336.33L119.06 336.48L118.83 336.63L118.61 336.79L118.4 336.95L118.19 337.12L117.98 337.29L117.78 337.47L117.58 337.65L117.39 337.83L117.21 338.03L117.03 338.22L116.85 338.42L116.68 338.63L116.52 338.83L116.36 339.05L116.21 339.26L116.06 339.48L115.92 339.71L115.79 339.94L115.66 340.17L115.53 340.4L115.42 340.64L115.31 340.88L115.2 341.12L115.1 341.37L115.01 341.62L114.92 341.87L114.84 342.12L114.77 342.38L114.7 342.64L114.65 342.9L114.59 343.16L114.55 343.42L114.51 343.69L114.48 343.96L114.45 344.23L114.43 344.5L114.42 344.77L114.42 345.04L114.42 362.27L114.42 362.27L114.42 415L114.24 416.33L113.73 417.52L112.95 418.53L111.94 419.32L110.75 419.82L109.42 420L108.09 419.82L106.89 419.32L105.88 418.53L105.1 417.52L104.6 416.33L104.42 415L104.42 225L104.6 223.67L105.1 222.48L105.88 221.47L106.89 220.68L108.09 220.18L109.42 220L110.75 220.18L111.94 220.68ZM270.08 308.37L270.41 308.39L270.74 308.42L271.07 308.46L271.4 308.5L271.72 308.56L272.05 308.62L272.37 308.7L272.7 308.78L273.02 308.87L273.34 308.97L273.65 309.07L273.97 309.19L274.28 309.31L274.59 309.45L274.9 309.59L275.2 309.74L275.5 309.9L275.8 310.06L313.9 332.08L314.15 332.23L314.4 332.39L314.64 332.55L314.88 332.72L315.11 332.9L315.34 333.08L315.57 333.27L315.78 333.46L315.99 333.65L316.2 333.86L316.4 334.06L316.6 334.27L316.78 334.49L316.97 334.71L317.14 334.94L317.32 335.17L317.48 335.4L317.64 335.64L317.79 335.88L317.94 336.13L318.08 336.38L318.21 336.63L318.34 336.89L318.46 337.15L318.57 337.41L318.68 337.68L318.78 337.95L318.87 338.22L318.96 338.49L319.04 338.77L319.11 339.05L319.17 339.33L319.23 339.61L319.28 339.9L319.32 340.19L319.36 340.48L319.38 340.77L319.4 341.06L319.41 341.36L319.42 341.65L319.42 359.17L319.42 359.18L319.33 360.53L319.06 361.83L318.63 363.07L318.05 364.22L317.33 365.28L316.49 366.24L315.53 367.09L314.46 367.81L313.31 368.39L312.07 368.82L310.77 369.08L309.42 369.18L309.42 369.18L239.47 369.18L238.11 369.27L236.81 369.53L235.57 369.96L234.42 370.54L233.36 371.26L232.4 372.11L231.55 373.07L230.83 374.13L230.25 375.28L229.82 376.52L229.56 377.82L229.47 379.18L229.47 369.18L229.42 369.18L229.42 381.4L229.42 381.67L229.43 381.94L229.45 382.21L229.48 382.48L229.51 382.75L229.55 383.02L229.59 383.28L229.65 383.54L229.7 383.81L229.77 384.06L229.84 384.32L229.92 384.57L230.01 384.83L230.1 385.07L230.2 385.32L230.31 385.56L230.42 385.8L230.53 386.04L230.66 386.28L230.79 386.51L230.92 386.73L231.06 386.96L231.21 387.18L231.36 387.39L231.52 387.61L231.68 387.82L231.85 388.02L232.03 388.22L232.21 388.42L232.39 388.61L232.58 388.79L232.78 388.98L232.98 389.15L233.19 389.33L233.4 389.49L233.61 389.65L233.83 389.81L234.06 389.96L234.29 390.11L234.52 390.25L264.31 407.47L264.55 407.6L264.79 407.73L265.03 407.85L265.28 407.96L265.53 408.06L265.78 408.16L266.03 408.26L266.28 408.34L266.54 408.42L266.8 408.49L267.05 408.56L267.31 408.62L267.57 408.67L267.84 408.71L268.1 408.75L268.36 408.78L268.62 408.8L268.89 408.82L269.15 408.83L269.42 408.84L269.68 408.83L269.95 408.82L270.21 408.8L270.47 408.78L270.74 408.75L271 408.71L271.26 408.67L271.52 408.62L271.78 408.56L272.04 408.49L272.3 408.42L272.55 408.34L272.81 408.26L273.06 408.16L273.31 408.06L273.56 407.96L273.8 407.85L274.05 407.73L274.29 407.6L274.52 407.47L304.31 390.25L304.55 390.11L304.78 389.96L305 389.81L305.22 389.65L305.44 389.49L305.65 389.33L305.85 389.15L306.06 388.98L306.25 388.79L306.44 388.61L306.63 388.42L306.81 388.22L306.98 388.02L307.15 387.82L307.32 387.61L307.47 387.39L307.63 387.18L307.77 386.96L307.91 386.73L308.05 386.51L308.18 386.28L308.3 386.04L308.42 385.8L308.53 385.56L308.64 385.32L308.73 385.07L308.83 384.83L308.91 384.57L308.99 384.32L309.03 384.18L309.12 384.18L309.3 382.85L309.82 381.65L310.63 380.64L311.67 379.86L312.9 379.35L314.27 379.18L315.64 379.35L316.87 379.86L317.91 380.64L318.71 381.65L319.23 382.85L319.42 384.18L319.42 384.18L319.42 386.7L319.42 386.72L319.42 386.74L319.42 386.78L319.42 386.8L319.42 386.82L319.42 386.86L319.42 386.88L319.42 386.91L319.42 386.93L319.41 386.97L319.41 386.99L319.41 387.01L319.41 387.03L319.41 387.07L319.41 387.09L319.41 387.11L319.41 387.13L319.41 387.15L319.41 387.17L319.41 387.19L319.41 387.21L319.4 387.26L319.4 387.28L319.4 387.3L319.4 387.34L319.4 387.36L319.4 387.38L319.4 387.4L319.39 387.44L319.39 387.46L319.39 387.48L319.39 387.52L319.36 387.79L319.33 388.06L319.3 388.33L319.25 388.6L319.2 388.86L319.15 389.13L319.09 389.39L319.02 389.65L318.94 389.91L318.86 390.16L318.78 390.41L318.68 390.66L318.58 390.91L318.48 391.16L318.37 391.4L318.25 391.64L318.13 391.87L318 392.11L317.87 392.34L317.73 392.57L317.59 392.79L317.44 393.01L317.28 393.23L317.12 393.44L316.96 393.65L316.79 393.86L316.61 394.06L316.43 394.25L316.25 394.45L316.06 394.64L315.86 394.82L315.66 395L315.46 395.18L315.25 395.35L315.03 395.51L314.81 395.67L314.59 395.83L314.36 395.98L314.13 396.13L313.9 396.27L275.8 418.29L275.5 418.45L275.2 418.61L274.9 418.76L274.59 418.9L274.28 419.04L273.97 419.16L273.65 419.28L273.34 419.38L273.02 419.48L272.7 419.57L272.37 419.65L272.05 419.73L271.72 419.79L271.4 419.85L271.07 419.89L270.74 419.93L270.41 419.96L270.08 419.98L269.75 420L269.42 420L269.09 420L268.76 419.98L268.43 419.96L268.1 419.93L267.77 419.89L267.44 419.85L267.11 419.79L266.79 419.73L266.46 419.65L266.14 419.57L265.82 419.48L265.5 419.38L265.18 419.28L264.87 419.16L264.55 419.04L264.24 418.9L263.94 418.76L263.63 418.61L263.33 418.45L263.03 418.29L225.8 396.77L225.51 396.59L225.22 396.41L224.94 396.22L224.66 396.02L224.39 395.82L224.13 395.61L223.87 395.4L223.62 395.18L223.38 394.95L223.14 394.72L222.91 394.48L222.68 394.23L222.46 393.98L222.25 393.73L222.05 393.47L221.85 393.2L221.66 392.93L221.47 392.65L221.3 392.37L221.13 392.09L220.97 391.8L220.81 391.51L220.67 391.21L220.53 390.91L220.4 390.61L220.27 390.3L220.16 389.99L220.05 389.67L219.95 389.36L219.86 389.04L219.78 388.71L219.7 388.39L219.64 388.06L219.58 387.73L219.53 387.39L219.49 387.06L219.46 386.72L219.44 386.38L219.42 386.04L219.42 385.7L219.42 342.65L219.42 342.31L219.44 341.97L219.46 341.63L219.49 341.29L219.53 340.96L219.58 340.62L219.64 340.29L219.7 339.96L219.78 339.64L219.86 339.31L219.95 338.99L220.05 338.68L220.16 338.36L220.27 338.05L220.4 337.74L220.53 337.44L220.67 337.14L220.81 336.84L220.97 336.55L221.13 336.26L221.3 335.98L221.47 335.7L221.66 335.42L221.85 335.15L222.05 334.88L222.25 334.62L222.46 334.37L222.68 334.12L222.91 333.87L223.14 333.63L223.38 333.4L223.62 333.17L223.87 332.95L224.13 332.74L224.39 332.53L224.66 332.33L224.94 332.13L225.22 331.94L225.51 331.76L225.8 331.58L263.03 310.06L263.33 309.9L263.63 309.74L263.94 309.59L264.24 309.45L264.55 309.31L264.87 309.19L265.18 309.07L265.5 308.97L265.82 308.87L266.14 308.78L266.46 308.7L266.79 308.62L267.11 308.56L267.44 308.5L267.77 308.46L268.1 308.42L268.43 308.39L268.76 308.37L269.09 308.35L269.42 308.35L269.75 308.35L270.08 308.37ZM486.24 308.37L486.57 308.39L486.9 308.42L487.23 308.46L487.56 308.5L487.89 308.56L488.21 308.62L488.54 308.7L488.86 308.78L489.18 308.87L489.5 308.97L489.82 309.07L490.13 309.19L490.45 309.31L490.76 309.45L491.06 309.59L491.37 309.74L491.67 309.9L491.97 310.06L530.06 332.08L530.31 332.23L530.56 332.39L530.81 332.55L531.05 332.72L531.28 332.9L531.51 333.08L531.73 333.27L531.95 333.46L532.16 333.65L532.37 333.86L532.57 334.06L532.76 334.27L532.95 334.49L533.13 334.71L533.31 334.94L533.48 335.17L533.65 335.4L533.8 335.64L533.96 335.88L534.1 336.13L534.24 336.38L534.38 336.63L534.5 336.89L534.62 337.15L534.74 337.41L534.84 337.68L534.94 337.95L535.04 338.22L535.12 338.49L535.2 338.77L535.27 339.05L535.34 339.33L535.39 339.61L535.44 339.9L535.49 340.19L535.52 340.48L535.55 340.77L535.57 341.06L535.58 341.36L535.58 341.65L535.58 371.62L535.58 371.65L535.58 371.84L535.58 372.42L535.58 372.42L535.58 415L535.52 415L535.4 415.85L534.9 417.04L534.12 418.05L533.11 418.84L531.91 419.34L530.58 419.52L529.25 419.34L528.06 418.84L527.05 418.05L526.27 417.04L525.76 415.85L525.65 415L525.58 415L525.58 407.47L525.4 406.15L524.9 404.96L524.12 403.95L523.11 403.17L521.91 402.66L520.58 402.48L519.25 402.66L518.43 403.01L521.25 401.38L525.58 398.89L525.58 403.88L525.58 406.63L525.58 398.86L491.97 418.29L491.67 418.45L491.37 418.61L491.06 418.76L490.76 418.9L490.45 419.04L490.13 419.16L489.82 419.28L489.5 419.38L489.18 419.48L488.86 419.57L488.54 419.65L488.21 419.73L487.89 419.79L487.56 419.85L487.23 419.89L486.9 419.93L486.57 419.96L486.24 419.98L485.91 420L485.58 420L485.25 420L484.92 419.98L484.59 419.96L484.26 419.93L483.93 419.89L483.6 419.85L483.28 419.79L482.95 419.73L482.63 419.65L482.3 419.57L481.98 419.48L481.66 419.38L481.35 419.28L481.03 419.16L480.72 419.04L480.41 418.9L480.1 418.76L479.8 418.61L479.5 418.45L479.2 418.29L441.97 396.77L441.67 396.59L441.38 396.41L441.1 396.22L440.83 396.02L440.56 395.82L440.29 395.61L440.04 395.4L439.78 395.18L439.54 394.95L439.3 394.72L439.07 394.48L438.84 394.23L438.63 393.98L438.41 393.73L438.21 393.47L438.01 393.2L437.82 392.93L437.64 392.65L437.46 392.37L437.29 392.09L437.13 391.8L436.98 391.51L436.83 391.21L436.69 390.91L436.56 390.61L436.44 390.3L436.32 389.99L436.21 389.67L436.12 389.36L436.02 389.04L435.94 388.71L435.87 388.39L435.8 388.06L435.74 387.73L435.69 387.39L435.65 387.06L435.62 386.72L435.6 386.38L435.59 386.04L435.58 385.7L435.58 377.68L435.58 372.65L435.59 372.31L435.6 371.97L435.62 371.63L435.65 371.29L435.69 370.96L435.74 370.62L435.8 370.29L435.87 369.96L435.94 369.64L436.02 369.31L436.12 368.99L436.21 368.68L436.32 368.36L436.44 368.05L436.56 367.74L436.69 367.44L436.83 367.14L436.98 366.84L437.13 366.55L437.29 366.26L437.46 365.98L437.64 365.7L437.82 365.42L438.01 365.15L438.21 364.88L438.41 364.62L438.63 364.37L438.84 364.12L439.07 363.87L439.3 363.63L439.54 363.4L439.79 363.17L440.04 362.95L440.29 362.74L440.56 362.53L440.83 362.33L441.1 362.13L441.38 361.94L441.67 361.76L441.97 361.58L479.2 340.06L479.5 339.9L479.8 339.74L480.1 339.59L480.41 339.45L480.72 339.31L481.03 339.19L481.35 339.07L481.66 338.97L481.98 338.87L482.3 338.78L482.63 338.7L482.95 338.62L483.28 338.56L483.6 338.5L483.93 338.46L484.26 338.42L484.59 338.39L484.92 338.37L485.25 338.35L485.58 338.35L485.91 338.35L486.24 338.37L486.57 338.39L486.9 338.42L487.23 338.46L487.56 338.5L487.89 338.56L488.21 338.62L488.54 338.7L488.86 338.78L489.18 338.87L489.5 338.97L489.82 339.07L490.13 339.19L490.45 339.31L490.76 339.45L491.06 339.59L491.37 339.74L491.67 339.9L491.97 340.06L518.57 355.44L519.25 355.73L520.58 355.91L521.91 355.73L523.11 355.22L524.12 354.44L524.9 353.43L525.4 352.24L525.58 350.92L525.58 346.95L525.58 346.68L525.57 346.41L525.55 346.14L525.52 345.87L525.49 345.6L525.45 345.33L525.41 345.07L525.35 344.81L525.3 344.55L525.23 344.29L525.16 344.03L525.08 343.78L524.99 343.52L524.9 343.28L524.8 343.03L524.7 342.79L524.58 342.55L524.47 342.31L524.34 342.07L524.21 341.84L524.08 341.62L523.94 341.39L523.79 341.17L523.64 340.96L523.48 340.74L523.32 340.53L523.15 340.33L522.97 340.13L522.79 339.93L522.61 339.74L522.42 339.56L522.22 339.37L522.02 339.2L521.81 339.02L521.6 338.86L521.39 338.7L521.17 338.54L520.94 338.39L520.71 338.24L520.48 338.1L490.69 320.88L490.45 320.75L490.21 320.62L489.97 320.5L489.72 320.39L489.47 320.29L489.22 320.19L488.97 320.09L488.72 320.01L488.46 319.93L488.2 319.86L487.95 319.79L487.69 319.73L487.43 319.68L487.16 319.64L486.9 319.6L486.64 319.57L486.38 319.55L486.11 319.53L485.85 319.52L485.58 319.52L485.32 319.52L485.05 319.53L484.79 319.55L484.53 319.57L484.26 319.6L484 319.64L483.74 319.68L483.48 319.73L483.22 319.79L482.96 319.86L482.7 319.93L482.45 320.01L482.19 320.09L481.94 320.19L481.69 320.29L481.44 320.39L481.2 320.5L480.96 320.62L480.71 320.75L480.48 320.88L477 322.9L476.96 322.84L468.06 327.98L468.1 328.04L442.66 342.72L442.57 342.56L441.91 342.84L440.58 343.02L439.25 342.84L438.06 342.33L437.05 341.55L436.27 340.54L435.76 339.35L435.58 338.02L435.76 336.69L436.27 335.49L437.05 334.48L438.06 333.7L438.92 333.34L452.69 325.38L479.2 310.06L479.5 309.9L479.8 309.74L480.1 309.59L480.41 309.45L480.72 309.31L481.03 309.19L481.35 309.07L481.66 308.97L481.98 308.87L482.3 308.78L482.63 308.7L482.95 308.62L483.28 308.56L483.6 308.5L483.93 308.46L484.26 308.42L484.59 308.39L484.92 308.37L485.25 308.35L485.58 308.35L485.91 308.35L486.24 308.37ZM430.42 410.99L430.58 412.26L430.42 413.53L429.93 414.73L429.12 415.79L428.05 416.61L426.85 417.09L425.58 417.26L424.31 417.09L423.11 416.61L422.05 415.79L384.57 378.32L383.55 377.42L382.44 376.69L381.26 376.12L380.04 375.72L378.78 375.47L377.5 375.39L376.22 375.47L374.96 375.72L373.74 376.12L372.56 376.69L371.45 377.42L370.43 378.32L332.95 415.79L331.89 416.61L330.69 417.09L329.42 417.26L328.15 417.09L326.95 416.61L325.88 415.79L325.07 414.73L324.58 413.53L324.42 412.26L324.58 410.99L325.07 409.79L325.88 408.72L364.06 370.54L363.36 371.25L364.25 370.22L364.98 369.11L365.55 367.94L365.96 366.71L366.2 365.45L366.28 364.17L366.2 362.9L365.96 361.64L365.55 360.41L364.98 359.24L364.25 358.13L363.36 357.1L325.88 319.63L325.88 319.63L325.07 318.56L324.58 317.36L324.42 316.09L324.58 314.82L325.07 313.62L325.88 312.56L326.95 311.74L328.15 311.26L329.42 311.09L330.69 311.26L331.89 311.74L332.95 312.56L332.95 312.56L377.5 357.1L377.5 357.1L370.43 350.03L371.45 350.93L372.56 351.66L373.74 352.23L374.96 352.63L376.22 352.88L377.5 352.96L378.78 352.88L380.04 352.63L381.26 352.23L382.44 351.66L383.55 350.93L384.57 350.03L422.05 312.56L422.05 312.56L423.11 311.74L424.31 311.26L425.58 311.09L426.85 311.26L428.05 311.74L429.12 312.56L429.93 313.62L430.42 314.82L430.58 316.09L430.42 317.36L429.93 318.56L429.12 319.63L429.12 319.63L391.64 357.1L390.75 358.13L390.02 359.24L389.45 360.41L389.04 361.64L388.8 362.9L388.72 364.17L388.8 365.45L389.04 366.71L389.45 367.94L390.02 369.11L390.75 370.22L391.64 371.25L390.46 370.06L429.12 408.72L429.93 409.79L430.42 410.99ZM485.05 349.53L484.79 349.55L484.53 349.57L484.26 349.6L484 349.64L483.74 349.68L483.48 349.73L483.22 349.79L482.96 349.86L482.7 349.93L482.45 350.01L482.19 350.09L481.94 350.19L481.69 350.29L481.44 350.39L481.2 350.5L480.96 350.62L480.71 350.75L480.48 350.88L450.69 368.1L450.45 368.24L450.22 368.39L450 368.54L449.78 368.7L449.56 368.86L449.35 369.02L449.15 369.2L448.94 369.37L448.75 369.56L448.56 369.74L448.37 369.93L448.19 370.13L448.02 370.33L447.85 370.53L447.68 370.74L447.53 370.96L447.37 371.17L447.23 371.39L447.09 371.62L446.95 371.84L446.82 372.07L446.7 372.31L446.58 372.55L446.47 372.79L446.36 373.03L446.27 373.28L446.17 373.52L446.09 373.78L446.01 374.03L445.94 374.29L445.87 374.55L445.81 374.81L445.76 375.07L445.71 375.33L445.67 375.6L445.64 375.87L445.61 376.14L445.6 376.41L445.59 376.68L445.58 376.95L445.58 377.42L445.58 381.4L445.59 381.67L445.6 381.94L445.61 382.21L445.64 382.48L445.67 382.75L445.71 383.02L445.76 383.28L445.81 383.54L445.87 383.81L445.94 384.06L446.01 384.32L446.09 384.57L446.17 384.83L446.27 385.07L446.36 385.32L446.47 385.56L446.58 385.8L446.7 386.04L446.82 386.28L446.95 386.51L447.09 386.73L447.23 386.96L447.37 387.18L447.53 387.39L447.68 387.61L447.85 387.82L448.02 388.02L448.19 388.22L448.37 388.42L448.56 388.61L448.75 388.79L448.94 388.98L449.15 389.15L449.35 389.33L449.56 389.49L449.78 389.65L450 389.81L450.22 389.96L450.45 390.11L450.69 390.25L480.48 407.47L480.71 407.6L480.95 407.73L481.2 407.85L481.44 407.96L481.69 408.06L481.94 408.16L482.19 408.26L482.45 408.34L482.7 408.42L482.96 408.49L483.22 408.56L483.48 408.62L483.74 408.67L484 408.71L484.26 408.75L484.53 408.78L484.79 408.8L485.05 408.82L485.32 408.83L485.58 408.84L485.85 408.83L486.11 408.82L486.38 408.8L486.64 408.78L486.9 408.75L487.16 408.71L487.43 408.67L487.69 408.62L487.95 408.56L488.2 408.49L488.46 408.42L488.72 408.34L488.97 408.26L489.22 408.16L489.47 408.06L489.72 407.96L489.97 407.85L490.21 407.73L490.45 407.6L490.69 407.47L520.48 390.25L520.71 390.11L520.94 389.96L521.17 389.81L521.39 389.65L521.6 389.49L521.81 389.33L522.02 389.15L522.22 388.98L522.42 388.79L522.61 388.61L522.79 388.42L522.97 388.22L523.15 388.02L523.32 387.82L523.48 387.61L523.64 387.39L523.79 387.18L523.94 386.96L524.08 386.73L524.21 386.51L524.34 386.28L524.47 386.04L524.58 385.8L524.69 385.56L524.8 385.32L524.9 385.07L524.99 384.83L525.08 384.57L525.16 384.32L525.23 384.06L525.3 383.81L525.35 383.54L525.41 383.28L525.45 383.02L525.49 382.75L525.52 382.48L525.55 382.21L525.57 381.94L525.58 381.67L525.58 381.4L525.58 381.4L525.58 376.95L525.58 376.95L525.58 376.68L525.57 376.41L525.55 376.14L525.52 375.87L525.49 375.6L525.45 375.33L525.41 375.07L525.35 374.81L525.3 374.55L525.23 374.29L525.16 374.03L525.08 373.78L524.99 373.52L524.9 373.28L524.8 373.03L524.7 372.79L524.58 372.55L524.47 372.31L524.34 372.07L524.21 371.84L524.08 371.62L523.94 371.39L523.79 371.17L523.64 370.96L523.48 370.74L523.32 370.53L523.15 370.33L522.97 370.13L522.79 369.93L522.61 369.74L522.42 369.56L522.22 369.37L522.02 369.2L521.81 369.02L521.6 368.86L521.39 368.7L521.17 368.54L520.94 368.39L520.71 368.24L520.48 368.1L490.69 350.88L490.45 350.75L490.21 350.62L489.97 350.5L489.72 350.39L489.47 350.29L489.22 350.19L488.97 350.09L488.72 350.01L488.46 349.93L488.2 349.86L487.95 349.79L487.69 349.73L487.43 349.68L487.16 349.64L486.9 349.6L486.64 349.57L486.38 349.55L486.11 349.53L485.85 349.52L485.58 349.52L485.32 349.52L485.05 349.53ZM384.57 364.17L390.67 358.07L384.57 364.18L389.51 369.11L384.57 364.17ZM367.89 366.71L370.43 364.17L363.36 357.1L370.43 364.18L367.89 366.71ZM525.58 359.49L525.58 359.49L525.58 352.11L525.58 354.51L525.58 359.49ZM268.89 319.53L268.62 319.55L268.36 319.57L268.1 319.6L267.84 319.64L267.57 319.68L267.31 319.73L267.05 319.79L266.8 319.86L266.54 319.93L266.28 320.01L266.03 320.09L265.78 320.19L265.53 320.29L265.28 320.39L265.03 320.5L264.79 320.62L264.55 320.75L264.31 320.88L234.52 338.1L234.29 338.24L234.06 338.39L233.83 338.54L233.61 338.7L233.4 338.86L233.19 339.02L232.98 339.2L232.78 339.37L232.58 339.56L232.39 339.74L232.21 339.93L232.03 340.13L231.85 340.33L231.68 340.53L231.52 340.74L231.36 340.96L231.21 341.17L231.06 341.39L230.92 341.62L230.79 341.84L230.66 342.07L230.53 342.31L230.42 342.55L230.31 342.79L230.2 343.03L230.1 343.28L230.01 343.52L229.92 343.78L229.84 344.03L229.77 344.29L229.71 344.55L229.65 344.81L229.59 345.07L229.55 345.33L229.51 345.6L229.48 345.87L229.45 346.14L229.43 346.41L229.42 346.68L229.42 346.95L229.42 359.18L229.47 359.18L229.47 349.18L229.56 350.53L229.82 351.83L230.25 353.07L230.83 354.22L231.55 355.28L232.4 356.24L233.36 357.09L234.42 357.81L235.57 358.39L236.81 358.82L238.11 359.08L239.47 359.18L299.72 359.18L301.07 359.08L302.37 358.82L303.61 358.39L304.76 357.81L305.83 357.09L306.79 356.24L307.63 355.28L308.35 354.22L308.93 353.07L309.36 351.83L309.42 351.55L309.42 346.95L309.41 346.68L309.4 346.41L309.39 346.14L309.36 345.87L309.33 345.6L309.29 345.33L309.24 345.07L309.19 344.81L309.13 344.55L309.06 344.29L308.99 344.03L308.91 343.78L308.83 343.52L308.73 343.28L308.64 343.03L308.53 342.79L308.42 342.55L308.3 342.31L308.18 342.07L308.05 341.84L307.91 341.62L307.77 341.39L307.63 341.17L307.47 340.96L307.32 340.74L307.15 340.53L306.98 340.33L306.81 340.13L306.63 339.93L306.44 339.74L306.25 339.56L306.06 339.37L305.85 339.2L305.65 339.02L305.44 338.86L305.22 338.7L305 338.54L304.78 338.39L304.55 338.24L304.31 338.1L274.52 320.88L274.29 320.75L274.05 320.62L273.8 320.5L273.56 320.39L273.31 320.29L273.06 320.19L272.81 320.09L272.55 320.01L272.3 319.93L272.04 319.86L271.78 319.79L271.52 319.73L271.26 319.68L271 319.64L270.74 319.6L270.47 319.57L270.21 319.55L269.95 319.53L269.68 319.52L269.42 319.52L269.15 319.52L268.89 319.53ZM435.58 346.63L435.75 346.63L435.58 346.73L435.58 346.63ZM115.1 321.49L115.88 322.51L116.89 323.29L118.09 323.79L119.42 323.97L120.75 323.79L121.57 323.44L118.75 325.07L114.42 327.57L114.42 322.57L114.42 318.98L114.6 320.3L115.1 321.49Z" id="b1CSVCvylP"></path></defs><g><g><g><use xlink:href="#b1CSVCvylP" opacity="1" fill="#000000" fill-opacity="1"></use></g></g></g></svg>