<?xml version="1.0" encoding="UTF-8" standalone="no"?>
<!DOCTYPE svg PUBLIC "-//W3C//DTD SVG 1.1//EN" "http://www.w3.org/Graphics/SVG/1.1/DTD/svg11.dtd">
<svg version="1.1" xmlns="http://www.w3.org/2000/svg" xmlns:xlink="http://www.w3.org/1999/xlink" preserveAspectRatio="xMidYMid meet" viewBox="0 0 640 640" width="640" height="640"><defs><path d="M310 180L330 180L330 460L310 460L310 180Z" id="a5Y15KgPsF"></path><path d="M330 460C330 465.52 325.52 470 320 470C314.48 470 310 465.52 310 460C310 454.48 314.48 450 320 450C325.52 450 330 454.48 330 460Z" id="b5KjaW56M"></path><path d="M330 180C330 185.52 325.52 190 320 190C314.48 190 310 185.52 310 180C310 174.48 314.48 170 320 170C325.52 170 330 174.48 330 180Z" id="c9fOobmom"></path><path d="M280 230C280 235.52 275.52 240 270 240C264.48 240 260 235.52 260 230C260 224.48 264.48 220 270 220C275.52 220 280 224.48 280 230Z" id="a29xIcgpLH"></path><path d="M320 180L270 230" id="d1Q8BunLWH"></path></defs><g><g><g><use xlink:href="#a5Y15KgPsF" opacity="1" fill="#000000" fill-opacity="1"></use></g><g><use xlink:href="#b5KjaW56M" opacity="1" fill="#000000" fill-opacity="1"></use></g><g><use xlink:href="#c9fOobmom" opacity="1" fill="#000000" fill-opacity="1"></use></g><g><use xlink:href="#a29xIcgpLH" opacity="1" fill="#000000" fill-opacity="1"></use></g><g><g><use xlink:href="#d1Q8BunLWH" opacity="1" fill-opacity="0" stroke="#000000" stroke-width="20" stroke-opacity="1"></use></g></g></g></g></svg>