<?xml version="1.0" encoding="UTF-8" standalone="no"?>
<!DOCTYPE svg PUBLIC "-//W3C//DTD SVG 1.1//EN" "http://www.w3.org/Graphics/SVG/1.1/DTD/svg11.dtd">
<svg version="1.1" xmlns="http://www.w3.org/2000/svg" xmlns:xlink="http://www.w3.org/1999/xlink" preserveAspectRatio="xMidYMid meet" viewBox="0 0 640 640" width="640" height="640"><defs><path d="M424.05 315.39C424.05 320.91 419.57 325.39 414.05 325.39C408.53 325.39 404.05 320.91 404.05 315.39C404.05 309.87 408.53 305.39 414.05 305.39C419.57 305.39 424.05 309.87 424.05 315.39Z" id="a3faNbbSZy"></path><path d="M404.05 285.39L424.05 285.39L424.05 315.39L404.05 315.39L404.05 285.39Z" id="cQVpflqH4"></path><path d="M424.05 433.74C424.05 439.26 419.57 443.74 414.05 443.74C408.53 443.74 404.05 439.26 404.05 433.74C404.05 428.22 408.53 423.74 414.05 423.74C419.57 423.74 424.05 428.22 424.05 433.74Z" id="h3jaoIeM7f"></path><path d="M404.05 433.74L424.05 433.74L424.05 463.74L404.05 463.74L404.05 433.74Z" id="b2V5VFnIRm"></path><path d="M424.05 463.74C424.05 469.26 419.57 473.74 414.05 473.74C408.53 473.74 404.05 469.26 404.05 463.74C404.05 458.22 408.53 453.74 414.05 453.74C419.57 453.74 424.05 458.22 424.05 463.74Z" id="a2E2vWlrD"></path><path d="M244.05 463.74C244.05 469.26 239.57 473.74 234.05 473.74C228.53 473.74 224.05 469.26 224.05 463.74C224.05 458.22 228.53 453.74 234.05 453.74C239.57 453.74 244.05 458.22 244.05 463.74Z" id="bt7P9ERn3"></path><path d="M414.05 315.39L234.05 413.74" id="a6zDJnwOKa"></path><path d="M244.05 413.74C244.05 419.26 239.57 423.74 234.05 423.74C228.53 423.74 224.05 419.26 224.05 413.74C224.05 408.22 228.53 403.74 234.05 403.74C239.57 403.74 244.05 408.22 244.05 413.74Z" id="aj6ZTbupz"></path><path d="M224.05 413.74L244.05 413.74L244.05 463.74L224.05 463.74L224.05 413.74Z" id="e1dt3BRWJ1"></path><path d="M424.05 285.39C424.05 290.91 419.57 295.39 414.05 295.39C408.53 295.39 404.05 290.91 404.05 285.39C404.05 279.87 408.53 275.39 414.05 275.39C419.57 275.39 424.05 279.87 424.05 285.39Z" id="d7h6MNkc2"></path><path d="M234.05 453.74L414.05 453.74L414.05 473.74L234.05 473.74L234.05 453.74Z" id="c2cbNCECg3"></path><path d="M244.05 285.39C244.05 290.91 239.57 295.39 234.05 295.39C228.53 295.39 224.05 290.91 224.05 285.39C224.05 279.87 228.53 275.39 234.05 275.39C239.57 275.39 244.05 279.87 244.05 285.39Z" id="b1reHjUyA"></path><path d="M325.37 173.78L326.03 173.82L326.69 173.88L327.35 173.96L328.01 174.05L328.66 174.16L329.31 174.29L329.96 174.44L330.61 174.6L331.25 174.78L331.89 174.98L332.52 175.19L333.15 175.42L333.78 175.67L334.4 175.94L335.01 176.22L335.62 176.52L336.22 176.83L336.82 177.17L411.29 220.21L411.87 220.56L412.45 220.93L413.01 221.3L413.56 221.69L414.1 222.1L414.63 222.52L415.14 222.95L415.65 223.39L416.14 223.85L416.61 224.31L417.08 224.79L417.53 225.28L417.96 225.78L418.39 226.29L418.8 226.81L419.19 227.34L419.57 227.89L419.94 228.44L420.29 229L420.63 229.56L420.96 230.14L421.26 230.73L421.56 231.32L421.83 231.92L422.1 232.53L422.34 233.15L422.57 233.77L422.79 234.4L422.99 235.03L423.17 235.67L423.33 236.32L423.48 236.97L423.62 237.63L423.73 238.29L423.83 238.95L423.91 239.62L423.97 240.3L424.02 240.97L424.04 241.65L424.05 242.34L424.05 285.39L404.05 285.39L404.05 250.95L404.05 250.4L404.02 249.86L403.99 249.32L403.94 248.78L403.87 248.24L403.79 247.71L403.7 247.18L403.6 246.65L403.48 246.13L403.35 245.62L403.2 245.1L403.04 244.6L402.87 244.09L402.68 243.6L402.49 243.1L402.28 242.62L402.06 242.14L401.82 241.66L401.57 241.19L401.32 240.73L401.05 240.28L400.76 239.83L400.47 239.39L400.16 238.95L399.85 238.53L399.52 238.11L399.18 237.7L398.83 237.3L398.47 236.91L398.1 236.53L397.72 236.15L397.33 235.79L396.93 235.44L396.51 235.09L396.09 234.76L395.66 234.43L395.22 234.12L394.77 233.82L394.31 233.53L393.84 233.25L334.27 198.81L333.79 198.55L333.31 198.29L332.82 198.05L332.33 197.83L331.83 197.61L331.33 197.42L330.83 197.23L330.32 197.06L329.81 196.9L329.3 196.76L328.78 196.63L328.26 196.51L327.74 196.41L327.22 196.32L326.69 196.24L326.17 196.18L325.64 196.14L325.11 196.1L324.58 196.08L324.05 196.07L323.52 196.08L322.99 196.1L322.47 196.14L321.94 196.18L321.41 196.24L320.89 196.32L320.36 196.41L319.84 196.51L319.32 196.63L318.81 196.76L318.29 196.9L317.78 197.06L317.28 197.23L316.77 197.42L316.27 197.61L315.78 197.83L315.28 198.05L314.8 198.29L314.32 198.55L313.84 198.81L254.27 233.25L253.8 233.53L253.34 233.82L252.89 234.12L252.44 234.43L252.01 234.76L251.59 235.09L251.18 235.44L250.78 235.79L250.38 236.15L250 236.53L249.63 236.91L249.27 237.3L248.92 237.7L248.58 238.11L248.26 238.53L247.94 238.95L247.64 239.39L247.34 239.83L247.06 240.28L246.79 240.73L246.53 241.19L246.28 241.66L246.05 242.14L245.83 242.62L245.62 243.1L245.42 243.6L245.24 244.09L245.06 244.6L244.91 245.1L244.76 245.62L244.63 246.13L244.51 246.65L244.4 247.18L244.31 247.71L244.23 248.24L244.17 248.78L244.12 249.32L244.08 249.86L244.06 250.4L244.05 250.95L244.05 285.39L224.05 285.39L224.05 242.34L224.06 241.65L224.09 240.97L224.13 240.3L224.2 239.62L224.28 238.95L224.37 238.29L224.49 237.63L224.62 236.97L224.77 236.32L224.94 235.67L225.12 235.03L225.32 234.4L225.53 233.77L225.76 233.15L226.01 232.53L226.27 231.92L226.55 231.32L226.84 230.73L227.15 230.14L227.47 229.56L227.81 229L228.16 228.44L228.53 227.89L228.91 227.34L229.31 226.81L229.72 226.29L230.14 225.78L230.58 225.28L231.03 224.79L231.49 224.31L231.97 223.85L232.46 223.39L232.96 222.95L233.47 222.52L234 222.1L234.54 221.69L235.09 221.3L235.66 220.93L236.23 220.56L236.82 220.21L311.29 177.17L311.88 176.83L312.48 176.52L313.09 176.22L313.71 175.94L314.33 175.67L314.95 175.42L315.58 175.19L316.22 174.98L316.85 174.78L317.5 174.6L318.14 174.44L318.79 174.29L319.44 174.16L320.1 174.05L320.75 173.96L321.41 173.88L322.07 173.82L322.73 173.78L323.39 173.75L324.05 173.74L324.71 173.75L325.37 173.78Z" id="bZAs2RMih"></path></defs><g><g><g><use xlink:href="#a3faNbbSZy" opacity="1" fill="#000000" fill-opacity="1"></use></g><g><use xlink:href="#cQVpflqH4" opacity="1" fill="#000000" fill-opacity="1"></use></g><g><use xlink:href="#h3jaoIeM7f" opacity="1" fill="#000000" fill-opacity="1"></use></g><g><use xlink:href="#b2V5VFnIRm" opacity="1" fill="#000000" fill-opacity="1"></use></g><g><use xlink:href="#a2E2vWlrD" opacity="1" fill="#000000" fill-opacity="1"></use></g><g><use xlink:href="#bt7P9ERn3" opacity="1" fill="#000000" fill-opacity="1"></use></g><g><g><use xlink:href="#a6zDJnwOKa" opacity="1" fill-opacity="0" stroke="#000000" stroke-width="20" stroke-opacity="1"></use></g></g><g><use xlink:href="#aj6ZTbupz" opacity="1" fill="#000000" fill-opacity="1"></use></g><g><use xlink:href="#e1dt3BRWJ1" opacity="1" fill="#000000" fill-opacity="1"></use></g><g><use xlink:href="#d7h6MNkc2" opacity="1" fill="#000000" fill-opacity="1"></use></g><g><use xlink:href="#c2cbNCECg3" opacity="1" fill="#000000" fill-opacity="1"></use></g><g><use xlink:href="#b1reHjUyA" opacity="1" fill="#000000" fill-opacity="1"></use></g><g><use xlink:href="#bZAs2RMih" opacity="1" fill="#000000" fill-opacity="1"></use></g></g></g></svg>