<?xml version="1.0" encoding="UTF-8" standalone="no"?>
<!DOCTYPE svg PUBLIC "-//W3C//DTD SVG 1.1//EN" "http://www.w3.org/Graphics/SVG/1.1/DTD/svg11.dtd">
<svg version="1.1" xmlns="http://www.w3.org/2000/svg" xmlns:xlink="http://www.w3.org/1999/xlink" preserveAspectRatio="xMidYMid meet" viewBox="0 0 640 640" width="640" height="640"><defs><path d="M321.32 170.03L321.98 170.08L322.64 170.14L323.3 170.21L323.96 170.31L324.61 170.42L325.26 170.55L325.91 170.69L326.56 170.86L327.2 171.04L327.84 171.23L328.47 171.45L329.1 171.68L329.73 171.93L330.35 172.19L330.96 172.47L331.57 172.77L332.17 173.09L332.77 173.42L407.23 216.47L407.82 216.82L408.4 217.18L408.96 217.56L409.51 217.95L410.05 218.36L410.58 218.77L411.09 219.2L411.59 219.65L412.08 220.1L412.56 220.57L413.02 221.05L413.48 221.54L413.91 222.04L414.34 222.55L414.74 223.07L415.14 223.6L415.52 224.14L415.89 224.69L416.24 225.25L416.58 225.82L416.9 226.4L417.21 226.98L417.5 227.58L417.78 228.18L418.04 228.79L418.29 229.4L418.52 230.02L418.74 230.65L418.93 231.29L419.12 231.93L419.28 232.57L419.43 233.23L419.56 233.88L419.68 234.54L419.78 235.21L419.86 235.88L419.92 236.55L419.96 237.23L419.99 237.91L420 238.59L420 261.65L400 261.65L400 247.2L399.99 246.66L399.97 246.11L399.93 245.57L399.88 245.03L399.82 244.5L399.74 243.97L399.65 243.44L399.54 242.91L399.43 242.39L399.29 241.87L399.15 241.36L398.99 240.85L398.82 240.35L398.63 239.85L398.43 239.36L398.23 238.87L398 238.39L397.77 237.92L397.52 237.45L397.26 236.99L396.99 236.53L396.71 236.08L396.42 235.64L396.11 235.21L395.8 234.79L395.47 234.37L395.13 233.96L394.78 233.56L394.42 233.17L394.05 232.78L393.67 232.41L393.28 232.05L392.87 231.69L392.46 231.35L392.04 231.01L391.61 230.69L391.17 230.38L390.72 230.07L390.26 229.78L389.79 229.5L330.21 195.07L329.74 194.8L329.25 194.55L328.77 194.31L328.28 194.08L327.78 193.87L327.28 193.67L326.78 193.49L326.27 193.32L325.76 193.16L325.24 193.01L324.73 192.88L324.21 192.77L323.69 192.67L323.16 192.58L322.64 192.5L322.11 192.44L321.59 192.39L321.06 192.36L320.53 192.34L320 192.33L319.47 192.34L318.94 192.36L318.41 192.39L317.89 192.44L317.36 192.5L316.84 192.58L316.31 192.67L315.79 192.77L315.27 192.88L314.76 193.01L314.24 193.16L313.73 193.32L313.22 193.49L312.72 193.67L312.22 193.87L311.72 194.08L311.23 194.31L310.75 194.55L310.26 194.8L309.79 195.07L250.21 229.5L249.74 229.78L249.28 230.07L248.83 230.38L248.39 230.69L247.96 231.01L247.54 231.35L247.13 231.69L246.72 232.05L246.33 232.41L245.95 232.78L245.58 233.17L245.22 233.56L244.87 233.96L244.53 234.37L244.2 234.79L243.89 235.21L243.58 235.64L243.29 236.08L243.01 236.53L242.74 236.99L242.48 237.45L242.23 237.92L242 238.39L241.77 238.87L241.57 239.36L241.37 239.85L241.18 240.35L241.01 240.85L240.85 241.36L240.71 241.87L240.57 242.39L240.46 242.91L240.35 243.44L240.26 243.97L240.18 244.5L240.12 245.03L240.07 245.57L240.03 246.11L240.01 246.66L240 247.2L240 261.65L220 261.65L220 238.59L220.01 237.91L220.04 237.23L220.08 236.55L220.14 235.88L220.22 235.21L220.32 234.54L220.44 233.88L220.57 233.23L220.72 232.57L220.88 231.93L221.07 231.29L221.26 230.65L221.48 230.02L221.71 229.4L221.96 228.79L222.22 228.18L222.5 227.58L222.79 226.98L223.1 226.4L223.42 225.82L223.76 225.25L224.11 224.69L224.48 224.14L224.86 223.6L225.26 223.07L225.66 222.55L226.09 222.04L226.52 221.54L226.98 221.05L227.44 220.57L227.92 220.1L228.41 219.65L228.91 219.2L229.42 218.77L229.95 218.36L230.49 217.95L231.04 217.56L231.6 217.18L232.18 216.82L232.77 216.47L307.23 173.42L307.83 173.09L308.43 172.77L309.04 172.47L309.65 172.19L310.27 171.93L310.9 171.68L311.53 171.45L312.16 171.23L312.8 171.04L313.44 170.86L314.09 170.69L314.74 170.55L315.39 170.42L316.04 170.31L316.7 170.21L317.36 170.14L318.02 170.08L318.68 170.03L319.34 170.01L320 170L320.66 170.01L321.32 170.03Z" id="a1r53GCd92"></path><path d="M240 261.65C240 267.17 235.52 271.65 230 271.65C224.48 271.65 220 267.17 220 261.65C220 256.13 224.48 251.65 230 251.65C235.52 251.65 240 256.13 240 261.65Z" id="cZws9TZDj"></path><path d="M420 281.65C420 287.17 415.52 291.65 410 291.65C404.48 291.65 400 287.17 400 281.65C400 276.13 404.48 271.65 410 271.65C415.52 271.65 420 276.13 420 281.65Z" id="g7kfpONLZa"></path><path d="M419.99 402.09L419.96 402.77L419.92 403.45L419.86 404.12L419.78 404.79L419.68 405.46L419.56 406.12L419.43 406.77L419.28 407.43L419.12 408.07L418.93 408.71L418.74 409.35L418.52 409.98L418.29 410.6L418.04 411.21L417.78 411.82L417.5 412.42L417.21 413.02L416.9 413.6L416.58 414.18L416.24 414.75L415.89 415.31L415.52 415.86L415.14 416.4L414.74 416.93L414.34 417.45L413.91 417.96L413.48 418.46L413.02 418.95L412.56 419.43L412.08 419.9L411.59 420.35L411.09 420.8L410.58 421.23L410.05 421.64L409.51 422.05L408.96 422.44L408.4 422.82L407.82 423.18L407.23 423.53L332.77 466.58L332.17 466.91L331.57 467.23L330.96 467.53L330.35 467.81L329.73 468.07L329.1 468.32L328.47 468.55L327.84 468.77L327.2 468.96L326.56 469.14L325.91 469.31L325.26 469.45L324.61 469.58L323.96 469.69L323.3 469.79L322.64 469.86L321.98 469.92L321.32 469.97L320.66 469.99L320 470L319.34 469.99L318.68 469.97L318.02 469.92L317.36 469.86L316.7 469.79L316.04 469.69L315.39 469.58L314.74 469.45L314.09 469.31L313.44 469.14L312.8 468.96L312.16 468.77L311.53 468.55L310.9 468.32L310.27 468.07L309.65 467.81L309.04 467.53L308.43 467.23L307.83 466.91L307.23 466.58L232.77 423.53L232.18 423.18L231.6 422.82L231.04 422.44L230.49 422.05L229.95 421.64L229.42 421.23L228.91 420.8L228.41 420.35L227.92 419.9L227.44 419.43L226.98 418.95L226.52 418.46L226.09 417.96L225.66 417.45L225.26 416.93L224.86 416.4L224.48 415.86L224.11 415.31L223.76 414.75L223.42 414.18L223.1 413.6L222.79 413.02L222.5 412.42L222.22 411.82L221.96 411.21L221.71 410.6L221.48 409.98L221.26 409.35L221.07 408.71L220.88 408.07L220.72 407.43L220.57 406.77L220.44 406.12L220.32 405.46L220.22 404.79L220.14 404.12L220.08 403.45L220.04 402.77L220.01 402.09L220 401.41L220 378.35L240 378.35L240 392.8L240.01 393.34L240.03 393.89L240.07 394.43L240.12 394.97L240.18 395.5L240.26 396.03L240.35 396.56L240.46 397.09L240.57 397.61L240.71 398.13L240.85 398.64L241.01 399.15L241.18 399.65L241.37 400.15L241.57 400.64L241.77 401.13L242 401.61L242.23 402.08L242.48 402.55L242.74 403.01L243.01 403.47L243.29 403.92L243.58 404.36L243.89 404.79L244.2 405.21L244.53 405.63L244.87 406.04L245.22 406.44L245.58 406.83L245.95 407.22L246.33 407.59L246.72 407.95L247.13 408.31L247.54 408.65L247.96 408.99L248.39 409.31L248.83 409.62L249.28 409.93L249.74 410.22L250.21 410.5L309.79 444.93L310.26 445.2L310.75 445.45L311.23 445.69L311.72 445.92L312.22 446.13L312.72 446.33L313.22 446.51L313.73 446.68L314.24 446.84L314.76 446.99L315.27 447.12L315.79 447.23L316.31 447.33L316.84 447.42L317.36 447.5L317.89 447.56L318.41 447.61L318.94 447.64L319.47 447.66L320 447.67L320.53 447.66L321.06 447.64L321.59 447.61L322.11 447.56L322.64 447.5L323.16 447.42L323.69 447.33L324.21 447.23L324.73 447.12L325.24 446.99L325.76 446.84L326.27 446.68L326.78 446.51L327.28 446.33L327.78 446.13L328.28 445.92L328.77 445.69L329.25 445.45L329.74 445.2L330.21 444.93L389.79 410.5L390.26 410.22L390.72 409.93L391.17 409.62L391.61 409.31L392.04 408.99L392.46 408.65L392.87 408.31L393.28 407.95L393.67 407.59L394.05 407.22L394.42 406.83L394.78 406.44L395.13 406.04L395.47 405.63L395.8 405.21L396.11 404.79L396.42 404.36L396.71 403.92L396.99 403.47L397.26 403.01L397.52 402.55L397.77 402.08L398 401.61L398.23 401.13L398.43 400.64L398.63 400.15L398.82 399.65L398.99 399.15L399.15 398.64L399.29 398.13L399.43 397.61L399.54 397.09L399.65 396.56L399.74 396.03L399.82 395.5L399.88 394.97L399.93 394.43L399.97 393.89L399.99 393.34L400 392.8L400 378.35L420 378.35L420 401.41L419.99 402.09Z" id="a1pPqxhINC"></path><path d="M240 378.35C240 372.83 235.52 368.35 230 368.35C224.48 368.35 220 372.83 220 378.35C220 383.87 224.48 388.35 230 388.35C235.52 388.35 240 383.87 240 378.35Z" id="b128ZQ4SZH"></path><path d="M420 358.35C420 352.83 415.52 348.35 410 348.35C404.48 348.35 400 352.83 400 358.35C400 363.87 404.48 368.35 410 368.35C415.52 368.35 420 363.87 420 358.35Z" id="g5uYhqHNPU"></path><path d="M373.3 320C373.3 325.52 368.82 330 363.3 330C357.78 330 353.3 325.52 353.3 320C353.3 314.48 357.78 310 363.3 310C368.82 310 373.3 314.48 373.3 320Z" id="dwp5ijHnw"></path><path d="M363.3 320L410 281.65" id="ezdawHZ"></path><path d="M410 358.35L363.3 320" id="e41JiGUIWY"></path><path d="M400 250.15L420 250.15L420 281.65L400 281.65L400 250.15Z" id="b4dgi2UZsW"></path><path d="M400 356.85L420 356.85L420 388.35L400 388.35L400 356.85Z" id="cxnOaWGO"></path><path d="M265.45 330L265.45 330L264.95 330L265.45 330Z" id="cGcEkHaXK"></path><path d="M320 310L360 310L360 330L320 330L320 310Z" id="c1NEgGz9PO"></path><path d="M330 320C330 325.52 325.52 330 320 330C314.48 330 310 325.52 310 320C310 314.48 314.48 310 320 310C325.52 310 330 314.48 330 320Z" id="a1E3dONIdP"></path></defs><g><g><g><use xlink:href="#a1r53GCd92" opacity="1" fill="#000000" fill-opacity="1"></use></g><g><use xlink:href="#cZws9TZDj" opacity="1" fill="#000000" fill-opacity="1"></use></g><g><use xlink:href="#g7kfpONLZa" opacity="1" fill="#000000" fill-opacity="1"></use></g><g><use xlink:href="#a1pPqxhINC" opacity="1" fill="#000000" fill-opacity="1"></use></g><g><use xlink:href="#b128ZQ4SZH" opacity="1" fill="#000000" fill-opacity="1"></use></g><g><use xlink:href="#g5uYhqHNPU" opacity="1" fill="#000000" fill-opacity="1"></use></g><g><use xlink:href="#dwp5ijHnw" opacity="1" fill="#000000" fill-opacity="1"></use></g><g><use xlink:href="#ezdawHZ" opacity="1" fill="#000000" fill-opacity="1"></use><g><use xlink:href="#ezdawHZ" opacity="1" fill-opacity="0" stroke="#000000" stroke-width="20" stroke-opacity="1"></use></g></g><g><use xlink:href="#e41JiGUIWY" opacity="1" fill="#000000" fill-opacity="1"></use><g><use xlink:href="#e41JiGUIWY" opacity="1" fill-opacity="0" stroke="#000000" stroke-width="20" stroke-opacity="1"></use></g></g><g><use xlink:href="#b4dgi2UZsW" opacity="1" fill="#000000" fill-opacity="1"></use></g><g><use xlink:href="#cxnOaWGO" opacity="1" fill="#000000" fill-opacity="1"></use></g><g><use xlink:href="#cGcEkHaXK" opacity="1" fill="#8c2c2c" fill-opacity="1"></use></g><g><use xlink:href="#c1NEgGz9PO" opacity="1" fill="#000000" fill-opacity="1"></use></g><g><use xlink:href="#a1E3dONIdP" opacity="1" fill="#000000" fill-opacity="1"></use></g></g></g></svg>