<?xml version="1.0" encoding="UTF-8" standalone="no"?>
<!DOCTYPE svg PUBLIC "-//W3C//DTD SVG 1.1//EN" "http://www.w3.org/Graphics/SVG/1.1/DTD/svg11.dtd">
<svg version="1.1" xmlns="http://www.w3.org/2000/svg" xmlns:xlink="http://www.w3.org/1999/xlink" preserveAspectRatio="xMidYMid meet" viewBox="0 0 640 640" width="640" height="640"><defs><path d="M419.99 288.94L419.96 289.62L419.92 290.3L419.86 290.97L419.78 291.64L419.68 292.31L419.56 292.97L419.43 293.62L419.28 294.28L419.12 294.92L418.93 295.56L418.74 296.2L418.52 296.83L418.29 297.45L418.04 298.06L417.78 298.67L417.5 299.27L417.21 299.87L416.9 300.45L416.58 301.03L416.24 301.6L415.89 302.16L415.52 302.71L415.14 303.25L414.74 303.78L414.34 304.3L413.91 304.81L413.48 305.31L413.02 305.8L412.56 306.28L412.08 306.75L411.59 307.2L411.09 307.65L410.58 308.08L410.05 308.49L409.51 308.9L408.96 309.29L408.4 309.67L407.82 310.03L407.23 310.38L332.77 353.43L332.17 353.76L331.57 354.08L330.96 354.38L330.35 354.66L329.73 354.92L329.1 355.17L328.47 355.4L327.84 355.62L327.2 355.81L326.56 355.99L325.91 356.16L325.26 356.3L324.61 356.43L323.96 356.54L323.3 356.64L322.64 356.71L321.98 356.77L321.32 356.82L320.66 356.84L320 356.85L319.34 356.84L318.68 356.82L318.02 356.77L317.36 356.71L316.7 356.64L316.04 356.54L315.39 356.43L314.74 356.3L314.09 356.16L313.44 355.99L312.8 355.81L312.16 355.62L311.53 355.4L310.9 355.17L310.27 354.92L309.65 354.66L309.04 354.38L308.43 354.08L307.83 353.76L307.23 353.43L232.77 310.38L232.18 310.03L231.6 309.67L231.04 309.29L230.49 308.9L229.95 308.49L229.42 308.08L228.91 307.65L228.41 307.2L227.92 306.75L227.44 306.28L226.98 305.8L226.52 305.31L226.09 304.81L225.66 304.3L225.26 303.78L224.86 303.25L224.48 302.71L224.11 302.16L223.76 301.6L223.42 301.03L223.1 300.45L222.79 299.87L222.5 299.27L222.22 298.67L221.96 298.06L221.71 297.45L221.48 296.83L221.26 296.2L221.07 295.56L220.88 294.92L220.72 294.28L220.57 293.62L220.44 292.97L220.32 292.31L220.22 291.64L220.14 290.97L220.08 290.3L220.04 289.62L220.01 288.94L220 288.26L220 265.2L240 265.2L240 279.65L240.01 280.19L240.03 280.74L240.07 281.28L240.12 281.82L240.18 282.35L240.26 282.88L240.35 283.41L240.46 283.94L240.57 284.46L240.71 284.98L240.85 285.49L241.01 286L241.18 286.5L241.37 287L241.57 287.49L241.77 287.98L242 288.46L242.23 288.93L242.48 289.4L242.74 289.86L243.01 290.32L243.29 290.77L243.58 291.21L243.89 291.64L244.2 292.06L244.53 292.48L244.87 292.89L245.22 293.29L245.58 293.68L245.95 294.07L246.33 294.44L246.72 294.8L247.13 295.16L247.54 295.5L247.96 295.84L248.39 296.16L248.83 296.47L249.28 296.78L249.74 297.07L250.21 297.35L309.79 331.78L310.26 332.05L310.75 332.3L311.23 332.54L311.72 332.77L312.22 332.98L312.72 333.18L313.22 333.36L313.73 333.53L314.24 333.69L314.76 333.84L315.27 333.97L315.79 334.08L316.31 334.18L316.84 334.27L317.36 334.35L317.89 334.41L318.41 334.46L318.94 334.49L319.47 334.51L320 334.52L320.53 334.51L321.06 334.49L321.59 334.46L322.11 334.41L322.64 334.35L323.16 334.27L323.69 334.18L324.21 334.08L324.73 333.97L325.24 333.84L325.76 333.69L326.27 333.53L326.78 333.36L327.28 333.18L327.78 332.98L328.28 332.77L328.77 332.54L329.25 332.3L329.74 332.05L330.21 331.78L389.79 297.35L390.26 297.07L390.72 296.78L391.17 296.47L391.61 296.16L392.04 295.84L392.46 295.5L392.87 295.16L393.28 294.8L393.67 294.44L394.05 294.07L394.42 293.68L394.78 293.29L395.13 292.89L395.47 292.48L395.8 292.06L396.11 291.64L396.42 291.21L396.71 290.77L396.99 290.32L397.26 289.86L397.52 289.4L397.77 288.93L398 288.46L398.23 287.98L398.43 287.49L398.63 287L398.82 286.5L398.99 286L399.15 285.49L399.29 284.98L399.43 284.46L399.54 283.94L399.65 283.41L399.74 282.88L399.82 282.35L399.88 281.82L399.93 281.28L399.97 280.74L399.99 280.19L400 279.65L400 265.2L420 265.2L420 288.26L419.99 288.94Z" id="a1vU3ydfha"></path><path d="M240 180C240 174.48 235.52 170 230 170C224.48 170 220 174.48 220 180C220 185.52 224.48 190 230 190C235.52 190 240 185.52 240 180Z" id="ab9DQ8lu1"></path><path d="M420 180C420 174.48 415.52 170 410 170C404.48 170 400 174.48 400 180C400 185.52 404.48 190 410 190C415.52 190 420 185.52 420 180Z" id="fonU671YJ"></path><path d="M265.45 191.65L265.45 191.65L264.95 191.65L265.45 191.65Z" id="inWl9vGnL"></path><path d="M220 180L240 180L240 279L220 279L220 180Z" id="h6l2NZrLjg"></path><path d="M400 180L420 180L420 460L400 460L400 180Z" id="c1hZ5NzvWH"></path><path d="M420 460C420 454.48 415.52 450 410 450C404.48 450 400 454.48 400 460C400 465.52 404.48 470 410 470C415.52 470 420 465.52 420 460Z" id="cMTh6JXhV"></path></defs><g><g><g><use xlink:href="#a1vU3ydfha" opacity="1" fill="#000000" fill-opacity="1"></use></g><g><use xlink:href="#ab9DQ8lu1" opacity="1" fill="#000000" fill-opacity="1"></use></g><g><use xlink:href="#fonU671YJ" opacity="1" fill="#000000" fill-opacity="1"></use></g><g><use xlink:href="#inWl9vGnL" opacity="1" fill="#8c2c2c" fill-opacity="1"></use></g><g><use xlink:href="#h6l2NZrLjg" opacity="1" fill="#000000" fill-opacity="1"></use></g><g><use xlink:href="#c1hZ5NzvWH" opacity="1" fill="#000000" fill-opacity="1"></use></g><g><use xlink:href="#cMTh6JXhV" opacity="1" fill="#000000" fill-opacity="1"></use></g></g></g></svg>