<?xml version="1.0" encoding="UTF-8" standalone="no"?>
<!DOCTYPE svg PUBLIC "-//W3C//DTD SVG 1.1//EN" "http://www.w3.org/Graphics/SVG/1.1/DTD/svg11.dtd">
<svg version="1.1" xmlns="http://www.w3.org/2000/svg" xmlns:xlink="http://www.w3.org/1999/xlink" preserveAspectRatio="xMidYMid meet" viewBox="0 0 640 640" width="640" height="640"><defs><path d="M321.72 246.73L322.38 246.78L323.04 246.84L323.7 246.91L324.36 247.01L325.01 247.12L325.66 247.25L326.31 247.39L326.96 247.56L327.6 247.74L328.24 247.93L328.87 248.15L329.5 248.38L330.13 248.63L330.75 248.89L331.36 249.17L331.97 249.47L332.57 249.79L333.17 250.12L407.63 293.17L408.22 293.52L408.8 293.88L409.36 294.26L409.91 294.65L410.45 295.06L410.98 295.47L411.49 295.9L411.99 296.35L412.48 296.8L412.96 297.27L413.42 297.75L413.88 298.24L414.31 298.74L414.74 299.25L415.14 299.77L415.54 300.3L415.92 300.84L416.29 301.39L416.64 301.95L416.98 302.52L417.3 303.1L417.61 303.68L417.9 304.28L418.18 304.88L418.44 305.49L418.69 306.1L418.92 306.72L419.14 307.35L419.33 307.99L419.52 308.63L419.68 309.28L419.83 309.93L419.96 310.58L420.08 311.24L420.18 311.91L420.26 312.58L420.32 313.25L420.36 313.93L420.39 314.61L420.4 315.29L420.4 401.41L420.39 402.09L420.36 402.77L420.32 403.45L420.26 404.12L420.18 404.79L420.08 405.46L419.96 406.12L419.83 406.77L419.68 407.43L419.52 408.07L419.33 408.71L419.14 409.35L418.92 409.98L418.69 410.6L418.44 411.21L418.18 411.82L417.9 412.42L417.61 413.02L417.3 413.6L416.98 414.18L416.64 414.75L416.29 415.31L415.92 415.86L415.54 416.4L415.14 416.93L414.74 417.45L414.31 417.96L413.88 418.46L413.42 418.95L412.96 419.43L412.48 419.9L411.99 420.35L411.49 420.8L410.98 421.23L410.45 421.64L409.91 422.05L409.36 422.44L408.8 422.82L408.22 423.18L407.63 423.53L333.17 466.58L332.57 466.91L331.97 467.23L331.36 467.53L330.75 467.81L330.13 468.07L329.5 468.32L328.87 468.55L328.24 468.77L327.6 468.96L326.96 469.14L326.31 469.31L325.66 469.45L325.01 469.58L324.36 469.69L323.7 469.79L323.04 469.86L322.38 469.92L321.72 469.97L321.06 469.99L320.4 470L319.74 469.99L319.08 469.97L318.42 469.92L317.76 469.86L317.1 469.79L316.44 469.69L315.79 469.58L315.14 469.45L314.49 469.31L313.84 469.14L313.2 468.96L312.56 468.77L311.93 468.55L311.3 468.32L310.67 468.07L310.05 467.81L309.44 467.53L308.83 467.23L308.23 466.91L307.63 466.58L258.8 438.35L298.8 438.35L310.19 444.93L310.66 445.2L311.15 445.45L311.63 445.69L312.12 445.92L312.62 446.13L313.12 446.33L313.62 446.51L314.13 446.68L314.64 446.84L315.16 446.99L315.67 447.12L316.19 447.23L316.71 447.33L317.24 447.42L317.76 447.5L318.29 447.56L318.81 447.61L319.34 447.64L319.87 447.66L320.4 447.67L320.93 447.66L321.46 447.64L321.99 447.61L322.51 447.56L323.04 447.5L323.56 447.42L324.09 447.33L324.61 447.23L325.13 447.12L325.64 446.99L326.16 446.84L326.67 446.68L327.18 446.51L327.68 446.33L328.18 446.13L328.68 445.92L329.17 445.69L329.65 445.45L330.14 445.2L330.61 444.93L390.19 410.5L390.66 410.22L391.12 409.93L391.57 409.62L392.01 409.31L392.44 408.99L392.86 408.65L393.27 408.31L393.68 407.95L394.07 407.59L394.45 407.22L394.82 406.83L395.18 406.44L395.53 406.04L395.87 405.63L396.2 405.21L396.51 404.79L396.82 404.36L397.11 403.92L397.39 403.47L397.66 403.01L397.92 402.55L398.17 402.08L398.4 401.61L398.63 401.13L398.83 400.64L399.03 400.15L399.22 399.65L399.39 399.15L399.55 398.64L399.69 398.13L399.83 397.61L399.94 397.09L400.05 396.56L400.14 396.03L400.22 395.5L400.28 394.97L400.33 394.43L400.37 393.89L400.39 393.34L400.4 392.8L400.4 323.91L400.39 323.36L400.37 322.81L400.33 322.27L400.28 321.73L400.22 321.2L400.14 320.67L400.05 320.14L399.94 319.61L399.83 319.09L399.69 318.57L399.55 318.06L399.39 317.55L399.22 317.05L399.03 316.55L398.83 316.06L398.63 315.57L398.4 315.09L398.17 314.62L397.92 314.15L397.66 313.69L397.39 313.23L397.11 312.78L396.82 312.34L396.51 311.91L396.2 311.49L395.87 311.07L395.53 310.66L395.18 310.26L394.82 309.87L394.45 309.48L394.07 309.11L393.68 308.75L393.27 308.39L392.86 308.05L392.44 307.71L392.01 307.39L391.57 307.08L391.12 306.78L390.66 306.48L390.19 306.2L330.61 271.77L330.14 271.5L329.65 271.25L329.17 271.01L328.68 270.78L328.18 270.57L327.68 270.37L327.18 270.19L326.67 270.02L326.16 269.86L325.64 269.72L325.13 269.58L324.61 269.47L324.09 269.37L323.56 269.28L323.04 269.2L322.51 269.14L321.99 269.09L321.46 269.06L320.93 269.04L320.4 269.03L319.87 269.04L319.34 269.06L318.81 269.09L318.29 269.14L317.76 269.2L317.24 269.28L316.71 269.37L316.19 269.47L315.67 269.58L315.16 269.72L314.64 269.86L314.13 270.02L313.62 270.19L313.12 270.37L312.62 270.57L312.12 270.78L311.63 271.01L311.15 271.25L310.66 271.5L310.19 271.77L292.46 282.02L252.46 282.02L307.63 250.12L308.23 249.79L308.83 249.47L309.44 249.17L310.05 248.89L310.67 248.63L311.3 248.38L311.93 248.15L312.56 247.93L313.2 247.74L313.84 247.56L314.49 247.39L315.14 247.25L315.79 247.12L316.44 247.01L317.1 246.91L317.76 246.84L318.42 246.78L319.08 246.73L319.74 246.71L320.4 246.7L321.06 246.71L321.72 246.73Z" id="a4GoZ8Yv1"></path><path d="M230.4 190L410.4 190L410.4 170L230.4 170L230.4 190Z" id="ap00d4OZ"></path><path d="M420.4 358.35C420.4 352.83 415.92 348.35 410.4 348.35C404.88 348.35 400.4 352.83 400.4 358.35C400.4 363.87 404.88 368.35 410.4 368.35C415.92 368.35 420.4 363.87 420.4 358.35Z" id="a1pVvxWz8"></path><path d="M220.4 307.9L240.4 307.9L240.4 180L220.4 180L220.4 307.9Z" id="acHgUFl2R"></path><path d="M240.4 180C240.4 174.48 235.92 170 230.4 170C224.88 170 220.4 174.48 220.4 180C220.4 185.52 224.88 190 230.4 190C235.92 190 240.4 185.52 240.4 180Z" id="anXnJvtj4"></path><path d="M420.4 180C420.4 174.48 415.92 170 410.4 170C404.88 170 400.4 174.48 400.4 180C400.4 185.52 404.88 190 410.4 190C415.92 190 420.4 185.52 420.4 180Z" id="dFENvt0W0"></path><path d="M400.4 210L420.4 210L420.4 180L400.4 180L400.4 210Z" id="a12ql23CsC"></path><path d="M420.4 210C420.4 204.48 415.92 200 410.4 200C404.88 200 400.4 204.48 400.4 210C400.4 215.52 404.88 220 410.4 220C415.92 220 420.4 215.52 420.4 210Z" id="c3HDKuo3mw"></path><path d="M400.4 358.35L420.4 358.35L420.4 328.35L400.4 328.35L400.4 358.35Z" id="b1Bbu2U75O"></path><path d="M420.4 328.35C420.4 322.83 415.92 318.35 410.4 318.35C404.88 318.35 400.4 322.83 400.4 328.35C400.4 333.87 404.88 338.35 410.4 338.35C415.92 338.35 420.4 333.87 420.4 328.35Z" id="b1lLCXDNNo"></path><path d="M313.15 263.78L325.4 263.78L325.4 266.7L313.15 266.7L313.15 263.78Z" id="bkxtOvAj8"></path><path d="M240.4 306.7C240.4 312.22 235.92 316.7 230.4 316.7C224.88 316.7 220.4 312.22 220.4 306.7C220.4 301.18 224.88 296.7 230.4 296.7C235.92 296.7 240.4 301.18 240.4 306.7Z" id="a10ZX9O5fu"></path><path d="M299.99 266.1L229.6 306.7" id="b3oDmx59Kn"></path><path d="M219.6 410.43L239.6 410.43L239.6 378.35L219.6 378.35L219.6 410.43Z" id="b2cYfGSY8G"></path><path d="M239.6 378.35C239.6 383.87 235.12 388.35 229.6 388.35C224.08 388.35 219.6 383.87 219.6 378.35C219.6 372.83 224.08 368.35 229.6 368.35C235.12 368.35 239.6 372.83 239.6 378.35Z" id="d237DrTqy8"></path><path d="M300.79 451.03L230.4 410.43" id="aCIPLqQ6U"></path><path d="M239.6 410.1C239.6 415.62 235.12 420.1 229.6 420.1C224.08 420.1 219.6 415.62 219.6 410.1C219.6 404.58 224.08 400.1 229.6 400.1C235.12 400.1 239.6 404.58 239.6 410.1Z" id="beBxI8POh"></path></defs><g><g><g><use xlink:href="#a4GoZ8Yv1" opacity="1" fill="#000000" fill-opacity="1"></use></g><g><use xlink:href="#ap00d4OZ" opacity="1" fill="#000000" fill-opacity="1"></use></g><g><use xlink:href="#a1pVvxWz8" opacity="1" fill="#000000" fill-opacity="1"></use></g><g><use xlink:href="#acHgUFl2R" opacity="1" fill="#000000" fill-opacity="1"></use></g><g><use xlink:href="#anXnJvtj4" opacity="1" fill="#000000" fill-opacity="1"></use></g><g><use xlink:href="#dFENvt0W0" opacity="1" fill="#000000" fill-opacity="1"></use></g><g><use xlink:href="#a12ql23CsC" opacity="1" fill="#000000" fill-opacity="1"></use></g><g><use xlink:href="#c3HDKuo3mw" opacity="1" fill="#000000" fill-opacity="1"></use></g><g><use xlink:href="#b1Bbu2U75O" opacity="1" fill="#000000" fill-opacity="1"></use></g><g><use xlink:href="#b1lLCXDNNo" opacity="1" fill="#000000" fill-opacity="1"></use></g><g><use xlink:href="#bkxtOvAj8" opacity="1" fill="#000000" fill-opacity="1"></use></g><g><use xlink:href="#a10ZX9O5fu" opacity="1" fill="#000000" fill-opacity="1"></use></g><g><g><use xlink:href="#b3oDmx59Kn" opacity="1" fill-opacity="0" stroke="#000000" stroke-width="20" stroke-opacity="1"></use></g></g><g><use xlink:href="#b2cYfGSY8G" opacity="1" fill="#000000" fill-opacity="1"></use></g><g><use xlink:href="#d237DrTqy8" opacity="1" fill="#000000" fill-opacity="1"></use></g><g><g><use xlink:href="#aCIPLqQ6U" opacity="1" fill-opacity="0" stroke="#000000" stroke-width="20" stroke-opacity="1"></use></g></g><g><use xlink:href="#beBxI8POh" opacity="1" fill="#000000" fill-opacity="1"></use></g></g></g></svg>