<?xml version="1.0" encoding="UTF-8" standalone="no"?>
<!DOCTYPE svg PUBLIC "-//W3C//DTD SVG 1.1//EN" "http://www.w3.org/Graphics/SVG/1.1/DTD/svg11.dtd">
<svg version="1.1" xmlns="http://www.w3.org/2000/svg" xmlns:xlink="http://www.w3.org/1999/xlink" preserveAspectRatio="xMidYMid meet" viewBox="0 0 640 640" width="640" height="640"><defs><path d="M420.4 200L240.4 200L240.4 180L420.4 180L420.4 200Z" id="c3mrqymHd"></path><path d="M410.4 190C410.4 184.48 414.88 180 420.4 180C425.92 180 430.4 184.48 430.4 190C430.4 195.52 425.92 200 420.4 200C414.88 200 410.4 195.52 410.4 190Z" id="c1v2Dbg3OB"></path><path d="M230.4 190C230.4 184.48 234.88 180 240.4 180C245.92 180 250.4 184.48 250.4 190C250.4 195.52 245.92 200 240.4 200C234.88 200 230.4 195.52 230.4 190Z" id="cSKCaLzvt"></path><path d="M250.4 220L230.4 220L230.4 190L250.4 190L250.4 220Z" id="a4630oKpeX"></path><path d="M230.4 220C230.4 214.48 234.88 210 240.4 210C245.92 210 250.4 214.48 250.4 220C250.4 225.52 245.92 230 240.4 230C234.88 230 230.4 225.52 230.4 220Z" id="bjLxpXW82"></path><path d="M410.4 190C410.4 184.48 414.88 180 420.4 180C425.92 180 430.4 184.48 430.4 190C430.4 195.52 425.92 200 420.4 200C414.88 200 410.4 195.52 410.4 190Z" id="a4Rt563DB"></path><path d="M230.4 190C230.4 184.48 234.88 180 240.4 180C245.92 180 250.4 184.48 250.4 190C250.4 195.52 245.92 200 240.4 200C234.88 200 230.4 195.52 230.4 190Z" id="d1sblzVgdE"></path><path d="M250.4 220L230.4 220L230.4 190L250.4 190L250.4 220Z" id="andM7shcu"></path><path d="M230.4 220C230.4 214.48 234.88 210 240.4 210C245.92 210 250.4 214.48 250.4 220C250.4 225.52 245.92 230 240.4 230C234.88 230 230.4 225.52 230.4 220Z" id="a9IRRWcunc"></path><path d="M410.4 190C410.4 184.48 414.88 180 420.4 180C425.92 180 430.4 184.48 430.4 190C430.4 195.52 425.92 200 420.4 200C414.88 200 410.4 195.52 410.4 190Z" id="aUKh7rKE5"></path><path d="M230.4 190C230.4 184.48 234.88 180 240.4 180C245.92 180 250.4 184.48 250.4 190C250.4 195.52 245.92 200 240.4 200C234.88 200 230.4 195.52 230.4 190Z" id="a23HQV5BiM"></path><path d="M250.4 220L230.4 220L230.4 190L250.4 190L250.4 220Z" id="fniCtQIV9"></path><path d="M230.4 220C230.4 214.48 234.88 210 240.4 210C245.92 210 250.4 214.48 250.4 220C250.4 225.52 245.92 230 240.4 230C234.88 230 230.4 225.52 230.4 220Z" id="b8G8Xn0V6e"></path><path d="M430.4 250L410.4 250L410.4 190L430.4 190L430.4 250Z" id="c1nUD6DngI"></path><path d="M320.4 470C320.4 464.48 324.88 460 330.4 460C335.92 460 340.4 464.48 340.4 470C340.4 475.52 335.92 480 330.4 480C324.88 480 320.4 475.52 320.4 470Z" id="a2fBLN9rKY"></path><path d="M320.4 340C320.4 334.48 324.88 330 330.4 330C335.92 330 340.4 334.48 340.4 340C340.4 345.52 335.92 350 330.4 350C324.88 350 320.4 345.52 320.4 340Z" id="a3nqDfyrR"></path><path d="M410.4 250C410.4 244.48 414.88 240 420.4 240C425.92 240 430.4 244.48 430.4 250C430.4 255.52 425.92 260 420.4 260C414.88 260 410.4 255.52 410.4 250Z" id="o4R1yrYhOq"></path><path d="M320.4 340L340.4 340L340.4 470L320.4 470L320.4 340Z" id="f28W0AXo4T"></path><path d="M420.4 250L330.4 340" id="a6nf726oR"></path></defs><g><g><g><use xlink:href="#c3mrqymHd" opacity="1" fill="#000000" fill-opacity="1"></use></g><g><use xlink:href="#c1v2Dbg3OB" opacity="1" fill="#000000" fill-opacity="1"></use></g><g><use xlink:href="#cSKCaLzvt" opacity="1" fill="#000000" fill-opacity="1"></use></g><g><use xlink:href="#a4630oKpeX" opacity="1" fill="#000000" fill-opacity="1"></use></g><g><use xlink:href="#bjLxpXW82" opacity="1" fill="#000000" fill-opacity="1"></use></g><g><use xlink:href="#a4Rt563DB" opacity="1" fill="#000000" fill-opacity="1"></use></g><g><use xlink:href="#d1sblzVgdE" opacity="1" fill="#000000" fill-opacity="1"></use></g><g><use xlink:href="#andM7shcu" opacity="1" fill="#000000" fill-opacity="1"></use></g><g><use xlink:href="#a9IRRWcunc" opacity="1" fill="#000000" fill-opacity="1"></use></g><g><use xlink:href="#aUKh7rKE5" opacity="1" fill="#000000" fill-opacity="1"></use></g><g><use xlink:href="#a23HQV5BiM" opacity="1" fill="#000000" fill-opacity="1"></use></g><g><use xlink:href="#fniCtQIV9" opacity="1" fill="#000000" fill-opacity="1"></use></g><g><use xlink:href="#b8G8Xn0V6e" opacity="1" fill="#000000" fill-opacity="1"></use></g><g><use xlink:href="#c1nUD6DngI" opacity="1" fill="#000000" fill-opacity="1"></use></g><g><use xlink:href="#a2fBLN9rKY" opacity="1" fill="#000000" fill-opacity="1"></use></g><g><use xlink:href="#a3nqDfyrR" opacity="1" fill="#000000" fill-opacity="1"></use></g><g><use xlink:href="#o4R1yrYhOq" opacity="1" fill="#000000" fill-opacity="1"></use></g><g><use xlink:href="#f28W0AXo4T" opacity="1" fill="#000000" fill-opacity="1"></use></g><g><g><use xlink:href="#a6nf726oR" opacity="1" fill-opacity="0" stroke="#000000" stroke-width="20" stroke-opacity="1"></use></g></g></g></g></svg>