<?xml version="1.0" encoding="UTF-8" standalone="no"?>
<!DOCTYPE svg PUBLIC "-//W3C//DTD SVG 1.1//EN" "http://www.w3.org/Graphics/SVG/1.1/DTD/svg11.dtd">
<svg version="1.1" xmlns="http://www.w3.org/2000/svg" xmlns:xlink="http://www.w3.org/1999/xlink" preserveAspectRatio="xMidYMid meet" viewBox="0 0 640 640" width="640" height="640"><defs><path d="M407.82 327.98L408.4 328.34L408.96 328.72L409.51 329.11L410.05 329.51L410.58 329.93L411.09 330.36L411.59 330.81L412.08 331.26L412.56 331.73L413.02 332.21L413.48 332.7L413.91 333.2L414.34 333.71L414.74 334.23L415.14 334.76L415.52 335.3L415.89 335.85L416.24 336.41L416.58 336.98L416.9 337.56L417.21 338.14L417.5 338.74L417.78 339.34L418.04 339.95L418.29 340.56L418.52 341.18L418.74 341.81L418.93 342.45L419.12 343.09L419.28 343.73L419.43 344.39L419.56 345.04L419.68 345.7L419.78 346.37L419.86 347.04L419.92 347.71L419.96 348.39L419.99 349.07L420 349.75L420 365.94L400 365.94L400 358.36L399.99 357.82L399.97 357.27L399.93 356.73L399.88 356.19L399.82 355.66L399.74 355.12L399.65 354.6L399.54 354.07L399.43 353.55L399.29 353.03L399.15 352.52L398.99 352.01L398.82 351.51L398.63 351.01L398.43 350.52L398.23 350.03L398 349.55L397.77 349.08L397.52 348.61L397.26 348.15L396.99 347.69L396.71 347.24L396.42 346.8L396.11 346.37L395.8 345.94L395.47 345.53L395.13 345.12L394.78 344.72L394.42 344.33L394.05 343.94L393.67 343.57L393.28 343.21L392.87 342.85L392.46 342.51L392.04 342.17L391.61 341.85L391.17 341.54L390.72 341.23L390.26 340.94L389.79 340.66L368.31 328.25L378.32 310.91L407.23 327.63L407.82 327.98ZM250.21 340.66L249.74 340.94L249.28 341.23L248.83 341.54L248.39 341.85L247.96 342.17L247.54 342.51L247.13 342.85L246.72 343.21L246.33 343.57L245.95 343.94L245.58 344.33L245.22 344.72L244.87 345.12L244.53 345.53L244.2 345.94L243.89 346.37L243.58 346.8L243.29 347.24L243.01 347.69L242.74 348.15L242.48 348.61L242.23 349.08L242 349.55L241.77 350.03L241.57 350.52L241.37 351.01L241.18 351.51L241.01 352.01L240.85 352.52L240.71 353.03L240.57 353.55L240.46 354.07L240.35 354.6L240.26 355.12L240.18 355.66L240.12 356.19L240.07 356.73L240.03 357.27L240.01 357.82L240 358.36L240 365.94L220 365.94L220 349.75L220.01 349.07L220.04 348.39L220.08 347.71L220.14 347.04L220.22 346.37L220.32 345.7L220.44 345.04L220.57 344.39L220.72 343.73L220.88 343.09L221.07 342.45L221.26 341.81L221.48 341.18L221.71 340.56L221.96 339.95L222.22 339.34L222.5 338.74L222.79 338.14L223.1 337.56L223.42 336.98L223.76 336.41L224.11 335.85L224.48 335.3L224.86 334.76L225.26 334.23L225.66 333.71L226.09 333.2L226.52 332.7L226.98 332.21L227.44 331.73L227.92 331.26L228.41 330.81L228.91 330.36L229.42 329.93L229.95 329.51L230.49 329.11L231.04 328.72L231.6 328.34L232.18 327.98L232.77 327.63L260.75 311.45L270.76 328.79L250.21 340.66Z" id="cttd9yJmV"></path><path d="M419.99 402.09L419.96 402.77L419.92 403.45L419.86 404.12L419.78 404.79L419.68 405.46L419.56 406.12L419.43 406.77L419.28 407.43L419.12 408.07L418.93 408.71L418.74 409.35L418.52 409.98L418.29 410.6L418.04 411.21L417.78 411.82L417.5 412.42L417.21 413.02L416.9 413.6L416.58 414.18L416.24 414.75L415.89 415.31L415.52 415.86L415.14 416.4L414.74 416.93L414.34 417.45L413.91 417.96L413.48 418.46L413.02 418.95L412.56 419.43L412.08 419.9L411.59 420.35L411.09 420.8L410.58 421.23L410.05 421.64L409.51 422.05L408.96 422.44L408.4 422.82L407.82 423.18L407.23 423.53L332.77 466.58L332.17 466.91L331.57 467.23L330.96 467.53L330.35 467.81L329.73 468.07L329.1 468.32L328.47 468.55L327.84 468.77L327.2 468.96L326.56 469.14L325.91 469.31L325.26 469.45L324.61 469.58L323.96 469.69L323.3 469.79L322.64 469.86L321.98 469.92L321.32 469.97L320.66 469.99L320 470L319.34 469.99L318.68 469.97L318.02 469.92L317.36 469.86L316.7 469.79L316.04 469.69L315.39 469.58L314.74 469.45L314.09 469.31L313.44 469.14L312.8 468.96L312.16 468.77L311.53 468.55L310.9 468.32L310.27 468.07L309.65 467.81L309.04 467.53L308.43 467.23L307.83 466.91L307.23 466.58L232.77 423.53L232.18 423.18L231.6 422.82L231.04 422.44L230.49 422.05L229.95 421.64L229.42 421.23L228.91 420.8L228.41 420.35L227.92 419.9L227.44 419.43L226.98 418.95L226.52 418.46L226.09 417.96L225.66 417.45L225.26 416.93L224.86 416.4L224.48 415.86L224.11 415.31L223.76 414.75L223.42 414.18L223.1 413.6L222.79 413.02L222.5 412.42L222.22 411.82L221.96 411.21L221.71 410.6L221.48 409.98L221.26 409.35L221.07 408.71L220.88 408.07L220.72 407.43L220.57 406.77L220.44 406.12L220.32 405.46L220.22 404.79L220.14 404.12L220.08 403.45L220.04 402.77L220.01 402.09L220 401.41L220 385.22L240 385.22L240 392.8L240.01 393.34L240.03 393.89L240.07 394.43L240.12 394.97L240.18 395.5L240.26 396.03L240.35 396.56L240.46 397.09L240.57 397.61L240.71 398.13L240.85 398.64L241.01 399.15L241.18 399.65L241.37 400.15L241.57 400.64L241.77 401.13L242 401.61L242.23 402.08L242.48 402.55L242.74 403.01L243.01 403.47L243.29 403.92L243.58 404.36L243.89 404.79L244.2 405.21L244.53 405.63L244.87 406.04L245.22 406.44L245.58 406.83L245.95 407.22L246.33 407.59L246.72 407.95L247.13 408.31L247.54 408.65L247.96 408.99L248.39 409.31L248.83 409.62L249.28 409.93L249.74 410.22L250.21 410.5L309.79 444.93L310.26 445.2L310.75 445.45L311.23 445.69L311.72 445.92L312.22 446.13L312.72 446.33L313.22 446.51L313.73 446.68L314.24 446.84L314.76 446.99L315.27 447.12L315.79 447.23L316.31 447.33L316.84 447.42L317.36 447.5L317.89 447.56L318.41 447.61L318.94 447.64L319.47 447.66L320 447.67L320.53 447.66L321.06 447.64L321.59 447.61L322.11 447.56L322.64 447.5L323.16 447.42L323.69 447.33L324.21 447.23L324.73 447.12L325.24 446.99L325.76 446.84L326.27 446.68L326.78 446.51L327.28 446.33L327.78 446.13L328.28 445.92L328.77 445.69L329.25 445.45L329.74 445.2L330.21 444.93L389.79 410.5L390.26 410.22L390.72 409.93L391.17 409.62L391.61 409.31L392.04 408.99L392.46 408.65L392.87 408.31L393.28 407.95L393.67 407.59L394.05 407.22L394.42 406.83L394.78 406.44L395.13 406.04L395.47 405.63L395.8 405.21L396.11 404.79L396.42 404.36L396.71 403.92L396.99 403.47L397.26 403.01L397.52 402.55L397.77 402.08L398 401.61L398.23 401.13L398.43 400.64L398.63 400.15L398.82 399.65L398.99 399.15L399.15 398.64L399.29 398.13L399.43 397.61L399.54 397.09L399.65 396.56L399.74 396.03L399.82 395.5L399.88 394.97L399.93 394.43L399.97 393.89L399.99 393.34L400 392.8L400 385.22L420 385.22L420 401.41L419.99 402.09Z" id="d4OPe6irZN"></path><path d="M321.32 170.03L321.98 170.08L322.64 170.14L323.3 170.21L323.96 170.31L324.61 170.42L325.26 170.55L325.91 170.69L326.56 170.86L327.2 171.04L327.84 171.23L328.47 171.45L329.1 171.68L329.73 171.93L330.35 172.19L330.96 172.47L331.57 172.77L332.17 173.09L332.77 173.42L407.23 216.47L407.82 216.82L408.4 217.18L408.96 217.56L409.51 217.95L410.05 218.36L410.58 218.77L411.09 219.2L411.59 219.65L412.08 220.1L412.56 220.57L413.02 221.05L413.48 221.54L413.91 222.04L414.34 222.55L414.74 223.07L415.14 223.6L415.52 224.14L415.89 224.69L416.24 225.25L416.58 225.82L416.9 226.4L417.21 226.98L417.5 227.58L417.78 228.18L418.04 228.79L418.29 229.4L418.52 230.02L418.74 230.65L418.93 231.29L419.12 231.93L419.28 232.57L419.43 233.23L419.56 233.88L419.68 234.54L419.78 235.21L419.86 235.88L419.92 236.55L419.96 237.23L419.99 237.91L420 238.59L420 254.78L400 254.78L400 247.2L399.99 246.66L399.97 246.11L399.93 245.57L399.88 245.03L399.82 244.5L399.74 243.97L399.65 243.44L399.54 242.91L399.43 242.39L399.29 241.87L399.15 241.36L398.99 240.85L398.82 240.35L398.63 239.85L398.43 239.36L398.23 238.87L398 238.39L397.77 237.92L397.52 237.45L397.26 236.99L396.99 236.53L396.71 236.08L396.42 235.64L396.11 235.21L395.8 234.79L395.47 234.37L395.13 233.96L394.78 233.56L394.42 233.17L394.05 232.78L393.67 232.41L393.28 232.05L392.87 231.69L392.46 231.35L392.04 231.01L391.61 230.69L391.17 230.38L390.72 230.07L390.26 229.78L389.79 229.5L330.21 195.07L329.74 194.8L329.25 194.55L328.77 194.31L328.28 194.08L327.78 193.87L327.28 193.67L326.78 193.49L326.27 193.32L325.76 193.16L325.24 193.01L324.73 192.88L324.21 192.77L323.69 192.67L323.16 192.58L322.64 192.5L322.11 192.44L321.59 192.39L321.06 192.36L320.53 192.34L320 192.33L319.47 192.34L318.94 192.36L318.41 192.39L317.89 192.44L317.36 192.5L316.84 192.58L316.31 192.67L315.79 192.77L315.27 192.88L314.76 193.01L314.24 193.16L313.73 193.32L313.22 193.49L312.72 193.67L312.22 193.87L311.72 194.08L311.23 194.31L310.75 194.55L310.26 194.8L309.79 195.07L250.21 229.5L249.74 229.78L249.28 230.07L248.83 230.38L248.39 230.69L247.96 231.01L247.54 231.35L247.13 231.69L246.72 232.05L246.33 232.41L245.95 232.78L245.58 233.17L245.22 233.56L244.87 233.96L244.53 234.37L244.2 234.79L243.89 235.21L243.58 235.64L243.29 236.08L243.01 236.53L242.74 236.99L242.48 237.45L242.23 237.92L242 238.39L241.77 238.87L241.57 239.36L241.37 239.85L241.18 240.35L241.01 240.85L240.85 241.36L240.71 241.87L240.57 242.39L240.46 242.91L240.35 243.44L240.26 243.97L240.18 244.5L240.12 245.03L240.07 245.57L240.03 246.11L240.01 246.66L240 247.2L240 254.78L220 254.78L220 238.59L220.01 237.91L220.04 237.23L220.08 236.55L220.14 235.88L220.22 235.21L220.32 234.54L220.44 233.88L220.57 233.23L220.72 232.57L220.88 231.93L221.07 231.29L221.26 230.65L221.48 230.02L221.71 229.4L221.96 228.79L222.22 228.18L222.5 227.58L222.79 226.98L223.1 226.4L223.42 225.82L223.76 225.25L224.11 224.69L224.48 224.14L224.86 223.6L225.26 223.07L225.66 222.55L226.09 222.04L226.52 221.54L226.98 221.05L227.44 220.57L227.92 220.1L228.41 219.65L228.91 219.2L229.42 218.77L229.95 218.36L230.49 217.95L231.04 217.56L231.6 217.18L232.18 216.82L232.77 216.47L307.23 173.42L307.83 173.09L308.43 172.77L309.04 172.47L309.65 172.19L310.27 171.93L310.9 171.68L311.53 171.45L312.16 171.23L312.8 171.04L313.44 170.86L314.09 170.69L314.74 170.55L315.39 170.42L316.04 170.31L316.7 170.21L317.36 170.14L318.02 170.08L318.68 170.03L319.34 170.01L320 170L320.66 170.01L321.32 170.03Z" id="a11jGmMpGD"></path><path d="M240.01 282.18L240.03 282.73L240.07 283.27L240.12 283.81L240.18 284.34L240.26 284.88L240.35 285.4L240.46 285.93L240.57 286.45L240.71 286.97L240.85 287.48L241.01 287.99L241.18 288.49L241.37 288.99L241.57 289.48L241.77 289.97L242 290.45L242.23 290.92L242.48 291.39L242.74 291.85L243.01 292.31L243.29 292.76L243.58 293.2L243.89 293.63L244.2 294.06L244.53 294.47L244.87 294.88L245.22 295.28L245.58 295.67L245.95 296.06L246.33 296.43L246.72 296.79L247.13 297.15L247.54 297.49L247.96 297.83L248.39 298.15L248.83 298.46L249.28 298.77L249.74 299.06L250.21 299.34L271.13 311.43L261.12 328.76L231.04 311.38L230.54 311.07L230.04 310.76L229.55 310.43L229.07 310.09L228.61 309.74L228.15 309.38L227.71 309.01L227.27 308.63L226.85 308.23L226.43 307.83L226.03 307.42L225.64 306.99L225.27 306.56L224.9 306.12L224.55 305.67L224.2 305.21L223.87 304.74L223.56 304.26L223.25 303.78L222.96 303.29L222.68 302.79L222.41 302.28L222.16 301.77L221.92 301.25L221.69 300.72L221.48 300.19L221.28 299.65L221.09 299.11L220.92 298.56L220.76 298L220.62 297.44L220.49 296.88L220.38 296.31L220.28 295.74L220.19 295.16L220.12 294.59L220.07 294L220.03 293.42L220.01 292.83L220 292.24L220 274.06L240 274.06L240 281.64L240.01 282.18ZM419.99 290.93L419.96 291.61L419.92 292.29L419.86 292.96L419.78 293.63L419.68 294.3L419.56 294.96L419.43 295.61L419.28 296.27L419.12 296.91L418.93 297.55L418.74 298.19L418.52 298.82L418.29 299.44L418.04 300.05L417.78 300.66L417.5 301.26L417.21 301.86L416.9 302.44L416.58 303.02L416.24 303.59L415.89 304.15L415.52 304.7L415.14 305.24L414.74 305.77L414.34 306.29L413.91 306.8L413.48 307.3L413.02 307.79L412.56 308.27L412.08 308.74L411.59 309.19L411.09 309.64L410.58 310.07L410.05 310.49L409.51 310.89L408.96 311.28L408.4 311.66L407.82 312.02L407.23 312.37L378.93 328.74L368.92 311.4L389.79 299.34L390.26 299.06L390.72 298.77L391.17 298.46L391.61 298.15L392.04 297.83L392.46 297.49L392.87 297.15L393.28 296.79L393.67 296.43L394.05 296.06L394.42 295.67L394.78 295.28L395.13 294.88L395.47 294.47L395.8 294.06L396.11 293.63L396.42 293.2L396.71 292.76L396.99 292.31L397.26 291.85L397.52 291.39L397.77 290.92L398 290.45L398.23 289.97L398.43 289.48L398.63 288.99L398.82 288.49L398.99 287.99L399.15 287.48L399.29 286.97L399.43 286.45L399.54 285.93L399.65 285.4L399.74 284.88L399.82 284.34L399.88 283.81L399.93 283.27L399.97 282.73L399.99 282.18L400 281.64L400 274.06L420 274.06L420 290.25L419.99 290.93Z" id="f3f15qDGwl"></path><path d="M220 355.86L240 355.86L240 392.38L220 392.38L220 355.86Z" id="a1aso2PWZ"></path><path d="M400 281.16L420 281.16L420 244.64L400 244.64L400 281.16Z" id="b4w2OPAgS"></path><path d="M400 395.36L420 395.36L420 358.84L400 358.84L400 395.36Z" id="d7y6o1af"></path><path d="M220 248.14L240 248.14L240 284.66L220 284.66L220 248.14Z" id="c1XaNZYm"></path><path d="M275.58 320C275.58 325.52 271.1 330 265.58 330C260.06 330 255.58 325.52 255.58 320C255.58 314.48 260.06 310 265.58 310C271.1 310 275.58 314.48 275.58 320Z" id="a1YQTEF5Jb"></path><path d="M383.75 320C383.75 325.52 379.27 330 373.75 330C368.23 330 363.75 325.52 363.75 320C363.75 314.48 368.23 310 373.75 310C379.27 310 383.75 314.48 383.75 320Z" id="b32Ag268s"></path><path d="M268.17 310L375.83 310L375.83 330L268.17 330L268.17 310Z" id="b5V2xKswKF"></path></defs><g><g><g><use xlink:href="#cttd9yJmV" opacity="1" fill="#000000" fill-opacity="1"></use></g><g><use xlink:href="#d4OPe6irZN" opacity="1" fill="#000000" fill-opacity="1"></use></g><g><use xlink:href="#a11jGmMpGD" opacity="1" fill="#000000" fill-opacity="1"></use></g><g><use xlink:href="#f3f15qDGwl" opacity="1" fill="#000000" fill-opacity="1"></use></g><g><use xlink:href="#a1aso2PWZ" opacity="1" fill="#000000" fill-opacity="1"></use></g><g><use xlink:href="#b4w2OPAgS" opacity="1" fill="#000000" fill-opacity="1"></use></g><g><use xlink:href="#d7y6o1af" opacity="1" fill="#000000" fill-opacity="1"></use></g><g><use xlink:href="#c1XaNZYm" opacity="1" fill="#000000" fill-opacity="1"></use></g><g><use xlink:href="#a1YQTEF5Jb" opacity="1" fill="#000000" fill-opacity="1"></use></g><g><use xlink:href="#b32Ag268s" opacity="1" fill="#000000" fill-opacity="1"></use></g><g><use xlink:href="#b5V2xKswKF" opacity="1" fill="#000000" fill-opacity="1"></use></g></g></g></svg>