<?xml version="1.0" encoding="UTF-8" standalone="no"?>
<!DOCTYPE svg PUBLIC "-//W3C//DTD SVG 1.1//EN" "http://www.w3.org/Graphics/SVG/1.1/DTD/svg11.dtd">
<svg version="1.1" xmlns="http://www.w3.org/2000/svg" xmlns:xlink="http://www.w3.org/1999/xlink" preserveAspectRatio="xMidYMid meet" viewBox="0 0 640 640" width="640" height="640"><defs><path d="M644.66 145.89L583 99.51L511.93 129.71L502.51 206.29L564.17 252.67L635.25 222.47L644.66 145.89Z" id="d2By0NXRs"></path><path d="M511.93 129.59L450.27 83.21L379.19 113.41L369.78 189.99L431.44 236.37L502.51 206.17L511.93 129.59Z" id="i1pgfewQTc"></path><path d="M564.25 252.54L502.59 206.16L431.52 236.36L422.1 312.94L483.76 359.32L554.84 329.12L564.25 252.54Z" id="a2AdcAsR1o"></path><path d="M483.81 359.24L422.15 312.85L351.08 343.05L341.66 419.63L403.32 466.02L474.4 435.82L483.81 359.24Z" id="bcpNPQDUb"></path><path d="M218.22 326.99L156.56 280.61L85.49 310.81L76.07 387.39L137.73 433.77L208.81 403.57L218.22 326.99Z" id="acXzk4qly"></path><path d="M431.47 236.19L369.81 189.81L298.74 220.01L289.32 296.59L350.98 342.97L422.06 312.77L431.47 236.19Z" id="cywpkfQna"></path><path d="M536.03 482.42L474.37 436.04L403.29 466.24L393.88 542.82L455.54 589.2L526.61 559L536.03 482.42Z" id="a519TI6we"></path><path d="M403.24 466.12L341.58 419.74L270.51 449.94L261.09 526.52L322.75 572.9L393.83 542.7L403.24 466.12Z" id="aVkKaeA3"></path><path d="M298.6 220.38L236.94 174L165.86 204.2L156.45 280.78L218.11 327.16L289.18 296.96L298.6 220.38Z" id="fV0ubvCtP"></path><path d="M350.96 343.29L289.3 296.9L218.22 327.1L208.8 403.68L270.47 450.07L341.54 419.87L350.96 343.29Z" id="b1506lKygO"></path><path d="M165.86 204.08L104.2 157.7L33.13 187.9L23.71 264.48L85.37 310.86L156.45 280.66L165.86 204.08Z" id="b2F9dugSP"></path><path d="M85.37 310.68L23.71 264.29L-47.37 294.49L-56.78 371.07L4.88 417.46L75.95 387.26L85.37 310.68Z" id="bI1taRsFs"></path><path d="M137.75 433.73L76.09 387.35L5.01 417.55L-4.4 494.13L57.26 540.51L128.33 510.31L137.75 433.73Z" id="a450zBjkB8"></path><path d="M668.68 498.92L607.02 452.54L535.95 482.74L526.53 559.32L588.19 605.7L659.27 575.5L668.68 498.92Z" id="a2lvQfYcUr"></path><path d="M379.2 113.29L317.54 66.91L246.46 97.11L237.04 173.69L298.7 220.07L369.78 189.87L379.2 113.29Z" id="a1ghmXcXFL"></path><path d="M246.34 96.84L184.59 50.59L113.57 80.94L104.32 157.54L166.08 203.79L237.09 173.44L246.34 96.84Z" id="essctY4m"></path><path d="M777.4 162.19L715.74 115.8L644.66 146L635.25 222.58L696.91 268.97L767.98 238.77L777.4 162.19Z" id="c1vSwY7lP"></path><path d="M113.61 80.68L51.95 34.3L-19.13 64.5L-28.54 141.08L33.12 187.46L104.19 157.26L113.61 80.68Z" id="a3Kslqu2os"></path><path d="M696.88 269.28L635.22 222.9L564.14 253.1L554.73 329.68L616.39 376.06L687.46 345.86L696.88 269.28Z" id="aP5wSkPb2"></path><path d="M32.96 187.62L-28.8 141.37L-99.81 171.72L-109.07 248.32L-47.31 294.57L23.7 264.22L32.96 187.62Z" id="aOOW94Dqy"></path><path d="M616.42 375.88L554.76 329.5L483.69 359.7L474.27 436.28L535.93 482.66L607.01 452.46L616.42 375.88Z" id="aLLKGUqG7"></path><path d="M4.75 417.4L-56.91 371.02L-127.98 401.22L-137.4 477.8L-75.74 524.18L-4.66 493.98L4.75 417.4Z" id="a79fDtGt3"></path><path d="M270.43 450.02L208.77 403.64L137.69 433.84L128.28 510.42L189.94 556.8L261.01 526.6L270.43 450.02Z" id="d1rG6bK09I"></path><path d="M749.16 392.18L687.5 345.8L616.42 376L607.01 452.58L668.67 498.96L739.74 468.76L749.16 392.18Z" id="a5GMMokGM"></path><path d="M0 0L640 0L640 640L0 640L0 0Z" id="i1lXKIG7TX"></path></defs><g><g><g><use xlink:href="#d2By0NXRs" opacity="1" fill="#ff0000" fill-opacity="1"></use></g><g><use xlink:href="#i1pgfewQTc" opacity="1" fill="#00ff00" fill-opacity="1"></use></g><g><use xlink:href="#a2AdcAsR1o" opacity="1" fill="#ffff00" fill-opacity="1"></use></g><g><use xlink:href="#bcpNPQDUb" opacity="1" fill="#ff00ff" fill-opacity="1"></use></g><g><use xlink:href="#acXzk4qly" opacity="1" fill="#00ffff" fill-opacity="1"></use></g><g><use xlink:href="#cywpkfQna" opacity="1" fill="#ff0000" fill-opacity="1"></use></g><g><use xlink:href="#a519TI6we" opacity="1" fill="#ffff00" fill-opacity="1"></use></g><g><use xlink:href="#aVkKaeA3" opacity="1" fill="#00ff00" fill-opacity="1"></use></g><g><use xlink:href="#fV0ubvCtP" opacity="1" fill="#ff00ff" fill-opacity="1"></use></g><g><use xlink:href="#b1506lKygO" opacity="1" fill="#0000ff" fill-opacity="1"></use></g><g><use xlink:href="#b2F9dugSP" opacity="1" fill="#00ff00" fill-opacity="1"></use></g><g><use xlink:href="#bI1taRsFs" opacity="1" fill="#ffff00" fill-opacity="1"></use></g><g><use xlink:href="#a450zBjkB8" opacity="1" fill="#ff00ff" fill-opacity="1"></use></g><g><use xlink:href="#a2lvQfYcUr" opacity="1" fill="#00ffff" fill-opacity="1"></use></g><g><use xlink:href="#a1ghmXcXFL" opacity="1" fill="#ffff00" fill-opacity="1"></use></g><g><use xlink:href="#essctY4m" opacity="1" fill="#00ffff" fill-opacity="1"></use></g><g><use xlink:href="#c1vSwY7lP" opacity="1" fill="#ff00ff" fill-opacity="1"></use></g><g><use xlink:href="#a3Kslqu2os" opacity="1" fill="#0000ff" fill-opacity="1"></use></g><g><use xlink:href="#aP5wSkPb2" opacity="1" fill="#0000ff" fill-opacity="1"></use></g><g><use xlink:href="#aOOW94Dqy" opacity="1" fill="#00ffff" fill-opacity="1"></use></g><g><use xlink:href="#aLLKGUqG7" opacity="1" fill="#00ff00" fill-opacity="1"></use></g><g><use xlink:href="#a79fDtGt3" opacity="1" fill="#0000ff" fill-opacity="1"></use></g><g><use xlink:href="#d1rG6bK09I" opacity="1" fill="#ff0000" fill-opacity="1"></use></g><g><use xlink:href="#a5GMMokGM" opacity="1" fill="#ff0000" fill-opacity="1"></use></g><g><use xlink:href="#i1lXKIG7TX" opacity="1" fill="#ffffff" fill-opacity="0.7"></use></g></g></g></svg>