<?xml version="1.0" encoding="UTF-8" standalone="no"?>
<!DOCTYPE svg PUBLIC "-//W3C//DTD SVG 1.1//EN" "http://www.w3.org/Graphics/SVG/1.1/DTD/svg11.dtd">
<svg version="1.1" xmlns="http://www.w3.org/2000/svg" xmlns:xlink="http://www.w3.org/1999/xlink" preserveAspectRatio="xMidYMid meet" viewBox="0 0 640 640" width="640" height="640"><defs><path d="M49.95 287.95C38.57 307.7 38.58 332.01 49.97 351.75C75.16 395.37 132.31 494.36 157.49 537.98C168.89 557.72 189.94 569.88 212.73 569.89C263.05 569.92 377.2 569.97 427.52 570C450.31 570.01 471.36 557.86 482.74 538.12C507.88 494.52 564.91 395.64 590.05 352.05C601.43 332.3 601.42 307.99 590.03 288.25C564.84 244.63 507.69 145.64 482.51 102.02C471.11 82.28 450.06 70.12 427.27 70.11C376.95 70.08 262.8 70.03 212.48 70C189.69 69.99 168.64 82.14 157.26 101.88C132.12 145.48 75.09 244.36 49.95 287.95Z" id="n1tIqfzzm0"></path><path d="M436.37 289.19L437.68 289.33L438.98 289.52L440.25 289.77L441.51 290.07L442.75 290.42L443.96 290.82L445.15 291.27L446.32 291.76L447.46 292.3L448.58 292.89L449.67 293.52L450.73 294.19L451.76 294.9L452.76 295.65L453.73 296.44L454.67 297.27L455.57 298.14L456.44 299.04L457.26 299.98L458.06 300.94L458.81 301.94L459.52 302.98L460.19 304.04L460.82 305.13L461.41 306.24L461.95 307.39L462.44 308.56L462.89 309.75L463.29 310.96L463.64 312.2L463.94 313.45L464.18 314.73L464.38 316.02L464.52 317.33L464.6 318.66L464.63 320L464.6 321.34L464.52 322.67L464.38 323.98L464.18 325.27L463.94 326.55L463.64 327.8L463.29 329.04L462.89 330.25L462.44 331.44L461.95 332.61L461.41 333.76L460.82 334.87L460.19 335.96L459.52 337.02L458.81 338.06L458.06 339.06L457.26 340.02L456.44 340.96L455.57 341.86L454.67 342.73L453.73 343.56L452.76 344.35L451.76 345.1L450.73 345.81L449.67 346.48L448.58 347.11L447.46 347.7L446.32 348.24L445.15 348.73L443.96 349.18L442.75 349.58L441.51 349.93L440.25 350.23L438.98 350.47L437.68 350.67L436.37 350.81L435.05 350.89L433.71 350.92L433.71 350.92L325.3 350.92L325.3 401.21L325.27 402.33L325.18 403.42L325.03 404.49L324.82 405.53L324.55 406.54L324.23 407.53L323.86 408.48L323.45 409.41L322.98 410.3L322.47 411.16L321.91 411.99L321.32 412.78L320.68 413.53L320.01 414.25L319.3 414.93L318.56 415.57L317.79 416.18L316.99 416.74L316.16 417.25L315.31 417.73L314.43 418.16L313.53 418.55L312.61 418.89L311.68 419.18L310.73 419.42L309.77 419.62L308.79 419.76L307.81 419.85L306.82 419.89L305.83 419.87L304.83 419.8L303.83 419.68L302.83 419.5L301.84 419.26L300.84 418.96L299.86 418.6L298.89 418.18L297.92 417.69L296.97 417.15L296.04 416.54L270.28 398.69L211.75 358.13L185.99 340.28L184.95 339.52L183.97 338.73L183.04 337.89L182.17 337.02L181.34 336.12L180.57 335.19L179.86 334.22L179.19 333.23L178.58 332.22L178.02 331.18L177.52 330.12L177.07 329.04L176.67 327.95L176.32 326.84L176.03 325.72L175.79 324.59L175.61 323.45L175.48 322.3L175.4 321.15L175.37 320L175.4 318.85L175.48 317.69L175.61 316.55L175.79 315.41L176.03 314.28L176.32 313.15L176.67 312.05L177.07 310.95L177.52 309.87L178.02 308.82L178.58 307.78L179.19 306.76L179.86 305.77L180.57 304.81L181.34 303.88L182.17 302.97L183.04 302.1L183.97 301.27L184.95 300.47L185.99 299.72L211.75 281.87L270.28 241.31L296.04 223.46L296.97 222.85L297.92 222.31L298.89 221.82L299.86 221.4L300.84 221.04L301.83 220.74L302.83 220.5L303.83 220.32L304.83 220.2L305.83 220.13L306.82 220.11L307.81 220.15L308.79 220.24L309.77 220.38L310.73 220.58L311.68 220.82L312.61 221.11L313.53 221.45L314.43 221.84L315.31 222.27L316.16 222.75L316.99 223.26L317.79 223.82L318.56 224.43L319.3 225.07L320.01 225.75L320.68 226.47L321.32 227.22L321.91 228.02L322.47 228.84L322.98 229.7L323.45 230.59L323.86 231.52L324.23 232.47L324.55 233.46L324.82 234.47L325.03 235.51L325.18 236.58L325.27 237.67L325.3 238.79L325.3 289.08L433.71 289.08L433.71 289.08L435.05 289.11L436.37 289.19Z" id="ertuevQh"></path></defs><g><g><g><g><filter id="shadow8379649" x="17.92" y="46.5" width="616.66" height="559.5" filterUnits="userSpaceOnUse" primitiveUnits="userSpaceOnUse"><feFlood></feFlood><feComposite in2="SourceAlpha" operator="in"></feComposite><feGaussianBlur stdDeviation="1.58"></feGaussianBlur><feOffset dx="12.5" dy="12.5" result="afterOffset"></feOffset><feFlood flood-color="#000000" flood-opacity="0.75"></feFlood><feComposite in2="afterOffset" operator="in"></feComposite><feMorphology operator="dilate" radius="1"></feMorphology><feComposite in2="SourceAlpha" operator="out"></feComposite></filter><path d="M49.95 287.95C38.57 307.7 38.58 332.01 49.97 351.75C75.16 395.37 132.31 494.36 157.49 537.98C168.89 557.72 189.94 569.88 212.73 569.89C263.05 569.92 377.2 569.97 427.52 570C450.31 570.01 471.36 557.86 482.74 538.12C507.88 494.52 564.91 395.64 590.05 352.05C601.43 332.3 601.42 307.99 590.03 288.25C564.84 244.63 507.69 145.64 482.51 102.02C471.11 82.28 450.06 70.12 427.27 70.11C376.95 70.08 262.8 70.03 212.48 70C189.69 69.99 168.64 82.14 157.26 101.88C132.12 145.48 75.09 244.36 49.95 287.95Z" id="aAv4Kdggk" fill="white" fill-opacity="1" filter="url(#shadow8379649)"></path></g><use xlink:href="#n1tIqfzzm0" opacity="1" fill="#5f5e5e" fill-opacity="1"></use></g><g><g><filter id="shadow4520729" x="154.37" y="199.11" width="341.26" height="251.78" filterUnits="userSpaceOnUse" primitiveUnits="userSpaceOnUse"><feFlood></feFlood><feComposite in2="SourceAlpha" operator="in"></feComposite><feGaussianBlur stdDeviation="1.58"></feGaussianBlur><feOffset dx="10" dy="10" result="afterOffset"></feOffset><feFlood flood-color="#000000" flood-opacity="0.5"></feFlood><feComposite in2="afterOffset" operator="in"></feComposite><feMorphology operator="dilate" radius="1"></feMorphology><feComposite in2="SourceAlpha" operator="out"></feComposite></filter><path d="M436.37 289.19L437.68 289.33L438.98 289.52L440.25 289.77L441.51 290.07L442.75 290.42L443.96 290.82L445.15 291.27L446.32 291.76L447.46 292.3L448.58 292.89L449.67 293.52L450.73 294.19L451.76 294.9L452.76 295.65L453.73 296.44L454.67 297.27L455.57 298.14L456.44 299.04L457.26 299.98L458.06 300.94L458.81 301.94L459.52 302.98L460.19 304.04L460.82 305.13L461.41 306.24L461.95 307.39L462.44 308.56L462.89 309.75L463.29 310.96L463.64 312.2L463.94 313.45L464.18 314.73L464.38 316.02L464.52 317.33L464.6 318.66L464.63 320L464.6 321.34L464.52 322.67L464.38 323.98L464.18 325.27L463.94 326.55L463.64 327.8L463.29 329.04L462.89 330.25L462.44 331.44L461.95 332.61L461.41 333.76L460.82 334.87L460.19 335.96L459.52 337.02L458.81 338.06L458.06 339.06L457.26 340.02L456.44 340.96L455.57 341.86L454.67 342.73L453.73 343.56L452.76 344.35L451.76 345.1L450.73 345.81L449.67 346.48L448.58 347.11L447.46 347.7L446.32 348.24L445.15 348.73L443.96 349.18L442.75 349.58L441.51 349.93L440.25 350.23L438.98 350.47L437.68 350.67L436.37 350.81L435.05 350.89L433.71 350.92L433.71 350.92L325.3 350.92L325.3 401.21L325.27 402.33L325.18 403.42L325.03 404.49L324.82 405.53L324.55 406.54L324.23 407.53L323.86 408.48L323.45 409.41L322.98 410.3L322.47 411.16L321.91 411.99L321.32 412.78L320.68 413.53L320.01 414.25L319.3 414.93L318.56 415.57L317.79 416.18L316.99 416.74L316.16 417.25L315.31 417.73L314.43 418.16L313.53 418.55L312.61 418.89L311.68 419.18L310.73 419.42L309.77 419.62L308.79 419.76L307.81 419.85L306.82 419.89L305.83 419.87L304.83 419.8L303.83 419.68L302.83 419.5L301.84 419.26L300.84 418.96L299.86 418.6L298.89 418.18L297.92 417.69L296.97 417.15L296.04 416.54L270.28 398.69L211.75 358.13L185.99 340.28L184.95 339.52L183.97 338.73L183.04 337.89L182.17 337.02L181.34 336.12L180.57 335.19L179.86 334.22L179.19 333.23L178.58 332.22L178.02 331.18L177.52 330.12L177.07 329.04L176.67 327.95L176.32 326.84L176.03 325.72L175.79 324.59L175.61 323.45L175.48 322.3L175.4 321.15L175.37 320L175.4 318.85L175.48 317.69L175.61 316.55L175.79 315.41L176.03 314.28L176.32 313.15L176.67 312.05L177.07 310.95L177.52 309.87L178.02 308.82L178.58 307.78L179.19 306.76L179.86 305.77L180.57 304.81L181.34 303.88L182.17 302.97L183.04 302.1L183.97 301.27L184.95 300.47L185.99 299.72L211.75 281.87L270.28 241.31L296.04 223.46L296.97 222.85L297.92 222.31L298.89 221.82L299.86 221.4L300.84 221.04L301.83 220.74L302.83 220.5L303.83 220.32L304.83 220.2L305.83 220.13L306.82 220.11L307.81 220.15L308.79 220.24L309.77 220.38L310.73 220.58L311.68 220.82L312.61 221.11L313.53 221.45L314.43 221.84L315.31 222.27L316.16 222.75L316.99 223.26L317.79 223.82L318.56 224.43L319.3 225.07L320.01 225.75L320.68 226.47L321.32 227.22L321.91 228.02L322.47 228.84L322.98 229.7L323.45 230.59L323.86 231.52L324.23 232.47L324.55 233.46L324.82 234.47L325.03 235.51L325.18 236.58L325.27 237.67L325.3 238.79L325.3 289.08L433.71 289.08L433.71 289.08L435.05 289.11L436.37 289.19Z" id="b5Xo2W7qt5" fill="white" fill-opacity="1" filter="url(#shadow4520729)"></path></g><use xlink:href="#ertuevQh" opacity="1" fill="#ffffff" fill-opacity="1"></use></g></g></g></svg>