<?xml version="1.0" encoding="UTF-8" standalone="no"?>
<!DOCTYPE svg PUBLIC "-//W3C//DTD SVG 1.1//EN" "http://www.w3.org/Graphics/SVG/1.1/DTD/svg11.dtd">
<svg version="1.1" xmlns="http://www.w3.org/2000/svg" xmlns:xlink="http://www.w3.org/1999/xlink" preserveAspectRatio="xMidYMid meet" viewBox="0 0 640 640" width="640" height="640"><defs><path d="M9.8 283.19C-3.27 305.87 -3.27 333.8 9.82 356.47C38.75 406.58 104.4 520.28 133.33 570.4C146.42 593.07 170.6 607.04 196.78 607.05C254.59 607.08 385.7 607.15 443.51 607.17C469.68 607.19 493.87 593.22 506.94 570.55C535.82 520.48 601.32 406.89 630.2 356.81C643.27 334.13 643.27 306.2 630.18 283.53C601.25 233.42 535.6 119.72 506.67 69.6C493.58 46.93 469.4 32.96 443.22 32.95C385.41 32.92 254.3 32.85 196.49 32.83C170.32 32.81 146.13 46.78 133.06 69.45C104.18 119.52 38.68 233.11 9.8 283.19Z" id="e1wuZyCJQD"></path><path d="M453.53 284.6L454.96 284.74L456.37 284.94L457.77 285.2L459.15 285.51L460.5 285.88L461.84 286.29L463.15 286.76L464.43 287.27L465.7 287.84L466.93 288.45L468.14 289.1L469.32 289.8L470.47 290.55L471.59 291.34L472.67 292.16L473.73 293.03L474.74 293.94L475.73 294.89L476.67 295.87L477.58 296.89L478.45 297.94L479.28 299.03L480.07 300.15L480.81 301.29L481.51 302.47L482.17 303.68L482.78 304.92L483.34 306.18L483.86 307.47L484.32 308.78L484.74 310.11L485.1 311.47L485.41 312.84L485.67 314.24L485.87 315.66L486.02 317.09L486.11 318.54L486.14 320L486.11 321.46L486.02 322.91L485.87 324.34L485.67 325.76L485.41 327.15L485.1 328.53L484.74 329.89L484.32 331.22L483.86 332.53L483.34 333.82L482.78 335.08L482.17 336.32L481.51 337.53L480.81 338.71L480.07 339.85L479.28 340.97L478.45 342.06L477.58 343.11L476.67 344.13L475.73 345.11L474.74 346.06L473.73 346.97L472.67 347.84L471.59 348.66L470.47 349.45L469.32 350.2L468.14 350.9L466.93 351.55L465.7 352.16L464.43 352.73L463.15 353.24L461.84 353.71L460.5 354.12L459.15 354.49L457.77 354.8L456.37 355.06L454.96 355.26L453.53 355.4L452.08 355.49L450.61 355.52L326.09 355.52L326.09 413.29L326.05 414.57L325.95 415.83L325.77 417.05L325.53 418.25L325.23 419.41L324.86 420.54L324.44 421.64L323.96 422.7L323.42 423.73L322.84 424.71L322.2 425.66L321.51 426.57L320.78 427.44L320.01 428.27L319.2 429.05L318.35 429.79L317.46 430.48L316.54 431.12L315.59 431.72L314.61 432.26L313.6 432.76L312.57 433.2L311.52 433.59L310.44 433.93L309.35 434.21L308.25 434.43L307.13 434.59L306 434.7L304.86 434.74L303.72 434.73L302.57 434.65L301.42 434.5L300.28 434.29L299.13 434.02L298 433.67L296.87 433.26L295.75 432.78L294.64 432.22L293.55 431.59L292.47 430.89L262.89 410.39L195.65 363.8L166.06 343.29L164.87 342.42L163.75 341.51L162.68 340.55L161.67 339.55L160.73 338.52L159.84 337.45L159.02 336.34L158.26 335.2L157.55 334.04L156.91 332.84L156.33 331.63L155.82 330.39L155.36 329.13L154.96 327.86L154.63 326.57L154.35 325.27L154.14 323.96L153.99 322.64L153.9 321.32L153.86 320L153.9 318.67L153.99 317.35L154.14 316.04L154.35 314.73L154.63 313.43L154.96 312.14L155.36 310.86L155.82 309.61L156.33 308.37L156.91 307.15L157.55 305.96L158.26 304.79L159.02 303.66L159.84 302.55L160.73 301.48L161.67 300.44L162.68 299.44L163.75 298.49L164.87 297.57L166.06 296.7L195.65 276.2L262.89 229.61L292.47 209.11L293.55 208.41L294.64 207.78L295.75 207.22L296.87 206.74L298 206.33L299.13 205.98L300.28 205.71L301.42 205.5L302.57 205.35L303.72 205.27L304.86 205.26L306 205.3L307.13 205.41L308.25 205.57L309.35 205.79L310.44 206.07L311.52 206.41L312.57 206.8L313.6 207.24L314.61 207.74L315.59 208.28L316.54 208.88L317.46 209.52L318.35 210.21L319.2 210.95L320.01 211.73L320.78 212.56L321.51 213.43L322.2 214.34L322.84 215.29L323.42 216.27L323.96 217.3L324.44 218.36L324.86 219.46L325.23 220.59L325.53 221.75L325.77 222.95L325.95 224.17L326.05 225.43L326.09 226.71L326.09 284.48L450.61 284.48L452.08 284.51L453.53 284.6Z" id="a1FiGwl5v0"></path></defs><g><g><g><use xlink:href="#e1wuZyCJQD" opacity="1" fill="#5f5e5e" fill-opacity="1"></use></g><g><use xlink:href="#a1FiGwl5v0" opacity="1" fill="#ffffff" fill-opacity="1"></use></g></g></g></svg>