<?xml version="1.0" encoding="UTF-8" standalone="no"?>
<!DOCTYPE svg PUBLIC "-//W3C//DTD SVG 1.1//EN" "http://www.w3.org/Graphics/SVG/1.1/DTD/svg11.dtd">
<svg version="1.1" xmlns="http://www.w3.org/2000/svg" xmlns:xlink="http://www.w3.org/1999/xlink" preserveAspectRatio="xMidYMid meet" viewBox="0 0 640 640" width="640" height="640"><defs><path d="M629.18 150.91C660.1 96.82 621.05 29.51 558.75 29.51C511 29.51 507.59 29.51 459.83 29.51C459.83 29.51 180.15 29.51 180.15 29.51C132.4 29.51 129 29.51 81.25 29.51C18.95 29.51 -20.1 96.82 10.82 150.91C34.79 192.84 37.3 197.23 61.28 239.16C61.28 239.16 200.1 481.96 200.1 481.96C224.08 523.89 226.6 528.29 250.58 570.22C281.28 623.91 358.71 623.91 389.41 570.22C413.39 528.29 415.91 523.89 439.88 481.96C439.88 481.96 578.72 239.17 578.72 239.17C602.69 197.23 605.2 192.84 629.18 150.91Z" id="aV13D2jba"></path></defs><g><g><g><use xlink:href="#aV13D2jba" opacity="1" fill="#5f5e5e" fill-opacity="1"></use></g></g></g></svg>