<svg id="Layer_1" data-name="Layer 1" xmlns="http://www.w3.org/2000/svg" viewBox="0 0 453 294"><defs><style>.cls-1{fill:#5f5e5e;}.cls-2{fill:none;stroke:#5f5e5e;stroke-linejoin:round;stroke-width:35px;}</style></defs><path class="cls-1" d="M412.28,35A5.73,5.73,0,0,1,418,40.72V254.28a5.73,5.73,0,0,1-5.72,5.72H40.72A5.73,5.73,0,0,1,35,254.28V40.72A5.73,5.73,0,0,1,40.72,35H412.28m0-35H40.72A40.72,40.72,0,0,0,0,40.72V254.28A40.72,40.72,0,0,0,40.72,295H412.28A40.72,40.72,0,0,0,453,254.28V40.72A40.72,40.72,0,0,0,412.28,0Z"/><polyline class="cls-2" points="31 24 227 175 421 25"/><line class="cls-2" x1="263" y1="147" x2="416" y2="266"/><line class="cls-2" x1="19" y1="280" x2="191" y2="148"/></svg>