<svg id="Layer_1" data-name="Layer 1" xmlns="http://www.w3.org/2000/svg" viewBox="0 0 412.9 640"><defs><style>.cls-1{fill:#5f5e5e;}.cls-2{fill:#fff;}</style></defs><title>Hourglass2</title><path id="b5jdQ4n9q" class="cls-1" d="M374.07,320"/><path id="c4l2zTtM9J" class="cls-1" d="M38.83,320"/><path class="cls-1" d="M0,51.61A51.76,51.76,0,0,1,51.61,0H361.29A51.76,51.76,0,0,1,412.9,51.61v61.94c0,28.39-17.41,67-38.7,85.76l-98.08,86.54c-21.29,18.78-21.29,49.52,0,68.3l98.08,86.54c21.29,18.78,38.7,57.37,38.7,85.76v61.94A51.76,51.76,0,0,1,361.29,640H51.61A51.76,51.76,0,0,1,0,588.39V526.45c0-28.39,17.41-67,38.7-85.76l98.08-86.54c21.29-18.78,21.29-49.52,0-68.3L38.7,199.31C17.41,180.53,0,141.94,0,113.55Z"/><path class="cls-2" d="M63.26,588.39H349.64c13.42,0,19.73-16.59,9.69-25.51L216.15,435.63a14.59,14.59,0,0,0-19.4,0L53.57,562.88C43.53,571.8,49.84,588.39,63.26,588.39Z"/></svg>