<svg id="Layer_1" data-name="Layer 1" xmlns="http://www.w3.org/2000/svg" viewBox="0 0 412.9 640"><defs><style>.cls-1{fill:#5f5e5e;}.cls-2{fill:#fff;}</style></defs><title>Hourglass</title><path id="b5jdQ4n9q" class="cls-1" d="M487.62,320" transform="translate(-113.55)"/><path id="c4l2zTtM9J" class="cls-1" d="M152.38,320" transform="translate(-113.55)"/><path class="cls-1" d="M113.55,51.61A51.76,51.76,0,0,1,165.16,0H474.84a51.76,51.76,0,0,1,51.61,51.61v61.94c0,28.39-17.41,67-38.7,85.76l-98.08,86.54c-21.29,18.78-21.29,49.52,0,68.3l98.08,86.54c21.29,18.78,38.7,57.37,38.7,85.76v61.94A51.76,51.76,0,0,1,474.84,640H165.16a51.76,51.76,0,0,1-51.61-51.61V526.45c0-28.39,17.41-67,38.7-85.76l98.08-86.54c21.29-18.78,21.29-49.52,0-68.3l-98.08-86.54c-21.29-18.78-38.7-57.37-38.7-85.76Z" transform="translate(-113.55)"/><path class="cls-2" d="M174.37,118.23H465.63c13.78,0,20.52,16.8,10.55,26.32L330.55,283.64a15.29,15.29,0,0,1-21.1,0L163.82,144.55C153.85,135,160.59,118.23,174.37,118.23Z" transform="translate(-113.55)"/><path class="cls-2" d="M176.81,588.39H463.19c13.42,0,19.73-16.59,9.69-25.51L329.7,435.63a14.59,14.59,0,0,0-19.4,0L167.12,562.88C157.08,571.8,163.39,588.39,176.81,588.39Z" transform="translate(-113.55)"/></svg>