<?xml version="1.0" encoding="UTF-8" standalone="no"?>
<!DOCTYPE svg PUBLIC "-//W3C//DTD SVG 1.1//EN" "http://www.w3.org/Graphics/SVG/1.1/DTD/svg11.dtd">
<svg version="1.1" xmlns="http://www.w3.org/2000/svg" xmlns:xlink="http://www.w3.org/1999/xlink" preserveAspectRatio="xMidYMid meet" viewBox="0 0 640 640" width="640" height="640"><defs><path d="M336.68 87.03L345.84 87.87L355.01 89.07L364.17 90.65L373.32 92.61L382.44 94.95L391.52 97.67L400.55 100.78L409.53 104.29L418.36 108.16L426.95 112.35L435.3 116.84L443.4 121.64L451.25 126.72L458.84 132.08L466.18 137.71L473.25 143.61L480.06 149.75L486.59 156.13L492.85 162.73L498.83 169.56L504.52 176.6L509.93 183.84L515.05 191.27L519.87 198.88L524.39 206.66L528.6 214.6L532.51 222.69L536.11 230.93L539.38 239.29L542.34 247.77L544.98 256.37L547.28 265.07L549.26 273.86L550.89 282.73L552.19 291.67L553.14 300.67L553.74 309.73L553.99 318.83L553.88 327.96L553.41 337.12L552.57 346.28L551.37 355.45L549.79 364.61L547.83 373.76L545.49 382.88L542.77 391.96L539.66 400.99L536.15 409.97L532.28 418.8L528.09 427.39L523.6 435.74L518.8 443.84L513.72 451.69L508.36 459.28L502.73 466.62L496.83 473.69L490.69 480.5L484.31 487.03L477.71 493.29L470.88 499.27L463.84 504.96L456.6 510.37L449.17 515.49L441.56 520.31L433.78 524.83L425.84 529.04L417.75 532.95L409.51 536.55L401.15 539.82L392.67 542.78L384.07 545.42L375.37 547.72L366.58 549.7L357.71 551.33L348.77 552.63L339.77 553.58L330.71 554.18L321.61 554.43L312.48 554.32L303.32 553.85L294.16 553.01L284.99 551.81L275.83 550.23L266.68 548.27L257.56 545.93L248.48 543.21L239.45 540.1L230.47 536.59L221.64 532.72L213.05 528.53L204.7 524.04L196.6 519.24L188.75 514.16L181.16 508.8L173.82 503.17L166.75 497.27L159.94 491.13L153.41 484.75L147.15 478.15L141.17 471.32L135.48 464.28L130.07 457.04L124.95 449.61L120.13 442L115.61 434.22L111.4 426.28L107.49 418.19L103.89 409.95L100.62 401.59L97.66 393.11L95.02 384.51L92.72 375.81L90.74 367.02L89.11 358.15L87.81 349.21L86.86 340.21L86.26 331.15L86.01 322.05L86.12 312.92L86.59 303.76L87.43 294.6L88.63 285.43L90.21 276.27L92.17 267.12L94.51 258L97.23 248.92L100.34 239.89L103.85 230.91L107.72 222.08L111.91 213.49L116.4 205.14L121.2 197.04L126.28 189.19L131.64 181.6L137.27 174.26L143.17 167.19L149.31 160.38L155.69 153.85L162.29 147.59L169.12 141.61L176.16 135.92L183.4 130.51L190.83 125.39L198.44 120.57L206.22 116.05L214.16 111.84L222.25 107.93L230.49 104.33L238.85 101.06L247.33 98.1L255.93 95.46L264.63 93.16L273.42 91.18L282.29 89.55L291.23 88.25L300.23 87.3L309.29 86.7L318.39 86.45L327.52 86.56L336.68 87.03ZM310.01 198.94L305.09 199.44L300.24 200.13L295.45 201.01L290.72 202.08L286.07 203.33L281.49 204.76L276.99 206.35L272.57 208.12L268.24 210.06L264 212.15L259.85 214.4L255.81 216.81L251.86 219.37L248.02 222.07L244.3 224.91L240.68 227.9L237.19 231.01L233.82 234.26L230.57 237.63L227.46 241.12L224.47 244.74L221.63 248.46L218.93 252.3L216.37 256.25L213.96 260.29L211.71 264.44L209.62 268.68L207.68 273.01L205.91 277.43L204.32 281.93L202.89 286.51L201.64 291.16L200.57 295.89L199.69 300.68L199 305.53L198.5 310.45L198.2 315.42L198.1 320.44L198.2 325.46L198.5 330.43L199 335.35L199.69 340.2L200.57 344.99L201.64 349.72L202.89 354.37L204.32 358.95L205.91 363.45L207.68 367.87L209.62 372.2L211.71 376.44L213.96 380.59L216.37 384.63L218.93 388.58L221.63 392.42L224.47 396.14L227.46 399.76L230.57 403.25L233.82 406.62L237.19 409.87L240.68 412.98L244.3 415.97L248.02 418.81L251.86 421.51L255.81 424.07L259.85 426.48L264 428.73L268.24 430.82L272.57 432.76L276.99 434.53L281.49 436.12L286.07 437.55L290.72 438.8L295.45 439.87L300.24 440.75L305.09 441.44L310.01 441.94L314.98 442.24L320 442.34L325.02 442.24L329.99 441.94L334.91 441.44L339.76 440.75L344.55 439.87L349.28 438.8L353.93 437.55L358.51 436.12L363.01 434.53L367.43 432.76L371.76 430.82L376 428.73L380.15 426.48L384.19 424.07L388.14 421.51L391.98 418.81L395.7 415.97L399.32 412.98L402.81 409.87L406.18 406.62L409.43 403.25L412.54 399.76L415.53 396.14L418.37 392.42L421.07 388.58L423.63 384.63L426.04 380.59L428.29 376.44L430.38 372.2L432.32 367.87L434.09 363.45L435.68 358.95L437.11 354.37L438.36 349.72L439.43 344.99L440.31 340.2L441 335.35L441.5 330.43L441.8 325.46L441.9 320.44L441.8 315.42L441.5 310.45L441 305.53L440.31 300.68L439.43 295.89L438.36 291.16L437.11 286.51L435.68 281.93L434.09 277.43L432.32 273.01L430.38 268.68L428.29 264.44L426.04 260.29L423.63 256.25L421.07 252.3L418.37 248.46L415.53 244.74L412.54 241.12L409.43 237.63L406.18 234.26L402.81 231.01L399.32 227.9L395.7 224.91L391.98 222.07L388.14 219.37L384.19 216.81L380.15 214.4L376 212.15L371.76 210.06L367.43 208.12L363.01 206.35L358.51 204.76L353.93 203.33L349.28 202.08L344.55 201.01L339.76 200.13L334.91 199.44L329.99 198.94L325.02 198.64L320 198.54L314.98 198.64L310.01 198.94Z" id="b7T16XkcmG"></path><path d="M476.12 28.08C492.37 34.81 500.09 53.44 493.36 69.69C488.51 81.38 476.4 110.62 457.03 157.39L338.4 108.25C357.77 61.48 369.88 32.24 374.73 20.55C381.46 4.3 400.09 -3.42 416.34 3.31C434.18 10.7 458.28 20.69 476.12 28.08Z" id="d4ZdGPZ1QT"></path><path d="M182.97 483.49L301.6 532.63C282.23 579.4 270.12 608.64 265.27 620.33C258.54 636.58 239.91 644.3 223.66 637.57C205.82 630.18 181.72 620.19 163.88 612.8C147.63 606.07 139.91 587.44 146.64 571.19C151.49 559.5 163.6 530.26 182.97 483.49Z" id="a3ddZZ5Fq"></path><path d="M531.12 339.28C578.7 358.98 608.44 371.3 620.33 376.23C636.58 382.96 644.3 401.59 637.57 417.84C630.3 435.38 620.69 458.58 613.42 476.12C606.69 492.37 588.07 500.09 571.82 493.36C559.92 488.43 530.19 476.11 482.61 456.41L531.12 339.28Z" id="b8JUDaTvN"></path><path d="M157.39 184.47L108.88 301.6C61.3 281.9 31.56 269.58 19.67 264.65C3.42 257.92 -4.3 239.29 2.43 223.04C9.7 205.5 19.31 182.3 26.58 164.76C33.31 148.51 51.93 140.79 68.18 147.52C80.08 152.45 109.81 164.77 157.39 184.47Z" id="e4hUdtDb8G"></path><path d="M223.68 3.35C239.93 -3.38 258.56 4.34 265.29 20.59C270.13 32.28 282.24 61.52 301.62 108.3L182.99 157.44C163.61 110.66 151.5 81.42 146.66 69.73C139.93 53.48 147.65 34.85 163.89 28.12C181.74 20.73 205.84 10.75 223.68 3.35Z" id="g1v05UgS9L"></path><path d="M338.38 532.58L457.01 483.44C476.39 530.22 488.5 559.46 493.34 571.15C500.07 587.4 492.35 606.03 476.11 612.76C458.26 620.15 434.16 630.13 416.32 637.53C400.07 644.26 381.44 636.54 374.71 620.29C369.87 608.6 357.76 579.36 338.38 532.58Z" id="f1I75QyVD"></path><path d="M482.56 184.49C530.14 164.78 559.88 152.47 571.77 147.54C588.02 140.81 606.65 148.53 613.38 164.77C620.65 182.32 630.26 205.52 637.53 223.06C644.26 239.31 636.54 257.94 620.29 264.67C608.4 269.6 578.66 281.91 531.08 301.62L482.56 184.49Z" id="c33ztBnpHD"></path><path d="M108.92 339.26L157.44 456.39C109.86 476.1 80.12 488.41 68.23 493.34C51.98 500.07 33.35 492.35 26.62 476.11C19.35 458.56 9.74 435.36 2.47 417.82C-4.26 401.57 3.46 382.94 19.71 376.21C31.6 371.28 61.34 358.97 108.92 339.26Z" id="d7DSu1cTw"></path></defs><g><g><g><use xlink:href="#b7T16XkcmG" opacity="1" fill="#5f5e5e" fill-opacity="1"></use></g><g><use xlink:href="#d4ZdGPZ1QT" opacity="1" fill="#5f5e5e" fill-opacity="1"></use></g><g><use xlink:href="#a3ddZZ5Fq" opacity="1" fill="#5f5e5e" fill-opacity="1"></use></g><g><use xlink:href="#b8JUDaTvN" opacity="1" fill="#5f5e5e" fill-opacity="1"></use></g><g><use xlink:href="#e4hUdtDb8G" opacity="1" fill="#5f5e5e" fill-opacity="1"></use></g><g><use xlink:href="#g1v05UgS9L" opacity="1" fill="#5f5e5e" fill-opacity="1"></use></g><g><use xlink:href="#f1I75QyVD" opacity="1" fill="#5f5e5e" fill-opacity="1"></use></g><g><use xlink:href="#c33ztBnpHD" opacity="1" fill="#5f5e5e" fill-opacity="1"></use></g><g><use xlink:href="#d7DSu1cTw" opacity="1" fill="#5f5e5e" fill-opacity="1"></use></g></g></g></svg>