<?xml version="1.0" encoding="UTF-8" standalone="no"?>
<!DOCTYPE svg PUBLIC "-//W3C//DTD SVG 1.1//EN" "http://www.w3.org/Graphics/SVG/1.1/DTD/svg11.dtd">
<svg version="1.1" xmlns="http://www.w3.org/2000/svg" xmlns:xlink="http://www.w3.org/1999/xlink" preserveAspectRatio="xMidYMid meet" viewBox="0 0 640 640" width="640" height="640"><defs><path d="M29.19 285.49C16.93 306.75 16.94 332.93 29.21 354.19C56.33 401.17 117.87 507.76 145 554.74C157.27 575.99 179.94 589.09 204.48 589.1C258.67 589.13 381.6 589.19 435.79 589.22C460.33 589.23 483 576.14 495.26 554.89C522.33 507.94 583.74 401.46 610.81 354.51C623.07 333.25 623.06 307.07 610.79 285.81C583.67 238.83 522.13 132.24 495 85.26C482.73 64.01 460.06 50.91 435.52 50.9C381.33 50.87 258.4 50.81 204.21 50.78C179.67 50.77 157 63.86 144.74 85.11C117.67 132.06 56.26 238.54 29.19 285.49Z" id="b6PCr2xwls"></path><path d="M283.89 422.65C265.94 432.92 243.59 419.96 243.59 399.27C243.59 383.42 243.59 382.28 243.59 366.43C243.59 366.43 243.59 273.57 243.59 273.57C243.59 257.71 243.59 256.58 243.59 240.73C243.59 220.04 265.94 207.08 283.9 217.35C297.82 225.3 299.28 226.14 313.2 234.1C313.2 234.1 393.81 280.19 393.81 280.19C407.73 288.15 409.19 288.99 423.11 296.95C440.94 307.14 440.94 332.85 423.11 343.05C409.19 351.01 407.73 351.84 393.81 359.8C393.81 359.8 313.2 405.9 313.2 405.9C299.28 413.86 297.82 414.69 283.89 422.65Z" id="a5RZbbwUfL"></path></defs><g><g><g><use xlink:href="#b6PCr2xwls" opacity="1" fill="#5f5e5e" fill-opacity="1"></use></g><g><use xlink:href="#a5RZbbwUfL" opacity="1" fill="#ffffff" fill-opacity="1"></use></g></g></g></svg>