<?xml version="1.0" encoding="UTF-8" standalone="no"?>
<!DOCTYPE svg PUBLIC "-//W3C//DTD SVG 1.1//EN" "http://www.w3.org/Graphics/SVG/1.1/DTD/svg11.dtd">
<svg version="1.1" xmlns="http://www.w3.org/2000/svg" xmlns:xlink="http://www.w3.org/1999/xlink" preserveAspectRatio="xMidYMid meet" viewBox="0 0 640 640" width="640" height="640"><defs><path d="M211.86 304.28C207.3 312.19 207.31 321.92 211.87 329.83C221.96 347.3 244.84 386.93 254.93 404.4C259.49 412.3 267.92 417.17 277.04 417.18C297.2 417.19 342.9 417.21 363.06 417.22C372.18 417.23 380.61 412.36 385.17 404.46C395.24 387 418.07 347.4 428.14 329.95C432.7 322.04 432.69 312.3 428.13 304.4C418.04 286.93 395.16 247.3 385.07 229.83C380.51 221.92 372.08 217.05 362.96 217.05C342.8 217.04 297.1 217.01 276.94 217C267.82 217 259.39 221.87 254.83 229.77C244.76 247.23 221.93 286.82 211.86 304.28Z" id="f2Zvsf26z"></path><path d="M306.57 355.29C299.9 359.1 291.59 354.28 291.59 346.59C291.59 340.7 291.59 340.27 291.59 334.38C291.59 334.38 291.59 299.85 291.59 299.85C291.59 293.95 291.59 293.53 291.59 287.64C291.59 279.95 299.9 275.12 306.57 278.94C311.75 281.9 312.29 282.21 317.47 285.17C317.47 285.17 347.45 302.31 347.45 302.31C352.62 305.27 353.17 305.58 358.34 308.54C364.97 312.33 364.97 321.89 358.34 325.68C353.17 328.64 352.62 328.95 347.45 331.91C347.45 331.91 317.47 349.06 317.47 349.06C312.29 352.02 311.75 352.33 306.57 355.29Z" id="a1K6eSYDRO"></path></defs><g><g><g><g><filter id="shadow9388530" x="195.45" y="204" width="254.11" height="231.22" filterUnits="userSpaceOnUse" primitiveUnits="userSpaceOnUse"><feFlood></feFlood><feComposite in2="SourceAlpha" operator="in"></feComposite><feGaussianBlur stdDeviation="1"></feGaussianBlur><feOffset dx="5" dy="5" result="afterOffset"></feOffset><feFlood flood-color="#000000" flood-opacity="0.75"></feFlood><feComposite in2="afterOffset" operator="in"></feComposite><feMorphology operator="dilate" radius="1"></feMorphology><feComposite in2="SourceAlpha" operator="out"></feComposite></filter><path d="M211.86 304.28C207.3 312.19 207.31 321.92 211.87 329.83C221.96 347.3 244.84 386.93 254.93 404.4C259.49 412.3 267.92 417.17 277.04 417.18C297.2 417.19 342.9 417.21 363.06 417.22C372.18 417.23 380.61 412.36 385.17 404.46C395.24 387 418.07 347.4 428.14 329.95C432.7 322.04 432.69 312.3 428.13 304.4C418.04 286.93 395.16 247.3 385.07 229.83C380.51 221.92 372.08 217.05 362.96 217.05C342.8 217.04 297.1 217.01 276.94 217C267.82 217 259.39 221.87 254.83 229.77C244.76 247.23 221.93 286.82 211.86 304.28Z" id="a2Je8qEpYq" fill="white" fill-opacity="1" filter="url(#shadow9388530)"></path></g><use xlink:href="#f2Zvsf26z" opacity="1" fill="#5f5e5e" fill-opacity="1"></use></g><g><g><filter id="shadow4489319" x="279.59" y="265.61" width="99.73" height="107.02" filterUnits="userSpaceOnUse" primitiveUnits="userSpaceOnUse"><feFlood></feFlood><feComposite in2="SourceAlpha" operator="in"></feComposite><feGaussianBlur stdDeviation="1"></feGaussianBlur><feOffset dx="4" dy="4" result="afterOffset"></feOffset><feFlood flood-color="#000000" flood-opacity="0.5"></feFlood><feComposite in2="afterOffset" operator="in"></feComposite><feMorphology operator="dilate" radius="1"></feMorphology><feComposite in2="SourceAlpha" operator="out"></feComposite></filter><path d="M306.57 355.29C299.9 359.1 291.59 354.28 291.59 346.59C291.59 340.7 291.59 340.27 291.59 334.38C291.59 334.38 291.59 299.85 291.59 299.85C291.59 293.95 291.59 293.53 291.59 287.64C291.59 279.95 299.9 275.12 306.57 278.94C311.75 281.9 312.29 282.21 317.47 285.17C317.47 285.17 347.45 302.31 347.45 302.31C352.62 305.27 353.17 305.58 358.34 308.54C364.97 312.33 364.97 321.89 358.34 325.68C353.17 328.64 352.62 328.95 347.45 331.91C347.45 331.91 317.47 349.06 317.47 349.06C312.29 352.02 311.75 352.33 306.57 355.29Z" id="hhpOc929S" fill="white" fill-opacity="1" filter="url(#shadow4489319)"></path></g><use xlink:href="#a1K6eSYDRO" opacity="1" fill="#ffffff" fill-opacity="1"></use></g></g></g></svg>