<svg id="Layer_1" data-name="Layer 1" xmlns="http://www.w3.org/2000/svg" viewBox="0 0 97.09 153.49"><defs><style>.cls-1{fill:#5f5e5e;}</style></defs><path class="cls-1" d="M63.86,96.86,92.45,76.62a11,11,0,0,0,4.64-9V37.27a11,11,0,0,0-4.89-9.14L54.33,2.81a11,11,0,0,0-11.77-.29L5.35,24.82A11,11,0,0,0,0,34.26H0a11,11,0,0,0,16.65,9.43L41.92,28.55a11,11,0,0,1,11.77.29l16.51,11A11,11,0,0,1,75.09,49v7.24a11,11,0,0,1-4.64,9L41.86,85.48a11,11,0,0,0-4.64,9v12.25a11,11,0,0,0,11,11h0a11,11,0,0,0,11-11v-.87A11,11,0,0,1,63.86,96.86Z" transform="translate(0 -0.96)"/><circle class="cls-1" cx="48.55" cy="140.94" r="12.55"/></svg>