<?xml version="1.0" encoding="UTF-8" standalone="no"?>
<!DOCTYPE svg PUBLIC "-//W3C//DTD SVG 1.1//EN" "http://www.w3.org/Graphics/SVG/1.1/DTD/svg11.dtd">
<svg version="1.1" xmlns="http://www.w3.org/2000/svg" xmlns:xlink="http://www.w3.org/1999/xlink" preserveAspectRatio="xMidYMid meet" viewBox="0 0 640 640" width="640" height="640"><defs><path d="M9.8 283.19C-3.27 305.87 -3.27 333.8 9.82 356.47C38.75 406.58 104.4 520.28 133.33 570.4C146.42 593.07 170.6 607.04 196.78 607.05C254.59 607.08 385.7 607.15 443.51 607.17C469.68 607.19 493.87 593.22 506.94 570.55C535.82 520.48 601.32 406.89 630.2 356.81C643.27 334.13 643.27 306.2 630.18 283.53C601.25 233.42 535.6 119.72 506.67 69.6C493.58 46.93 469.4 32.96 443.22 32.95C385.41 32.92 254.3 32.85 196.49 32.83C170.32 32.81 146.13 46.78 133.06 69.45C104.18 119.52 38.68 233.11 9.8 283.19Z" id="g12WbDzKwA"></path><path d="M251.97 161.66L252.94 161.78L253.9 161.95L254.85 162.17L255.78 162.44L256.71 162.75L257.62 163.11L258.52 163.52L259.4 163.98L260.25 164.49L261.08 165.04L261.89 165.64L262.67 166.29L263.42 166.99L264.15 167.73L264.83 168.52L265.48 169.37L266.1 170.25L266.67 171.19L277.85 190.55L277.96 190.51L280.19 189.87L282.43 189.26L284.69 188.68L286.96 188.14L289.24 187.63L291.54 187.16L293.84 186.73L296.17 186.33L298.5 185.97L300.84 185.65L303.2 185.36L305.57 185.11L307.95 184.89L310.34 184.72L312.74 184.58L315.15 184.48L317.57 184.43L320 184.41L326.05 184.53L332.05 184.89L337.98 185.5L343.83 186.33L349.61 187.4L355.31 188.68L360.92 190.19L366.45 191.91L371.87 193.83L377.2 195.97L382.42 198.3L387.54 200.83L392.54 203.54L397.42 206.45L402.17 209.53L406.8 212.79L411.29 216.22L415.65 219.81L419.87 223.57L423.93 227.49L427.85 231.55L431.61 235.77L435.2 240.13L438.63 244.62L441.89 249.25L444.97 254L447.88 258.88L450.59 263.88L453.12 269L455.45 274.22L457.58 279.55L459.51 284.97L461.23 290.5L462.74 296.11L464.02 301.81L465.09 307.59L465.92 313.44L466.52 319.37L466.89 325.37L467.01 331.42L466.89 337.48L466.52 343.47L465.92 349.4L465.09 355.26L464.02 361.04L462.74 366.73L461.23 372.35L459.51 377.87L457.58 383.3L455.45 388.63L453.12 393.85L450.59 398.96L447.88 403.96L444.97 408.84L441.89 413.6L438.63 418.23L435.2 422.72L431.61 427.08L427.85 431.29L423.93 435.36L419.87 439.27L415.65 443.03L411.29 446.63L406.8 450.06L402.17 453.32L397.42 456.4L392.54 459.3L387.54 462.02L382.42 464.55L377.2 466.88L371.87 469.01L366.45 470.94L360.92 472.66L355.31 474.16L349.61 475.45L343.83 476.51L337.98 477.35L332.05 477.95L326.05 478.32L320 478.44L313.94 478.32L307.95 477.95L302.02 477.35L296.17 476.51L290.39 475.45L284.69 474.16L279.07 472.66L273.55 470.94L268.12 469.01L262.8 466.88L257.57 464.55L252.46 462.02L247.46 459.3L242.58 456.4L237.83 453.32L233.2 450.06L228.7 446.63L224.35 443.03L220.13 439.27L216.07 435.36L212.15 431.29L208.39 427.08L204.8 422.72L201.37 418.23L198.11 413.6L195.02 408.84L192.12 403.96L189.41 398.96L186.88 393.85L184.55 388.63L182.41 383.3L180.49 377.87L178.77 372.35L177.71 368.42L177.71 368.42L177.45 367.07L177.25 365.73L177.1 364.39L177.01 363.06L176.97 361.73L176.99 360.41L177.06 359.1L177.19 357.8L177.36 356.51L177.59 355.23L177.86 353.97L178.18 352.72L178.56 351.48L178.97 350.27L179.44 349.07L179.95 347.89L180.5 346.73L181.1 345.6L181.74 344.49L182.42 343.4L183.15 342.35L183.91 341.31L184.71 340.31L185.56 339.34L186.44 338.4L187.35 337.49L188.31 336.62L189.3 335.78L190.32 334.97L191.38 334.21L192.47 333.48L193.59 332.8L194.74 332.15L195.93 331.55L197.14 331L198.38 330.48L199.65 330.02L200.95 329.6L202.27 329.24L203.62 328.92L204.97 328.66L206.33 328.45L207.69 328.3L209.03 328.2L210.38 328.16L211.71 328.17L213.04 328.24L214.35 328.35L215.65 328.52L216.95 328.74L218.22 329L219.49 329.32L220.73 329.68L221.96 330.08L223.17 330.54L224.36 331.04L225.52 331.58L226.67 332.16L227.79 332.79L228.88 333.46L229.95 334.17L230.99 334.92L232 335.71L232.98 336.54L233.92 337.41L234.84 338.31L235.72 339.25L236.56 340.22L237.37 341.23L238.13 342.27L238.86 343.35L239.55 344.45L240.19 345.59L240.8 346.76L241.35 347.96L241.86 349.18L242.33 350.43L242.74 351.71L243.11 353.02L243.42 354.35L243.32 354.38L244.04 356.71L245.09 359.67L246.25 362.57L247.52 365.41L248.9 368.19L250.38 370.92L251.96 373.57L253.64 376.16L255.41 378.68L257.28 381.13L259.24 383.5L261.28 385.8L263.41 388.01L265.63 390.14L267.92 392.19L270.29 394.15L272.74 396.01L275.26 397.79L277.85 399.47L280.51 401.05L283.23 402.53L286.01 403.9L288.86 405.17L291.76 406.33L294.71 407.38L297.72 408.32L300.77 409.14L303.88 409.84L307.02 410.42L310.21 410.87L313.44 411.2L316.7 411.4L320 411.46L323.3 411.4L326.56 411.2L329.79 410.87L332.97 410.42L336.12 409.84L339.22 409.14L342.28 408.32L345.29 407.38L348.24 406.33L351.14 405.17L353.99 403.9L356.77 402.53L359.49 401.05L362.15 399.47L364.74 397.79L367.26 396.01L369.7 394.15L372.08 392.19L374.37 390.14L376.59 388.01L378.72 385.8L380.76 383.5L382.72 381.13L384.59 378.68L386.36 376.16L388.04 373.57L389.62 370.92L391.1 368.19L392.48 365.41L393.75 362.57L394.91 359.67L395.96 356.71L396.89 353.7L397.71 350.65L398.41 347.55L398.99 344.4L399.45 341.21L399.77 337.98L399.97 334.72L400.04 331.42L399.97 328.13L399.77 324.86L399.45 321.63L398.99 318.45L398.41 315.3L397.71 312.2L396.89 309.14L395.96 306.13L394.91 303.18L393.75 300.28L392.48 297.44L391.1 294.65L389.62 291.93L388.04 289.27L386.36 286.68L384.59 284.16L382.72 281.72L380.76 279.34L378.72 277.05L376.59 274.84L374.37 272.7L372.08 270.66L369.7 268.7L367.26 266.83L364.74 265.06L362.15 263.38L359.49 261.8L356.77 260.32L353.99 258.94L351.14 257.67L348.24 256.51L345.29 255.46L342.28 254.53L339.22 253.71L336.12 253.01L332.97 252.43L329.79 251.97L326.56 251.65L323.3 251.45L320 251.38L316.7 251.45L313.44 251.65L313.14 251.68L323.36 269.38L323.89 270.35L324.35 271.32L324.75 272.31L325.09 273.3L325.38 274.3L325.61 275.3L325.78 276.3L325.9 277.3L325.96 278.3L325.97 279.29L325.93 280.28L325.83 281.26L325.69 282.23L325.5 283.19L325.26 284.13L324.97 285.07L324.64 285.98L324.26 286.88L323.84 287.75L323.38 288.61L322.88 289.44L322.33 290.24L321.75 291.02L321.12 291.76L320.46 292.48L319.77 293.16L319.03 293.81L318.27 294.43L317.47 295L316.63 295.53L315.77 296.03L314.88 296.47L313.95 296.88L313 297.23L312.02 297.54L311.02 297.79L309.99 298L308.94 298.15L307.86 298.24L306.76 298.27L282.62 298.37L216.22 298.65L192.08 298.75L190.99 298.73L189.92 298.64L188.87 298.5L187.85 298.31L186.85 298.06L185.88 297.77L184.93 297.42L184.02 297.02L183.13 296.58L182.27 296.1L181.44 295.58L180.65 295.01L179.88 294.41L179.15 293.77L178.46 293.09L177.8 292.38L177.18 291.64L176.6 290.88L176.06 290.08L175.56 289.26L175.1 288.41L174.68 287.55L174.3 286.66L173.97 285.75L173.69 284.83L173.45 283.89L173.26 282.94L173.12 281.98L173.03 281.01L172.99 280.03L173 279.04L173.06 278.05L173.18 277.06L173.35 276.07L173.58 275.08L173.87 274.09L174.21 273.11L174.61 272.13L175.07 271.16L175.6 270.2L187.75 249.35L221.2 191.98L233.35 171.12L233.93 170.19L234.55 169.3L235.21 168.46L235.9 167.67L236.62 166.93L237.37 166.24L238.16 165.59L238.97 164.99L239.8 164.44L240.66 163.94L241.54 163.49L242.44 163.08L243.35 162.72L244.28 162.41L245.22 162.15L246.17 161.94L247.13 161.77L248.09 161.65L249.06 161.58L250.03 161.56L251 161.59L251.97 161.66Z" id="agfRrAMbh"></path></defs><g><g><g><use xlink:href="#g12WbDzKwA" opacity="1" fill="#5f5e5e" fill-opacity="1"></use></g><g><use xlink:href="#agfRrAMbh" opacity="1" fill="#ffffff" fill-opacity="1"></use></g></g></g></svg>