<?xml version="1.0" encoding="UTF-8" standalone="no"?>
<!DOCTYPE svg PUBLIC "-//W3C//DTD SVG 1.1//EN" "http://www.w3.org/Graphics/SVG/1.1/DTD/svg11.dtd">
<svg version="1.1" xmlns="http://www.w3.org/2000/svg" xmlns:xlink="http://www.w3.org/1999/xlink" preserveAspectRatio="xMidYMid meet" viewBox="0 0 640 640" width="640" height="640"><defs><path d="M49.95 287.95C38.57 307.7 38.58 332.01 49.97 351.75C75.16 395.37 132.31 494.36 157.49 537.98C168.89 557.72 189.94 569.88 212.73 569.89C263.05 569.92 377.2 569.97 427.52 570C450.31 570.01 471.36 557.86 482.74 538.12C507.88 494.52 564.91 395.64 590.05 352.05C601.43 332.3 601.42 307.99 590.03 288.25C564.84 244.63 507.69 145.64 482.51 102.02C471.11 82.28 450.06 70.12 427.27 70.11C376.95 70.08 262.8 70.03 212.48 70C189.69 69.99 168.64 82.14 157.26 101.88C132.12 145.48 75.09 244.36 49.95 287.95Z" id="dVeMr7GK7"></path><path d="M260.78 182.16L261.62 182.26L262.45 182.41L263.28 182.6L264.1 182.83L264.9 183.11L265.7 183.42L266.48 183.78L267.24 184.18L267.98 184.62L268.71 185.1L269.41 185.62L270.09 186.19L270.75 186.79L271.37 187.44L271.97 188.13L272.54 188.87L273.08 189.64L273.58 190.46L283.31 207.31L283.4 207.28L285.34 206.71L287.29 206.18L289.26 205.68L291.23 205.21L293.22 204.77L295.22 204.36L297.23 203.98L299.25 203.64L301.28 203.32L303.32 203.04L305.38 202.79L307.44 202.57L309.51 202.38L311.59 202.23L313.68 202.11L315.78 202.03L317.88 201.98L320 201.96L325.27 202.07L330.49 202.38L335.65 202.91L340.75 203.64L345.78 204.56L350.74 205.68L355.63 206.99L360.43 208.49L365.16 210.17L369.8 212.02L374.34 214.05L378.79 216.25L383.15 218.62L387.39 221.15L391.54 223.83L395.56 226.67L399.48 229.65L403.27 232.78L406.94 236.05L410.48 239.46L413.89 243L417.16 246.67L420.29 250.46L423.28 254.38L426.11 258.41L428.8 262.55L431.32 266.8L433.69 271.15L435.89 275.6L437.92 280.15L439.78 284.78L441.45 289.51L442.95 294.32L444.26 299.2L445.38 304.16L446.31 309.2L447.03 314.29L447.56 319.45L447.88 324.67L447.98 329.94L447.88 335.22L447.56 340.43L447.03 345.59L446.31 350.69L445.38 355.72L444.26 360.68L442.95 365.57L441.45 370.38L439.78 375.1L437.92 379.74L435.89 384.29L433.69 388.74L431.32 393.09L428.8 397.34L426.11 401.48L423.28 405.51L420.29 409.42L417.16 413.22L413.89 416.88L410.48 420.43L406.94 423.83L403.27 427.1L399.48 430.24L395.56 433.22L391.54 436.06L387.39 438.74L383.15 441.27L378.79 443.63L374.34 445.83L369.8 447.86L365.16 449.72L360.43 451.4L355.63 452.9L350.74 454.21L345.78 455.33L340.75 456.25L335.65 456.98L330.49 457.5L325.27 457.82L320 457.93L314.73 457.82L309.51 457.5L304.35 456.98L299.25 456.25L294.22 455.33L289.26 454.21L284.37 452.9L279.56 451.4L274.84 449.72L270.2 447.86L265.66 445.83L261.2 443.63L256.85 441.27L252.6 438.74L248.46 436.06L244.43 433.22L240.52 430.24L236.73 427.1L233.06 423.83L229.52 420.43L226.11 416.88L222.84 413.22L219.71 409.42L216.72 405.51L213.88 401.48L211.2 397.34L208.67 393.09L206.31 388.74L204.11 384.29L202.08 379.74L200.22 375.1L198.54 370.38L197.05 365.57L196.13 362.15L196.12 362.15L195.88 360.85L195.69 359.55L195.57 358.26L195.5 356.97L195.49 355.69L195.54 354.42L195.65 353.16L195.81 351.91L196.02 350.67L196.29 349.45L196.61 348.24L196.98 347.05L197.4 345.88L197.87 344.73L198.39 343.61L198.96 342.5L199.57 341.43L200.23 340.37L200.93 339.35L201.68 338.36L202.47 337.4L203.3 336.47L204.17 335.57L205.07 334.71L206.02 333.89L207.01 333.11L208.03 332.37L209.08 331.67L210.17 331.01L211.3 330.4L212.45 329.84L213.64 329.32L214.86 328.85L216.1 328.44L217.38 328.07L218.68 327.77L219.99 327.51L221.31 327.32L222.61 327.19L223.92 327.12L225.21 327.11L226.5 327.15L227.77 327.25L229.04 327.4L230.29 327.61L231.52 327.86L232.74 328.18L233.94 328.54L235.12 328.95L236.28 329.41L237.42 329.92L238.53 330.47L239.62 331.07L240.67 331.72L241.71 332.41L242.71 333.14L243.67 333.92L244.61 334.73L245.51 335.59L246.37 336.48L247.2 337.41L247.98 338.38L248.73 339.39L249.43 340.43L250.09 341.51L250.7 342.61L251.27 343.76L251.78 344.93L252.25 346.13L252.67 347.36L253.03 348.62L253.33 349.91L253.24 349.93L253.87 351.96L254.79 354.53L255.8 357.06L256.9 359.53L258.1 361.95L259.39 364.32L260.76 366.64L262.23 368.89L263.77 371.09L265.4 373.22L267.1 375.28L268.88 377.28L270.74 379.21L272.66 381.06L274.66 382.84L276.73 384.55L278.86 386.17L281.05 387.72L283.31 389.18L285.62 390.55L287.99 391.84L290.41 393.04L292.89 394.15L295.41 395.16L297.98 396.07L300.6 396.88L303.26 397.6L305.96 398.21L308.7 398.71L311.48 399.11L314.29 399.39L317.13 399.57L320 399.62L322.87 399.57L325.71 399.39L328.52 399.11L331.3 398.71L334.03 398.21L336.74 397.6L339.4 396.88L342.01 396.07L344.59 395.16L347.11 394.15L349.59 393.04L352.01 391.84L354.38 390.55L356.69 389.18L358.95 387.72L361.14 386.17L363.27 384.55L365.34 382.84L367.33 381.06L369.26 379.21L371.12 377.28L372.9 375.28L374.6 373.22L376.23 371.09L377.77 368.89L379.23 366.64L380.61 364.32L381.9 361.95L383.09 359.53L384.2 357.06L385.21 354.53L386.12 351.96L386.94 349.34L387.65 346.68L388.26 343.98L388.77 341.24L389.16 338.46L389.45 335.66L389.62 332.81L389.68 329.94L389.62 327.07L389.45 324.23L389.16 321.42L388.77 318.65L388.26 315.91L387.65 313.21L386.94 310.55L386.12 307.93L385.21 305.36L384.2 302.83L383.09 300.36L381.9 297.93L380.61 295.56L379.23 293.25L377.77 291L376.23 288.8L374.6 286.67L372.9 284.61L371.12 282.61L369.26 280.68L367.33 278.83L365.34 277.05L363.27 275.34L361.14 273.71L358.95 272.17L356.69 270.71L354.38 269.33L352.01 268.05L349.59 266.85L347.11 265.74L344.59 264.73L342.01 263.82L339.4 263L336.74 262.29L334.03 261.68L331.3 261.18L328.52 260.78L325.71 260.49L322.87 260.32L320 260.26L317.13 260.32L314.29 260.49L314.03 260.52L322.93 275.93L323.38 276.77L323.78 277.62L324.14 278.48L324.43 279.34L324.68 280.21L324.88 281.08L325.03 281.95L325.13 282.82L325.19 283.69L325.2 284.56L325.16 285.42L325.08 286.27L324.95 287.12L324.79 287.95L324.58 288.78L324.33 289.59L324.04 290.38L323.71 291.16L323.35 291.93L322.94 292.67L322.5 293.39L322.03 294.09L321.52 294.77L320.98 295.42L320.4 296.04L319.8 296.64L319.16 297.2L318.49 297.74L317.8 298.24L317.07 298.7L316.32 299.13L315.54 299.52L314.74 299.87L313.91 300.18L313.06 300.45L312.18 300.67L311.29 300.85L310.37 300.98L309.43 301.06L308.47 301.09L287.46 301.17L229.65 301.42L208.64 301.5L207.69 301.48L206.76 301.41L205.85 301.29L204.95 301.12L204.09 300.9L203.24 300.64L202.42 300.34L201.62 300L200.84 299.62L200.1 299.2L199.38 298.74L198.68 298.25L198.02 297.72L197.38 297.16L196.78 296.57L196.21 295.96L195.67 295.32L195.16 294.65L194.69 293.95L194.25 293.24L193.85 292.5L193.49 291.75L193.16 290.97L192.88 290.19L192.63 289.38L192.42 288.57L192.26 287.74L192.13 286.9L192.05 286.05L192.02 285.2L192.03 284.34L192.08 283.48L192.18 282.62L192.33 281.75L192.53 280.89L192.78 280.03L193.08 279.18L193.43 278.33L193.83 277.48L194.29 276.65L204.87 258.49L233.98 208.55L244.57 190.39L245.07 189.58L245.61 188.81L246.18 188.08L246.78 187.39L247.41 186.75L248.07 186.14L248.75 185.58L249.46 185.06L250.18 184.58L250.93 184.14L251.7 183.75L252.48 183.39L253.27 183.08L254.08 182.81L254.9 182.58L255.73 182.4L256.56 182.25L257.4 182.15L258.24 182.09L259.09 182.07L259.93 182.09L260.78 182.16Z" id="d2YMKXjVBC"></path></defs><g><g><g><g><filter id="shadow5643704" x="17.92" y="46.5" width="616.66" height="559.5" filterUnits="userSpaceOnUse" primitiveUnits="userSpaceOnUse"><feFlood></feFlood><feComposite in2="SourceAlpha" operator="in"></feComposite><feGaussianBlur stdDeviation="1.58"></feGaussianBlur><feOffset dx="12.5" dy="12.5" result="afterOffset"></feOffset><feFlood flood-color="#000000" flood-opacity="0.75"></feFlood><feComposite in2="afterOffset" operator="in"></feComposite><feMorphology operator="dilate" radius="1"></feMorphology><feComposite in2="SourceAlpha" operator="out"></feComposite></filter><path d="M49.95 287.95C38.57 307.7 38.58 332.01 49.97 351.75C75.16 395.37 132.31 494.36 157.49 537.98C168.89 557.72 189.94 569.88 212.73 569.89C263.05 569.92 377.2 569.97 427.52 570C450.31 570.01 471.36 557.86 482.74 538.12C507.88 494.52 564.91 395.64 590.05 352.05C601.43 332.3 601.42 307.99 590.03 288.25C564.84 244.63 507.69 145.64 482.51 102.02C471.11 82.28 450.06 70.12 427.27 70.11C376.95 70.08 262.8 70.03 212.48 70C189.69 69.99 168.64 82.14 157.26 101.88C132.12 145.48 75.09 244.36 49.95 287.95Z" id="ev14gEWi1" fill="white" fill-opacity="1" filter="url(#shadow5643704)"></path></g><use xlink:href="#dVeMr7GK7" opacity="1" fill="#5f5e5e" fill-opacity="1"></use></g><g><g><filter id="shadow4592259" x="171.02" y="161.07" width="307.97" height="327.86" filterUnits="userSpaceOnUse" primitiveUnits="userSpaceOnUse"><feFlood></feFlood><feComposite in2="SourceAlpha" operator="in"></feComposite><feGaussianBlur stdDeviation="1.58"></feGaussianBlur><feOffset dx="10" dy="10" result="afterOffset"></feOffset><feFlood flood-color="#000000" flood-opacity="0.5"></feFlood><feComposite in2="afterOffset" operator="in"></feComposite><feMorphology operator="dilate" radius="1"></feMorphology><feComposite in2="SourceAlpha" operator="out"></feComposite></filter><path d="M260.78 182.16L261.62 182.26L262.45 182.41L263.28 182.6L264.1 182.83L264.9 183.11L265.7 183.42L266.48 183.78L267.24 184.18L267.98 184.62L268.71 185.1L269.41 185.62L270.09 186.19L270.75 186.79L271.37 187.44L271.97 188.13L272.54 188.87L273.08 189.64L273.58 190.46L283.31 207.31L283.4 207.28L285.34 206.71L287.29 206.18L289.26 205.68L291.23 205.21L293.22 204.77L295.22 204.36L297.23 203.98L299.25 203.64L301.28 203.32L303.32 203.04L305.38 202.79L307.44 202.57L309.51 202.38L311.59 202.23L313.68 202.11L315.78 202.03L317.88 201.98L320 201.96L325.27 202.07L330.49 202.38L335.65 202.91L340.75 203.64L345.78 204.56L350.74 205.68L355.63 206.99L360.43 208.49L365.16 210.17L369.8 212.02L374.34 214.05L378.79 216.25L383.15 218.62L387.39 221.15L391.54 223.83L395.56 226.67L399.48 229.65L403.27 232.78L406.94 236.05L410.48 239.46L413.89 243L417.16 246.67L420.29 250.46L423.28 254.38L426.11 258.41L428.8 262.55L431.32 266.8L433.69 271.15L435.89 275.6L437.92 280.15L439.78 284.78L441.45 289.51L442.95 294.32L444.26 299.2L445.38 304.16L446.31 309.2L447.03 314.29L447.56 319.45L447.88 324.67L447.98 329.94L447.88 335.22L447.56 340.43L447.03 345.59L446.31 350.69L445.38 355.72L444.26 360.68L442.95 365.57L441.45 370.38L439.78 375.1L437.92 379.74L435.89 384.29L433.69 388.74L431.32 393.09L428.8 397.34L426.11 401.48L423.28 405.51L420.29 409.42L417.16 413.22L413.89 416.88L410.48 420.43L406.94 423.83L403.27 427.1L399.48 430.24L395.56 433.22L391.54 436.06L387.39 438.74L383.15 441.27L378.79 443.63L374.34 445.83L369.8 447.86L365.16 449.72L360.43 451.4L355.63 452.9L350.74 454.21L345.78 455.33L340.75 456.25L335.65 456.98L330.49 457.5L325.27 457.82L320 457.93L314.73 457.82L309.51 457.5L304.35 456.98L299.25 456.25L294.22 455.33L289.26 454.21L284.37 452.9L279.56 451.4L274.84 449.72L270.2 447.86L265.66 445.83L261.2 443.63L256.85 441.27L252.6 438.74L248.46 436.06L244.43 433.22L240.52 430.24L236.73 427.1L233.06 423.83L229.52 420.43L226.11 416.88L222.84 413.22L219.71 409.42L216.72 405.51L213.88 401.48L211.2 397.34L208.67 393.09L206.31 388.74L204.11 384.29L202.08 379.74L200.22 375.1L198.54 370.38L197.05 365.57L196.13 362.15L196.12 362.15L195.88 360.85L195.69 359.55L195.57 358.26L195.5 356.97L195.49 355.69L195.54 354.42L195.65 353.16L195.81 351.91L196.02 350.67L196.29 349.45L196.61 348.24L196.98 347.05L197.4 345.88L197.87 344.73L198.39 343.61L198.96 342.5L199.57 341.43L200.23 340.37L200.93 339.35L201.68 338.36L202.47 337.4L203.3 336.47L204.17 335.57L205.07 334.71L206.02 333.89L207.01 333.11L208.03 332.37L209.08 331.67L210.17 331.01L211.3 330.4L212.45 329.84L213.64 329.32L214.86 328.85L216.1 328.44L217.38 328.07L218.68 327.77L219.99 327.51L221.31 327.32L222.61 327.19L223.92 327.12L225.21 327.11L226.5 327.15L227.77 327.25L229.04 327.4L230.29 327.61L231.52 327.86L232.74 328.18L233.94 328.54L235.12 328.95L236.28 329.41L237.42 329.92L238.53 330.47L239.62 331.07L240.67 331.72L241.71 332.41L242.71 333.14L243.67 333.92L244.61 334.73L245.51 335.59L246.37 336.48L247.2 337.41L247.98 338.38L248.73 339.39L249.43 340.43L250.09 341.51L250.7 342.61L251.27 343.76L251.78 344.93L252.25 346.13L252.67 347.36L253.03 348.62L253.33 349.91L253.24 349.93L253.87 351.96L254.79 354.53L255.8 357.06L256.9 359.53L258.1 361.95L259.39 364.32L260.76 366.64L262.23 368.89L263.77 371.09L265.4 373.22L267.1 375.28L268.88 377.28L270.74 379.21L272.66 381.06L274.66 382.84L276.73 384.55L278.86 386.17L281.05 387.72L283.31 389.18L285.62 390.55L287.99 391.84L290.41 393.04L292.89 394.15L295.41 395.16L297.98 396.07L300.6 396.88L303.26 397.6L305.96 398.21L308.7 398.71L311.48 399.11L314.29 399.39L317.13 399.57L320 399.62L322.87 399.57L325.71 399.39L328.52 399.11L331.3 398.71L334.03 398.21L336.74 397.6L339.4 396.88L342.01 396.07L344.59 395.16L347.11 394.15L349.59 393.04L352.01 391.84L354.38 390.55L356.69 389.18L358.95 387.72L361.14 386.17L363.27 384.55L365.34 382.84L367.33 381.06L369.26 379.21L371.12 377.28L372.9 375.28L374.6 373.22L376.23 371.09L377.77 368.89L379.23 366.64L380.61 364.32L381.9 361.95L383.09 359.53L384.2 357.06L385.21 354.53L386.12 351.96L386.94 349.34L387.65 346.68L388.26 343.98L388.77 341.24L389.16 338.46L389.45 335.66L389.62 332.81L389.68 329.94L389.62 327.07L389.45 324.23L389.16 321.42L388.77 318.65L388.26 315.91L387.65 313.21L386.94 310.55L386.12 307.93L385.21 305.36L384.2 302.83L383.09 300.36L381.9 297.93L380.61 295.56L379.23 293.25L377.77 291L376.23 288.8L374.6 286.67L372.9 284.61L371.12 282.61L369.26 280.68L367.33 278.83L365.34 277.05L363.27 275.34L361.14 273.71L358.95 272.17L356.69 270.71L354.38 269.33L352.01 268.05L349.59 266.85L347.11 265.74L344.59 264.73L342.01 263.82L339.4 263L336.74 262.29L334.03 261.68L331.3 261.18L328.52 260.78L325.71 260.49L322.87 260.32L320 260.26L317.13 260.32L314.29 260.49L314.03 260.52L322.93 275.93L323.38 276.77L323.78 277.62L324.14 278.48L324.43 279.34L324.68 280.21L324.88 281.08L325.03 281.95L325.13 282.82L325.19 283.69L325.2 284.56L325.16 285.42L325.08 286.27L324.95 287.12L324.79 287.95L324.58 288.78L324.33 289.59L324.04 290.38L323.71 291.16L323.35 291.93L322.94 292.67L322.5 293.39L322.03 294.09L321.52 294.77L320.98 295.42L320.4 296.04L319.8 296.64L319.16 297.2L318.49 297.74L317.8 298.24L317.07 298.7L316.32 299.13L315.54 299.52L314.74 299.87L313.91 300.18L313.06 300.45L312.18 300.67L311.29 300.85L310.37 300.98L309.43 301.06L308.47 301.09L287.46 301.17L229.65 301.42L208.64 301.5L207.69 301.48L206.76 301.41L205.85 301.29L204.95 301.12L204.09 300.9L203.24 300.64L202.42 300.34L201.62 300L200.84 299.62L200.1 299.2L199.38 298.74L198.68 298.25L198.02 297.72L197.38 297.16L196.78 296.57L196.21 295.96L195.67 295.32L195.16 294.65L194.69 293.95L194.25 293.24L193.85 292.5L193.49 291.75L193.16 290.97L192.88 290.19L192.63 289.38L192.42 288.57L192.26 287.74L192.13 286.9L192.05 286.05L192.02 285.2L192.03 284.34L192.08 283.48L192.18 282.62L192.33 281.75L192.53 280.89L192.78 280.03L193.08 279.18L193.43 278.33L193.83 277.48L194.29 276.65L204.87 258.49L233.98 208.55L244.57 190.39L245.07 189.58L245.61 188.81L246.18 188.08L246.78 187.39L247.41 186.75L248.07 186.14L248.75 185.58L249.46 185.06L250.18 184.58L250.93 184.14L251.7 183.75L252.48 183.39L253.27 183.08L254.08 182.81L254.9 182.58L255.73 182.4L256.56 182.25L257.4 182.15L258.24 182.09L259.09 182.07L259.93 182.09L260.78 182.16Z" id="d2cczsJyxg" fill="white" fill-opacity="1" filter="url(#shadow4592259)"></path></g><use xlink:href="#d2YMKXjVBC" opacity="1" fill="#ffffff" fill-opacity="1"></use></g></g></g></svg>