<?xml version="1.0" encoding="UTF-8" standalone="no"?>
<!DOCTYPE svg PUBLIC "-//W3C//DTD SVG 1.1//EN" "http://www.w3.org/Graphics/SVG/1.1/DTD/svg11.dtd">
<svg version="1.1" xmlns="http://www.w3.org/2000/svg" xmlns:xlink="http://www.w3.org/1999/xlink" preserveAspectRatio="xMidYMid meet" viewBox="0 0 640 640" width="640" height="640"><defs><path d="M9.8 283.19C-3.27 305.87 -3.27 333.8 9.82 356.47C38.75 406.58 104.4 520.28 133.33 570.39C146.42 593.06 170.6 607.03 196.78 607.05C254.59 607.07 385.7 607.14 443.51 607.17C469.68 607.18 493.87 593.22 506.94 570.55C535.82 520.47 601.32 406.89 630.2 356.81C643.27 334.13 643.27 306.2 630.18 283.53C601.25 233.42 535.6 119.72 506.67 69.61C493.58 46.94 469.4 32.97 443.22 32.95C385.41 32.93 254.3 32.86 196.49 32.83C170.32 32.82 146.13 46.78 133.06 69.45C104.18 119.53 38.68 233.11 9.8 283.19Z" id="a68W12Yre"></path><path d="M226.92 486.84L225.65 486.64L224.41 486.38L223.18 486.07L221.98 485.71L220.8 485.3L219.64 484.84L218.51 484.33L217.41 483.78L216.33 483.18L215.28 482.53L214.27 481.85L213.28 481.12L212.33 480.35L211.41 479.54L210.53 478.69L209.68 477.81L208.87 476.89L208.1 475.94L207.37 474.95L206.68 473.93L206.04 472.89L205.44 471.81L204.88 470.7L204.38 469.57L203.92 468.42L203.51 467.24L203.15 466.03L202.84 464.81L202.58 463.57L202.38 462.3L202.24 461.02L202.15 459.72L202.12 458.41L202.15 457.1L202.24 455.8L202.38 454.52L202.58 453.26L202.84 452.01L203.15 450.79L203.51 449.59L203.92 448.41L204.38 447.25L204.88 446.12L205.44 445.02L206.04 443.94L206.68 442.89L207.37 441.87L208.1 440.89L208.87 439.93L209.68 439.02L210.53 438.13L211.41 437.29L212.33 436.48L213.28 435.71L214.27 434.98L215.28 434.29L216.33 433.65L217.41 433.04L218.51 432.49L219.64 431.98L220.8 431.52L221.98 431.11L223.18 430.75L224.41 430.44L225.65 430.19L226.92 429.99L228.2 429.84L229.49 429.76L230.81 429.73L345.55 429.73L345.55 429.72L348.93 429.65L352.36 429.44L355.81 429.09L359.26 428.61L362.72 427.97L366.18 427.19L369.6 426.27L372.96 425.22L376.24 424.05L379.45 422.75L382.59 421.34L385.65 419.81L388.62 418.16L391.52 416.41L394.33 414.55L397.06 412.6L399.7 410.54L402.25 408.38L404.71 406.14L407.08 403.8L409.35 401.38L411.52 398.88L413.6 396.3L415.57 393.65L417.44 390.92L419.2 388.13L420.85 385.26L422.4 382.34L423.83 379.36L425.15 376.33L426.35 373.24L427.43 370.1L428.4 366.92L429.24 363.7L429.96 360.44L430.55 357.14L431.02 353.82L431.35 350.46L431.55 347.08L431.62 343.68L431.55 340.26L431.35 336.83L431 333.38L430.51 329.93L429.88 326.47L429.1 323.01L428.18 319.59L427.13 316.23L425.95 312.95L424.66 309.74L423.24 306.61L421.71 303.55L420.07 300.57L418.32 297.67L416.46 294.86L414.5 292.13L412.44 289.49L410.29 286.94L408.04 284.48L405.71 282.11L403.29 279.84L400.79 277.67L398.21 275.6L395.55 273.62L392.82 271.76L390.03 269.99L387.17 268.34L384.25 266.8L381.27 265.36L378.23 264.05L375.14 262.84L372.01 261.76L368.83 260.79L365.6 259.95L362.34 259.23L359.05 258.64L355.72 258.18L352.37 257.84L348.99 257.64L345.59 257.57L345.55 257.57L345.55 257.56L340.06 257.56L340.06 285.56L340.03 286.66L339.94 287.74L339.8 288.79L339.6 289.82L339.35 290.83L339.05 291.81L338.7 292.76L338.3 293.69L337.85 294.58L337.36 295.45L336.83 296.28L336.26 297.09L335.65 297.85L335.01 298.59L334.33 299.29L333.61 299.95L332.87 300.58L332.1 301.17L331.29 301.72L330.47 302.22L329.61 302.69L328.74 303.11L327.84 303.49L326.93 303.83L326 304.12L325.06 304.36L324.1 304.56L323.13 304.71L322.15 304.8L321.16 304.85L320.17 304.84L319.17 304.78L318.17 304.67L317.16 304.5L316.16 304.28L315.17 304L314.17 303.66L313.19 303.26L312.21 302.8L311.24 302.28L290.28 290.3L232.64 257.34L211.68 245.36L210.75 244.79L209.87 244.18L209.03 243.54L208.24 242.86L207.5 242.15L206.81 241.4L206.16 240.63L205.56 239.83L205.01 239.01L204.51 238.16L204.06 237.29L203.65 236.4L203.29 235.5L202.98 234.58L202.72 233.65L202.5 232.71L202.34 231.76L202.22 230.8L202.14 229.84L202.12 228.88L202.14 227.91L202.22 226.95L202.34 226L202.5 225.05L202.72 224.11L202.98 223.18L203.29 222.26L203.65 221.35L204.06 220.46L204.51 219.6L205.01 218.75L205.56 217.92L206.16 217.12L206.81 216.35L207.5 215.61L208.24 214.89L209.03 214.21L209.87 213.57L210.75 212.96L211.68 212.39L232.64 200.41L290.28 167.45L311.24 155.47L312.21 154.95L313.19 154.49L314.17 154.09L315.17 153.75L316.16 153.47L317.16 153.25L318.17 153.08L319.17 152.97L320.17 152.91L321.16 152.9L322.15 152.95L323.13 153.04L324.1 153.19L325.06 153.39L326 153.63L326.93 153.92L327.85 154.26L328.74 154.64L329.61 155.06L330.47 155.53L331.29 156.03L332.1 156.58L332.87 157.17L333.61 157.8L334.33 158.46L335.01 159.16L335.65 159.9L336.26 160.66L336.83 161.47L337.36 162.3L337.85 163.17L338.3 164.06L338.7 164.99L339.05 165.94L339.35 166.92L339.6 167.93L339.8 168.96L339.94 170.01L340.03 171.09L340.06 172.19L340.06 200.19L345.55 200.19L345.55 200.19L345.61 200.19L351.28 200.3L356.91 200.64L362.5 201.2L368.05 201.97L373.54 202.96L378.97 204.16L384.34 205.56L389.65 207.17L394.87 208.97L400.02 210.98L405.08 213.18L410.04 215.56L414.92 218.14L419.68 220.89L424.34 223.83L428.89 226.94L433.31 230.23L437.61 233.68L441.78 237.31L445.81 241.09L449.7 245.03L453.45 249.13L457.04 253.38L460.47 257.79L463.73 262.33L466.83 267.02L469.75 271.85L472.49 276.82L475.04 281.91L477.4 287.14L479.56 292.49L481.51 297.96L483.26 303.55L484.79 309.26L486.09 315.03L487.15 320.79L487.97 326.54L488.54 332.29L488.89 338.01L489 343.71L488.89 349.38L488.55 355.01L488 360.6L487.22 366.14L486.23 371.64L485.04 377.07L483.63 382.44L482.02 387.74L480.22 392.97L478.21 398.11L476.02 403.17L473.63 408.14L471.05 413.01L468.3 417.78L465.36 422.44L462.25 426.98L458.96 431.41L455.51 435.71L451.89 439.88L448.1 443.91L444.16 447.8L440.06 451.54L435.81 455.13L431.41 458.56L426.86 461.83L422.17 464.92L417.34 467.84L412.38 470.58L407.28 473.13L402.05 475.49L396.7 477.65L391.23 479.61L385.64 481.36L379.93 482.89L374.17 484.19L368.4 485.25L362.65 486.06L356.91 486.64L351.18 486.98L345.55 487.1L345.55 487.1L230.81 487.1L229.49 487.07L228.2 486.98L226.92 486.84Z" id="b2pE2VKlWw"></path></defs><g><g><g><use xlink:href="#a68W12Yre" opacity="1" fill="#5f5e5e" fill-opacity="1"></use></g><g><use xlink:href="#b2pE2VKlWw" opacity="1" fill="#ffffff" fill-opacity="1"></use></g></g></g></svg>