<?xml version="1.0" encoding="UTF-8" standalone="no"?>
<!DOCTYPE svg PUBLIC "-//W3C//DTD SVG 1.1//EN" "http://www.w3.org/Graphics/SVG/1.1/DTD/svg11.dtd">
<svg version="1.1" xmlns="http://www.w3.org/2000/svg" xmlns:xlink="http://www.w3.org/1999/xlink" preserveAspectRatio="xMidYMid meet" viewBox="0 0 640 640" width="640" height="640"><defs><path d="M211.86 304.71C207.3 312.62 207.31 322.36 211.87 330.26C221.96 347.73 244.84 387.37 254.93 404.84C259.49 412.74 267.92 417.61 277.04 417.61C297.2 417.62 342.9 417.65 363.06 417.66C372.18 417.66 380.61 412.79 385.17 404.89C395.24 387.43 418.07 347.84 428.14 330.38C432.7 322.47 432.69 312.74 428.13 304.84C418.04 287.37 395.16 247.73 385.07 230.26C380.51 222.36 372.08 217.49 362.96 217.48C342.8 217.47 297.1 217.45 276.94 217.44C267.82 217.43 259.39 222.3 254.83 230.2C244.76 247.66 221.93 287.26 211.86 304.71Z" id="e3h9MnjeqS"></path><path d="M321.26 259.37L321.68 259.45L322.09 259.55L322.5 259.68L322.89 259.83L323.28 260.01L323.65 260.21L324.01 260.43L324.35 260.68L324.68 260.95L324.99 261.23L325.29 261.54L325.56 261.87L325.82 262.21L326.05 262.57L326.26 262.95L326.45 263.35L326.61 263.76L326.75 264.18L326.85 264.62L326.93 265.08L326.98 265.54L326.99 266.02L326.99 275.78L328.91 275.78L328.91 275.78L328.93 275.78L330.9 275.82L332.87 275.94L334.82 276.13L336.75 276.4L338.66 276.75L340.56 277.16L342.43 277.65L344.28 278.21L346.1 278.84L347.89 279.54L349.66 280.31L351.39 281.14L353.09 282.04L354.75 283L356.37 284.02L357.96 285.11L359.5 286.25L361 287.46L362.45 288.72L363.86 290.04L365.22 291.41L366.52 292.84L367.77 294.32L368.97 295.86L370.11 297.44L371.19 299.08L372.2 300.76L373.16 302.49L374.05 304.27L374.87 306.09L375.62 307.96L376.3 309.86L376.91 311.81L377.45 313.8L377.9 315.81L378.27 317.82L378.55 319.83L378.76 321.83L378.88 323.83L378.92 325.81L378.88 327.79L378.76 329.75L378.56 331.7L378.29 333.63L377.95 335.55L377.53 337.44L377.04 339.31L376.48 341.16L375.85 342.98L375.15 344.78L374.39 346.54L373.56 348.27L372.66 349.97L371.7 351.63L370.67 353.26L369.59 354.84L368.44 356.38L367.24 357.88L365.98 359.34L364.66 360.74L363.28 362.1L361.85 363.4L360.37 364.66L358.84 365.85L357.25 366.99L355.62 368.07L353.93 369.09L352.2 370.04L350.43 370.93L348.6 371.75L346.74 372.51L344.83 373.19L342.88 373.8L340.89 374.33L338.88 374.78L336.87 375.15L334.87 375.44L332.87 375.64L330.87 375.76L328.91 375.8L328.91 375.8L288.91 375.8L287.55 375.71L286.25 375.44L285.02 375.01L283.86 374.43L282.8 373.71L281.84 372.87L280.99 371.91L280.27 370.84L279.69 369.69L279.26 368.46L279 367.15L278.91 365.8L279 364.44L279.26 363.14L279.69 361.91L280.27 360.75L280.99 359.69L281.84 358.73L282.8 357.88L283.86 357.16L285.02 356.58L286.25 356.16L287.55 355.89L288.91 355.8L328.91 355.8L328.91 355.79L329.6 355.79L330.89 355.73L332.19 355.61L333.49 355.44L334.79 355.21L336.1 354.91L337.39 354.57L338.65 354.17L339.88 353.71L341.08 353.21L342.25 352.66L343.39 352.07L344.5 351.43L345.57 350.74L346.61 350.01L347.61 349.25L348.58 348.44L349.51 347.6L350.4 346.72L351.25 345.8L352.07 344.85L352.84 343.87L353.57 342.86L354.25 341.83L354.9 340.76L355.5 339.67L356.05 338.55L356.56 337.41L357.02 336.25L357.43 335.07L357.8 333.87L358.11 332.66L358.38 331.43L358.59 330.18L358.75 328.93L358.85 327.66L358.91 326.38L358.9 325.09L358.84 323.8L358.73 322.51L358.56 321.2L358.32 319.9L358.03 318.6L357.68 317.31L357.28 316.05L356.83 314.82L356.33 313.61L355.78 312.44L355.18 311.3L354.54 310.2L353.86 309.12L353.13 308.09L352.36 307.08L351.56 306.12L350.71 305.19L349.83 304.3L348.92 303.44L347.97 302.63L346.99 301.86L345.98 301.13L344.94 300.44L343.88 299.8L342.78 299.2L341.67 298.64L340.53 298.14L339.37 297.68L338.19 297.26L336.99 296.9L335.78 296.58L334.54 296.32L333.3 296.11L332.04 295.95L330.77 295.84L329.5 295.79L328.91 295.79L328.91 295.78L326.99 295.78L326.99 305.54L326.98 306.02L326.93 306.49L326.85 306.94L326.75 307.38L326.61 307.8L326.45 308.21L326.26 308.61L326.05 308.99L325.82 309.35L325.56 309.69L325.29 310.02L324.99 310.33L324.68 310.61L324.35 310.88L324.01 311.13L323.65 311.35L323.28 311.55L322.89 311.73L322.5 311.88L322.09 312.01L321.68 312.11L321.26 312.19L320.83 312.24L320.4 312.27L319.97 312.26L319.54 312.23L319.1 312.16L318.66 312.07L318.23 311.94L317.8 311.78L317.37 311.59L316.95 311.37L309.64 307.19L289.54 295.7L282.24 291.53L281.84 291.28L281.46 291.01L281.11 290.72L280.78 290.41L280.48 290.08L280.21 289.74L279.96 289.38L279.74 289.02L279.54 288.64L279.37 288.25L279.23 287.85L279.11 287.44L279.02 287.03L278.96 286.62L278.92 286.2L278.91 285.78L278.92 285.36L278.96 284.94L279.02 284.53L279.11 284.12L279.23 283.71L279.37 283.31L279.54 282.93L279.74 282.55L279.96 282.18L280.21 281.82L280.48 281.48L280.78 281.15L281.11 280.85L281.46 280.56L281.84 280.28L282.24 280.04L289.54 275.86L309.64 264.37L316.95 260.19L317.37 259.97L317.8 259.78L318.23 259.62L318.66 259.49L319.1 259.4L319.54 259.34L319.97 259.3L320.4 259.3L320.83 259.32L321.26 259.37Z" id="dcGRKKioK"></path></defs><g><g><g><g><filter id="shadow13064725" x="195.45" y="204.44" width="254.11" height="231.22" filterUnits="userSpaceOnUse" primitiveUnits="userSpaceOnUse"><feFlood></feFlood><feComposite in2="SourceAlpha" operator="in"></feComposite><feGaussianBlur stdDeviation="1"></feGaussianBlur><feOffset dx="5" dy="5" result="afterOffset"></feOffset><feFlood flood-color="#000000" flood-opacity="0.75"></feFlood><feComposite in2="afterOffset" operator="in"></feComposite><feMorphology operator="dilate" radius="1"></feMorphology><feComposite in2="SourceAlpha" operator="out"></feComposite></filter><path d="M211.86 304.71C207.3 312.62 207.31 322.36 211.87 330.26C221.96 347.73 244.84 387.37 254.93 404.84C259.49 412.74 267.92 417.61 277.04 417.61C297.2 417.62 342.9 417.65 363.06 417.66C372.18 417.66 380.61 412.79 385.17 404.89C395.24 387.43 418.07 347.84 428.14 330.38C432.7 322.47 432.69 312.74 428.13 304.84C418.04 287.37 395.16 247.73 385.07 230.26C380.51 222.36 372.08 217.49 362.96 217.48C342.8 217.47 297.1 217.45 276.94 217.44C267.82 217.43 259.39 222.3 254.83 230.2C244.76 247.66 221.93 287.26 211.86 304.71Z" id="f1Dx2JwycH" fill="white" fill-opacity="1" filter="url(#shadow13064725)"></path></g><use xlink:href="#e3h9MnjeqS" opacity="1" fill="#5f5e5e" fill-opacity="1"></use></g><g><g><filter id="shadow12554382" x="266.91" y="247.3" width="128.01" height="144.5" filterUnits="userSpaceOnUse" primitiveUnits="userSpaceOnUse"><feFlood></feFlood><feComposite in2="SourceAlpha" operator="in"></feComposite><feGaussianBlur stdDeviation="1"></feGaussianBlur><feOffset dx="4" dy="4" result="afterOffset"></feOffset><feFlood flood-color="#000000" flood-opacity="0.5"></feFlood><feComposite in2="afterOffset" operator="in"></feComposite><feMorphology operator="dilate" radius="1"></feMorphology><feComposite in2="SourceAlpha" operator="out"></feComposite></filter><path d="M321.26 259.37L321.68 259.45L322.09 259.55L322.5 259.68L322.89 259.83L323.28 260.01L323.65 260.21L324.01 260.43L324.35 260.68L324.68 260.95L324.99 261.23L325.29 261.54L325.56 261.87L325.82 262.21L326.05 262.57L326.26 262.95L326.45 263.35L326.61 263.76L326.75 264.18L326.85 264.62L326.93 265.08L326.98 265.54L326.99 266.02L326.99 275.78L328.91 275.78L328.91 275.78L328.93 275.78L330.9 275.82L332.87 275.94L334.82 276.13L336.75 276.4L338.66 276.75L340.56 277.16L342.43 277.65L344.28 278.21L346.1 278.84L347.89 279.54L349.66 280.31L351.39 281.14L353.09 282.04L354.75 283L356.37 284.02L357.96 285.11L359.5 286.25L361 287.46L362.45 288.72L363.86 290.04L365.22 291.41L366.52 292.84L367.77 294.32L368.97 295.86L370.11 297.44L371.19 299.08L372.2 300.76L373.16 302.49L374.05 304.27L374.87 306.09L375.62 307.96L376.3 309.86L376.91 311.81L377.45 313.8L377.9 315.81L378.27 317.82L378.55 319.83L378.76 321.83L378.88 323.83L378.92 325.81L378.88 327.79L378.76 329.75L378.56 331.7L378.29 333.63L377.95 335.55L377.53 337.44L377.04 339.31L376.48 341.16L375.85 342.98L375.15 344.78L374.39 346.54L373.56 348.27L372.66 349.97L371.7 351.63L370.67 353.26L369.59 354.84L368.44 356.38L367.24 357.88L365.98 359.34L364.66 360.74L363.28 362.1L361.85 363.4L360.37 364.66L358.84 365.85L357.25 366.99L355.62 368.07L353.93 369.09L352.2 370.04L350.43 370.93L348.6 371.75L346.74 372.51L344.83 373.19L342.88 373.8L340.89 374.33L338.88 374.78L336.87 375.15L334.87 375.44L332.87 375.64L330.87 375.76L328.91 375.8L328.91 375.8L288.91 375.8L287.55 375.71L286.25 375.44L285.02 375.01L283.86 374.43L282.8 373.71L281.84 372.87L280.99 371.91L280.27 370.84L279.69 369.69L279.26 368.46L279 367.15L278.91 365.8L279 364.44L279.26 363.14L279.69 361.91L280.27 360.75L280.99 359.69L281.84 358.73L282.8 357.88L283.86 357.16L285.02 356.58L286.25 356.16L287.55 355.89L288.91 355.8L328.91 355.8L328.91 355.79L329.6 355.79L330.89 355.73L332.19 355.61L333.49 355.44L334.79 355.21L336.1 354.91L337.39 354.57L338.65 354.17L339.88 353.71L341.08 353.21L342.25 352.66L343.39 352.07L344.5 351.43L345.57 350.74L346.61 350.01L347.61 349.25L348.58 348.44L349.51 347.6L350.4 346.72L351.25 345.8L352.07 344.85L352.84 343.87L353.57 342.86L354.25 341.83L354.9 340.76L355.5 339.67L356.05 338.55L356.56 337.41L357.02 336.25L357.43 335.07L357.8 333.87L358.11 332.66L358.38 331.43L358.59 330.18L358.75 328.93L358.85 327.66L358.91 326.38L358.9 325.09L358.84 323.8L358.73 322.51L358.56 321.2L358.32 319.9L358.03 318.6L357.68 317.31L357.28 316.05L356.83 314.82L356.33 313.61L355.78 312.44L355.18 311.3L354.54 310.2L353.86 309.12L353.13 308.09L352.36 307.08L351.56 306.12L350.71 305.19L349.83 304.3L348.92 303.44L347.97 302.63L346.99 301.86L345.98 301.13L344.94 300.44L343.88 299.8L342.78 299.2L341.67 298.64L340.53 298.14L339.37 297.68L338.19 297.26L336.99 296.9L335.78 296.58L334.54 296.32L333.3 296.11L332.04 295.95L330.77 295.84L329.5 295.79L328.91 295.79L328.91 295.78L326.99 295.78L326.99 305.54L326.98 306.02L326.93 306.49L326.85 306.94L326.75 307.38L326.61 307.8L326.45 308.21L326.26 308.61L326.05 308.99L325.82 309.35L325.56 309.69L325.29 310.02L324.99 310.33L324.68 310.61L324.35 310.88L324.01 311.13L323.65 311.35L323.28 311.55L322.89 311.73L322.5 311.88L322.09 312.01L321.68 312.11L321.26 312.19L320.83 312.24L320.4 312.27L319.97 312.26L319.54 312.23L319.1 312.16L318.66 312.07L318.23 311.94L317.8 311.78L317.37 311.59L316.95 311.37L309.64 307.19L289.54 295.7L282.24 291.53L281.84 291.28L281.46 291.01L281.11 290.72L280.78 290.41L280.48 290.08L280.21 289.74L279.96 289.38L279.74 289.02L279.54 288.64L279.37 288.25L279.23 287.85L279.11 287.44L279.02 287.03L278.96 286.62L278.92 286.2L278.91 285.78L278.92 285.36L278.96 284.94L279.02 284.53L279.11 284.12L279.23 283.71L279.37 283.31L279.54 282.93L279.74 282.55L279.96 282.18L280.21 281.82L280.48 281.48L280.78 281.15L281.11 280.85L281.46 280.56L281.84 280.28L282.24 280.04L289.54 275.86L309.64 264.37L316.95 260.19L317.37 259.97L317.8 259.78L318.23 259.62L318.66 259.49L319.1 259.4L319.54 259.34L319.97 259.3L320.4 259.3L320.83 259.32L321.26 259.37Z" id="c37nfF1RVs" fill="white" fill-opacity="1" filter="url(#shadow12554382)"></path></g><use xlink:href="#dcGRKKioK" opacity="1" fill="#ffffff" fill-opacity="1"></use></g></g></g></svg>