<?xml version="1.0" encoding="UTF-8" standalone="no"?>
<!DOCTYPE svg PUBLIC "-//W3C//DTD SVG 1.1//EN" "http://www.w3.org/Graphics/SVG/1.1/DTD/svg11.dtd">
<svg version="1.1" xmlns="http://www.w3.org/2000/svg" xmlns:xlink="http://www.w3.org/1999/xlink" preserveAspectRatio="xMidYMid meet" viewBox="0 0 640 640" width="640" height="640"><defs><path d="M629.18 489.09C660.1 543.18 621.05 610.49 558.75 610.49C511 610.49 507.59 610.49 459.83 610.49C459.83 610.49 180.15 610.49 180.15 610.49C132.4 610.49 129 610.49 81.25 610.49C18.95 610.49 -20.1 543.18 10.82 489.09C34.79 447.16 37.3 442.77 61.28 400.84C61.28 400.84 200.1 158.04 200.1 158.04C224.08 116.11 226.6 111.71 250.58 69.78C281.28 16.09 358.71 16.09 389.41 69.78C413.39 111.71 415.91 116.11 439.88 158.04C439.88 158.04 578.72 400.83 578.72 400.83C602.69 442.77 605.2 447.16 629.18 489.09Z" id="j6ItwW5EK"></path></defs><g><g><g><use xlink:href="#j6ItwW5EK" opacity="1" fill="#5f5e5e" fill-opacity="1"></use></g></g></g></svg>