<?xml version="1.0" encoding="UTF-8" standalone="no"?>
<!DOCTYPE svg PUBLIC "-//W3C//DTD SVG 1.1//EN" "http://www.w3.org/Graphics/SVG/1.1/DTD/svg11.dtd">
<svg version="1.1" xmlns="http://www.w3.org/2000/svg" xmlns:xlink="http://www.w3.org/1999/xlink" preserveAspectRatio="xMidYMid meet" viewBox="0 0 640 640" width="640" height="640"><defs><path d="M620.21 502.38L622.35 505L624.37 507.69L626.26 510.44L628.04 513.25L629.69 516.11L631.22 519.03L632.62 521.98L633.91 524.98L635.07 528.02L636.11 531.09L637.03 534.19L637.82 537.32L638.5 540.48L639.05 543.65L639.47 546.83L639.78 550.03L639.96 553.24L640.03 556.45L639.96 559.65L639.78 562.86L639.47 566.06L639.05 569.24L638.5 572.42L637.82 575.57L637.03 578.7L636.11 581.8L635.07 584.87L633.91 587.91L632.62 590.91L631.22 593.87L629.69 596.78L628.04 599.64L626.26 602.45L624.37 605.2L622.35 607.89L620.21 610.52L617.94 613.07L615.56 615.56L613.07 617.94L610.52 620.21L607.89 622.35L605.2 624.37L602.45 626.26L599.64 628.04L596.78 629.69L593.87 631.22L590.91 632.62L587.91 633.91L584.87 635.07L581.8 636.11L578.7 637.03L575.57 637.82L572.42 638.5L569.24 639.05L566.06 639.47L562.86 639.78L559.65 639.96L556.45 640.03L553.24 639.96L550.03 639.78L546.83 639.47L543.65 639.05L540.48 638.5L537.32 637.82L534.19 637.03L531.09 636.11L528.02 635.07L524.98 633.91L521.98 632.62L519.03 631.22L516.11 629.69L513.25 628.04L510.44 626.26L507.69 624.37L505 622.35L502.38 620.21L499.82 617.94L497.33 615.56L24.44 142.67L22.06 140.18L19.79 137.62L17.65 135L15.63 132.31L13.74 129.56L11.96 126.75L10.31 123.89L8.78 120.97L7.38 118.02L6.09 115.02L4.93 111.98L3.89 108.91L2.97 105.81L2.18 102.68L1.5 99.52L0.95 96.35L0.53 93.17L0.22 89.97L0.04 86.76L-0.03 83.55L0.04 80.35L0.22 77.14L0.53 73.94L0.95 70.76L1.5 67.58L2.18 64.43L2.97 61.3L3.89 58.2L4.93 55.13L6.09 52.09L7.38 49.09L8.78 46.13L10.31 43.22L11.96 40.36L13.74 37.55L15.63 34.8L17.65 32.11L19.79 29.48L22.06 26.93L24.44 24.44L26.93 22.06L29.48 19.79L32.11 17.65L34.8 15.63L37.55 13.74L40.36 11.96L43.22 10.31L46.13 8.78L49.09 7.38L52.09 6.09L55.13 4.93L58.2 3.89L61.3 2.97L64.43 2.18L67.58 1.5L70.76 0.95L73.94 0.53L77.14 0.22L80.35 0.04L83.55 -0.03L86.76 0.04L89.97 0.22L93.17 0.53L96.35 0.95L99.52 1.5L102.68 2.18L105.81 2.97L108.91 3.89L111.98 4.93L115.02 6.09L118.02 7.38L120.97 8.78L123.89 10.31L126.75 11.96L129.56 13.74L132.31 15.63L135 17.65L137.62 19.79L140.18 22.06L142.67 24.44L615.56 497.33L615.56 497.33L617.94 499.82L620.21 502.38Z" id="aN7qubQmW"></path><path d="M566.06 0.53L569.24 0.95L572.42 1.5L575.57 2.18L578.7 2.97L581.8 3.89L584.87 4.93L587.91 6.09L590.91 7.38L593.87 8.78L596.78 10.31L599.64 11.96L602.45 13.74L605.2 15.63L607.89 17.65L610.52 19.79L613.07 22.06L615.56 24.44L617.94 26.93L620.21 29.48L622.35 32.11L624.37 34.8L626.26 37.55L628.04 40.36L629.69 43.22L631.22 46.13L632.62 49.09L633.91 52.09L635.07 55.13L636.11 58.2L637.03 61.3L637.82 64.43L638.5 67.58L639.05 70.76L639.47 73.94L639.78 77.14L639.96 80.35L640.03 83.55L639.96 86.76L639.78 89.97L639.47 93.17L639.05 96.35L638.5 99.52L637.82 102.68L637.03 105.81L636.11 108.91L635.07 111.98L633.91 115.02L632.62 118.02L631.22 120.97L629.69 123.89L628.04 126.75L626.26 129.56L624.37 132.31L622.35 135L620.21 137.62L617.94 140.18L615.56 142.67L615.56 142.67L142.67 615.56L140.18 617.94L137.62 620.21L135 622.35L132.31 624.37L129.56 626.26L126.75 628.04L123.89 629.69L120.97 631.22L118.02 632.62L115.02 633.91L111.98 635.07L108.91 636.11L105.81 637.03L102.68 637.82L99.52 638.5L96.35 639.05L93.17 639.47L89.97 639.78L86.76 639.96L83.55 640.03L80.35 639.96L77.14 639.78L73.94 639.47L70.76 639.05L67.58 638.5L64.43 637.82L61.3 637.03L58.2 636.11L55.13 635.07L52.09 633.91L49.09 632.62L46.13 631.22L43.22 629.69L40.36 628.04L37.55 626.26L34.8 624.37L32.11 622.35L29.48 620.21L26.93 617.94L24.44 615.56L22.06 613.07L19.79 610.52L17.65 607.89L15.63 605.2L13.74 602.45L11.96 599.64L10.31 596.78L8.78 593.87L7.38 590.91L6.09 587.91L4.93 584.87L3.89 581.8L2.97 578.7L2.18 575.57L1.5 572.42L0.95 569.24L0.53 566.06L0.22 562.86L0.04 559.65L-0.03 556.45L0.04 553.24L0.22 550.03L0.53 546.83L0.95 543.65L1.5 540.48L2.18 537.32L2.97 534.19L3.89 531.09L4.93 528.02L6.09 524.98L7.38 521.98L8.78 519.03L10.31 516.11L11.96 513.25L13.74 510.44L15.63 507.69L17.65 505L19.79 502.38L22.06 499.82L24.44 497.33L24.44 497.33L497.33 24.44L499.82 22.06L502.38 19.79L505 17.65L507.69 15.63L510.44 13.74L513.25 11.96L516.11 10.31L519.03 8.78L521.98 7.38L524.98 6.09L528.02 4.93L531.09 3.89L534.19 2.97L537.32 2.18L540.48 1.5L543.65 0.95L546.83 0.53L550.03 0.22L553.24 0.04L556.45 -0.03L559.65 0.04L562.86 0.22L562.86 0.22L566.06 0.53Z" id="f7KmUF6P9Q"></path></defs><g><g><g><use xlink:href="#aN7qubQmW" opacity="1" fill="#5f5e5e" fill-opacity="1"></use></g><g><use xlink:href="#f7KmUF6P9Q" opacity="1" fill="#5f5e5e" fill-opacity="1"></use></g></g></g></svg>